<svg width="596" height="327" viewBox="0 0 596 327" fill="none" xmlns="http://www.w3.org/2000/svg">
<g clip-path="url(#clip0)">
<path opacity="0.1" d="M537.938 296.21C537.97 306.373 526.117 315.919 505.41 324.174L113.766 325.387C95.6452 325.443 78.6565 319.683 64.0802 309.593C60.4119 305.759 58.473 301.782 58.4603 297.691C58.4268 286.889 71.831 276.766 95.0341 268.173L95.689 267.938C102.238 265.535 109.559 263.263 117.561 261.124C117.763 261.069 117.969 261.02 118.171 260.956C124.52 259.282 131.275 257.694 138.436 256.19C138.662 256.145 138.884 256.095 139.111 256.058C141.873 255.469 144.69 254.919 147.568 254.369L148.677 254.16C169.62 250.241 193.43 247.109 219.256 244.955L219.286 244.955C222.903 244.646 226.559 244.367 230.253 244.121C234.362 243.817 238.522 243.558 242.728 243.317C245.94 243.124 249.192 242.958 252.455 242.804C252.467 242.8 252.48 242.797 252.493 242.797C252.506 242.797 252.518 242.8 252.53 242.804C267.25 242.101 282.459 241.71 298.013 241.662C336.473 241.543 372.832 243.522 405.055 247.142C405.085 247.138 405.116 247.138 405.146 247.142C410.1 247.699 414.964 248.288 419.707 248.917C421.064 249.1 422.416 249.284 423.743 249.472C429.095 250.221 434.309 251.015 439.385 251.851C499.078 261.721 537.882 277.871 537.938 296.21Z" fill="#00816E"/>
<path d="M439.863 109.245C439.863 109.245 434.521 107.344 417.566 114.295C400.612 121.246 398.491 120.381 394.095 119.357C389.699 118.333 387.247 118.073 382.519 112.324C382.519 112.324 379.146 96.3693 375.905 93.9025C372.665 91.4356 359.029 95.3675 359.029 95.3675C359.029 95.3675 342.654 98.7491 339.472 79.3329C339.472 79.3329 341.64 64.6974 338.611 60.2179C338.611 60.2179 344.71 62.5239 354.745 58.7373C364.78 54.9506 372.848 62.7274 372.848 62.7274C372.848 62.7274 375.388 68.5317 375.146 72.0019C374.905 75.472 376.503 76.7681 381.289 75.0767C381.289 75.0767 383.635 72.1008 380.286 67.2021C376.937 62.3034 374.545 58.6581 375.461 54.846C376.377 51.034 379.039 45.7367 387.63 43.0677C396.221 40.3988 407.894 39.8753 413.491 37.7701C419.088 35.6649 420.466 34.3283 420.466 34.3283C420.466 34.3283 417.025 37.4015 425.191 50.3642C433.356 63.3269 428.194 68.9762 428.194 68.9762C428.194 68.9762 423.9 78.1235 404.813 77.4405C404.813 77.4405 386.427 78.0921 396.475 84.973C396.475 84.973 402.891 83.7951 412.48 81.0605C422.069 78.3259 429.034 89.4682 430.778 97.2288C432.521 104.989 439.863 109.245 439.863 109.245Z" fill="#00816E"/>
<path d="M414.942 44.1812L415.042 44.154C415.786 46.6286 407.602 56.6151 400.601 64.5548L400.52 64.4969C410.39 53.3159 415.517 46.0974 414.942 44.1812Z" fill="#444053"/>
<path d="M400.663 64.3442L400.708 64.4425C395.115 70.7816 388.082 78.3414 382.451 83.9608C381.913 84.4945 381.38 85.0551 380.868 85.6289L380.706 85.5132C381.209 84.9393 381.757 84.3743 382.295 83.8406C387.921 78.2435 395.064 70.6879 400.663 64.3442Z" fill="#444053"/>
<path d="M380.839 85.3698L380.951 85.5393C370.707 96.9495 370.081 114.634 370.057 114.773L367.881 112.544C367.906 112.401 370.526 96.8606 380.839 85.3698Z" fill="#444053"/>
<path d="M427.947 103.114C427.947 103.114 415.826 97.5626 406.371 99.6038C396.916 101.645 375.609 92.5903 375.609 92.5903C375.609 92.5903 366.572 89.3679 364.745 85.6672C364.745 85.6672 358.528 79.8743 358.161 76.8755C357.794 73.8766 351.743 66.3351 347.809 66.0566" stroke="#444053" stroke-miterlimit="10"/>
<path d="M426.18 108.496C426.18 108.496 420.067 104.867 420.765 100.617" stroke="#444053" stroke-miterlimit="10"/>
<path d="M416.836 113.234C416.836 113.234 408.097 110.453 407.211 99.4395" stroke="#444053" stroke-miterlimit="10"/>
<path d="M402.77 116.129C402.77 116.129 394.41 110.021 397.145 99.2912" stroke="#444053" stroke-miterlimit="10"/>
<path d="M385.819 113.186C385.819 113.186 380.239 102.875 385.156 96.1401" stroke="#444053" stroke-miterlimit="10"/>
<path d="M428.042 96.3024C428.042 96.3024 421.738 98.1103 423.099 101.039" stroke="#444053" stroke-miterlimit="10"/>
<path d="M420.394 86.192C420.394 86.192 411.954 88.5922 411.79 99.1842" stroke="#444053" stroke-miterlimit="10"/>
<path d="M408.605 83.7591C408.605 83.7591 400.94 92.1971 401.529 99.8405" stroke="#444053" stroke-miterlimit="10"/>
<path d="M395.15 87.1021C395.15 87.1021 387.535 93.5996 388.519 97.1956" stroke="#444053" stroke-miterlimit="10"/>
<path d="M390.539 84.8307C390.539 84.8307 383.381 85.9885 382.371 83.9082" stroke="#444053" stroke-miterlimit="10"/>
<path d="M381.211 77.1973C381.211 77.1973 384.84 81.4334 385.76 80.4782" stroke="#444053" stroke-miterlimit="10"/>
<path d="M417.07 74.3983C417.07 74.3983 399.018 75.6167 394.918 70.8008" stroke="#444053" stroke-miterlimit="10"/>
<path d="M377.367 55.8008C377.367 55.8008 385.885 71.892 392.049 73.9251" stroke="#444053" stroke-miterlimit="10"/>
<path d="M386.207 48.0977C386.207 48.0977 391.453 62.9069 397.912 67.5143" stroke="#444053" stroke-miterlimit="10"/>
<path d="M424.625 62.1391C424.625 62.1391 410.913 67.4036 402.656 62.1445" stroke="#444053" stroke-width="0.75" stroke-miterlimit="10"/>
<path d="M398.422 44.8984C398.422 44.8984 401.593 55.7842 405.827 58.4045" stroke="#444053" stroke-width="0.75" stroke-miterlimit="10"/>
<path d="M422.517 49.934C422.517 49.934 414.809 52.551 411.928 50.5748" stroke="#444053" stroke-width="0.75" stroke-miterlimit="10"/>
<path d="M374.607 80.7761C374.607 80.7761 374.636 90.2767 371.723 90.9608" stroke="#444053" stroke-miterlimit="10"/>
<path d="M350.795 93.158C350.795 93.158 362.397 94.0162 367.712 88.6839" stroke="#444053" stroke-miterlimit="10"/>
<path d="M371.587 69.5631C371.587 69.5631 368.813 79.2065 361.085 81.828" stroke="#444053" stroke-miterlimit="10"/>
<path d="M343.817 83.0306C343.817 83.0306 352.025 85.5312 359.061 79.0758" stroke="#444053" stroke-miterlimit="10"/>
<path d="M362.438 61.3063C362.438 61.3063 361.692 69.4904 356.686 73.3374" stroke="#444053" stroke-miterlimit="10"/>
<path d="M344.088 70.5598C344.088 70.5598 350.892 70.5789 352.479 68.6068" stroke="#444053" stroke-miterlimit="10"/>
<path d="M393.393 101.476L199.629 102.076L199.897 188.784L393.662 188.184L393.393 101.476Z" fill="#33323D"/>
<path d="M454.717 214.339L139.621 215.314L139.798 272.389L454.894 271.414L454.717 214.339Z" fill="#33323D"/>
<path d="M214.879 229.348L376.452 228.847L408.941 324.786L181.129 325.492L214.879 229.348Z" fill="white"/>
<path d="M130.539 181.312L130.631 210.95L130.65 217.191L130.821 272.411L191.18 272.224L191.016 219.544L403.35 218.886L403.513 271.566L463.872 271.379L463.701 216.16L463.681 209.918L463.589 180.281L130.539 181.312Z" fill="#504F60"/>
<path opacity="0.1" d="M463.589 180.281L130.539 181.312L130.631 210.945L463.681 209.914L463.589 180.281Z" fill="#33323D"/>
<path opacity="0.8" d="M445.698 199.549C448.434 199.54 450.645 197.568 450.637 195.143C450.63 192.718 448.407 190.759 445.671 190.768C442.936 190.776 440.725 192.749 440.732 195.174C440.74 197.598 442.963 199.557 445.698 199.549Z" fill="#8CCF4D"/>
<path opacity="0.8" d="M423.413 199.617C426.149 199.609 428.36 197.636 428.352 195.211C428.345 192.787 426.121 190.828 423.386 190.836C420.651 190.845 418.44 192.817 418.447 195.242C418.455 197.667 420.678 199.625 423.413 199.617Z" fill="#FA5959"/>
<path d="M386.214 80.6412L206.688 81.1973L206.98 175.586L386.507 175.03L386.214 80.6412Z" fill="white"/>
<path d="M413.95 218.323C414.339 221.974 411.238 225.529 412.157 229.103C412.351 229.867 412.727 230.59 412.865 231.336C413.245 233.459 411.824 235.475 410.463 237.259L398.794 252.576C398.327 253.248 397.766 253.866 397.126 254.415C394.887 256.21 391.527 256.015 388.589 256.551C386.523 256.929 384.573 257.698 382.871 258.805C382.797 258.857 382.749 258.932 382.735 259.015C382.721 259.098 382.743 259.183 382.797 259.252C383.284 259.84 383.929 260.31 384.673 260.62C385.418 260.93 386.238 261.07 387.059 261.027C387.368 261.384 387.062 261.921 386.639 262.173C386.01 262.559 385.128 262.665 385.025 263.613C384.981 263.942 385.057 264.276 385.24 264.565C385.716 265.203 386.453 265.653 387.296 265.819C391.334 266.906 395.731 264.961 398.759 262.323C401.787 259.685 403.955 256.361 406.928 253.673C408.572 252.189 410.45 250.913 412.14 249.473C415.52 246.601 418.172 243.11 420.683 239.61C421.513 238.595 422.137 237.46 422.529 236.256C422.838 235.065 422.693 233.81 423.052 232.628C423.521 231.084 424.793 229.851 425.849 228.551C427.924 226.005 429.301 222.898 429.014 219.769C428.727 216.641 426.538 213.567 423.207 212.513C422.173 212.152 421.036 212.094 419.963 212.349C418.598 212.724 417.597 213.729 416.667 214.688L414.45 216.971C413.897 217.476 413.459 218.071 413.159 218.723C413.017 219.052 412.985 219.41 413.068 219.754C413.15 220.098 413.343 220.413 413.624 220.662" fill="#FBBEBE"/>
<path opacity="0.05" d="M413.95 218.323C414.339 221.974 411.238 225.529 412.157 229.103C412.351 229.867 412.727 230.59 412.865 231.336C413.245 233.459 411.824 235.475 410.463 237.259L398.794 252.576C398.327 253.248 397.766 253.866 397.126 254.415C394.887 256.21 391.527 256.015 388.589 256.551C386.523 256.929 384.573 257.698 382.871 258.805C382.797 258.857 382.749 258.932 382.735 259.015C382.721 259.098 382.743 259.183 382.797 259.252C383.284 259.84 383.929 260.31 384.673 260.62C385.418 260.93 386.238 261.07 387.059 261.027C387.368 261.384 387.062 261.921 386.639 262.173C386.01 262.559 385.128 262.665 385.025 263.613C384.981 263.942 385.057 264.276 385.24 264.565C385.716 265.203 386.453 265.653 387.296 265.819C391.334 266.906 395.731 264.961 398.759 262.323C401.787 259.685 403.955 256.361 406.928 253.673C408.572 252.189 410.45 250.913 412.14 249.473C415.52 246.601 418.172 243.11 420.683 239.61C421.513 238.595 422.137 237.46 422.529 236.256C422.838 235.065 422.693 233.81 423.052 232.628C423.521 231.084 424.793 229.851 425.849 228.551C427.924 226.005 429.301 222.898 429.014 219.769C428.727 216.641 426.538 213.567 423.207 212.513C422.173 212.152 421.036 212.094 419.963 212.349C418.598 212.724 417.597 213.729 416.667 214.688L414.45 216.971C413.897 217.476 413.459 218.071 413.159 218.723C413.017 219.052 412.985 219.41 413.068 219.754C413.15 220.098 413.343 220.413 413.624 220.662" fill="black"/>
<path d="M423.112 312.312C420.554 313.701 417.367 313.801 414.39 313.483C413.886 313.436 413.346 313.406 413.039 313.733C412.597 314.213 413.124 314.909 413.665 315.292C415.426 316.453 417.492 317.199 419.668 317.46C421.61 317.694 423.569 317.803 425.529 317.786C430.876 317.85 436.252 317.913 441.545 317.213C441.851 317.192 442.148 317.113 442.417 316.982C442.759 316.77 442.994 316.449 443.075 316.086C443.44 314.869 442.734 313.557 441.678 312.715C440.621 311.873 439.263 311.403 437.935 310.938L433.28 309.347C432.185 308.971 430.431 307.979 429.241 308.059C427.068 308.222 424.955 311.349 423.112 312.312Z" fill="#3F3D56"/>
<path opacity="0.05" d="M423.112 312.312C420.554 313.701 417.367 313.801 414.39 313.483C413.886 313.436 413.346 313.406 413.039 313.733C412.597 314.213 413.124 314.909 413.665 315.292C415.426 316.453 417.492 317.199 419.668 317.46C421.61 317.694 423.569 317.803 425.529 317.786C430.876 317.85 436.252 317.913 441.545 317.213C441.851 317.192 442.148 317.113 442.417 316.982C442.759 316.77 442.994 316.449 443.075 316.086C443.44 314.869 442.734 313.557 441.678 312.715C440.621 311.873 439.263 311.403 437.935 310.938L433.28 309.347C432.185 308.971 430.431 307.979 429.241 308.059C427.068 308.222 424.955 311.349 423.112 312.312Z" fill="black"/>
<path d="M426.186 257.557C424.262 259.848 422.262 262.487 422.75 265.316C423.012 266.84 423.98 268.183 424.69 269.589C425.58 271.523 426.24 273.535 426.661 275.591C427.396 278.58 428.132 281.578 428.585 284.612C429.1 288.04 426.76 297.968 426.549 301.425C426.496 302.256 426.393 303.16 425.739 303.761C425.483 303.999 425.14 304.21 425.03 304.501C424.96 304.797 425.015 305.105 425.184 305.368C426.285 307.551 428.525 309.167 431.009 310.089C433.493 311.011 439.535 312.589 442.228 312.665C442.586 312.702 442.949 312.658 443.282 312.537C443.645 312.343 443.93 312.052 444.096 311.707C446.033 308.406 444.126 296.68 444.144 292.956C444.135 289.826 444.977 286.766 444.817 283.663C444.683 281.173 443.924 278.748 443.644 276.263C443.182 272.192 444.012 268.103 444.847 264.076C445.483 260.994 446.119 257.907 446.936 254.855C447.435 252.998 448.014 251.119 449.164 249.483C450.073 248.197 451.31 247.125 452.35 245.897C455.233 242.525 456.505 238.285 455.89 234.091C455.828 233.68 449.177 235.61 448.597 235.835C446.211 236.743 444.016 238.005 442.108 239.566C440.599 240.867 439.369 242.61 438.021 244.072C436.121 246.135 434.247 248.213 432.397 250.309C430.297 252.714 428.226 255.131 426.186 257.557Z" fill="#464353"/>
<path opacity="0.05" d="M426.186 257.41C424.261 259.7 422.262 262.34 422.75 265.173C423.012 266.692 423.98 268.035 424.69 269.441C425.579 271.376 426.24 273.388 426.66 275.444C427.396 278.433 428.131 281.43 428.585 284.465C429.1 287.892 426.76 297.825 426.549 301.282C426.496 302.109 426.393 303.017 425.739 303.613C425.482 303.851 425.14 304.062 425.03 304.353C424.955 304.658 425.009 304.976 425.184 305.247C426.285 307.425 428.525 309.046 431.009 309.964C433.493 310.881 439.533 311.726 442.226 311.793C442.584 311.83 442.946 311.786 443.28 311.665C443.643 311.471 443.928 311.181 444.094 310.835C446.031 307.534 444.126 296.555 444.144 292.835C444.135 289.706 444.977 286.64 444.817 283.538C444.683 281.048 443.924 278.623 443.644 276.138C443.182 272.066 444.012 267.977 444.847 263.955C445.483 260.869 446.119 257.782 446.936 254.73C447.435 252.873 448.014 250.993 449.164 249.358C450.073 248.076 451.31 247 452.35 245.798C455.23 242.425 456.501 238.186 455.89 233.993C455.828 233.577 449.177 235.507 448.597 235.737C446.209 236.646 444.014 237.911 442.108 239.477C440.599 240.782 439.369 242.521 438.021 243.96C436.121 246.023 434.247 248.103 432.397 250.201C430.297 252.592 428.226 254.995 426.186 257.41Z" fill="black"/>
<path d="M404.5 207.321C410.497 207.303 415.345 202.978 415.329 197.662C415.312 192.346 410.437 188.051 404.44 188.07C398.444 188.088 393.595 192.413 393.612 197.729C393.628 203.045 398.503 207.34 404.5 207.321Z" fill="#FBBEBE"/>
<path d="M414.241 197.263C415.248 198.68 416.566 199.902 418.117 200.857C419.669 201.812 421.421 202.481 423.27 202.824L422.461 205.451C421.063 209.984 419.464 214.777 415.555 217.928C415.979 216.393 415.419 214.745 414.437 213.429C413.386 212.149 412.142 211.004 410.74 210.025L404.476 205.225C404.289 205.103 404.13 204.952 404.006 204.779C403.853 204.441 403.852 204.063 404.002 203.724C404.792 201.526 407.063 200.138 408.899 198.657C409.822 197.885 410.648 197.026 411.362 196.096C412.638 194.514 413.415 196.09 414.241 197.263Z" fill="#FBBEBE"/>
<path d="M390.13 188.065L389.882 186.277C391.598 186.665 393.218 185.373 394.308 184.028C395.398 182.683 396.412 181.107 398.08 180.547C400.095 179.861 402.257 180.941 404.196 181.829C406.371 182.893 408.757 183.577 411.223 183.842C411.616 183.852 412.007 183.908 412.384 184.008C413.646 184.402 414.25 185.79 414.436 187.073C414.621 188.356 414.575 189.697 415.204 190.831C415.676 191.688 416.489 192.324 416.986 193.168C418.32 195.444 417.048 198.56 418.457 200.791L414.969 197.971C414.645 197.713 414.195 197.446 413.848 197.666C413.501 197.887 413.552 198.217 413.437 198.517C413.102 199.412 411.867 199.667 410.963 199.325C410.06 198.984 409.407 198.226 408.744 197.544C407.201 195.939 405.366 194.532 403.185 193.85C402.241 193.532 401.231 193.397 400.223 193.454C399.215 193.51 398.232 193.756 397.34 194.177C395.719 194.995 394.535 196.895 392.548 196.968C389.82 197.066 388.671 192.567 387.399 190.792C387.859 190.481 388.182 190.037 388.311 189.538C388.441 189.038 388.368 188.515 388.107 188.058C388.329 187.981 390.093 187.774 390.13 188.065Z" fill="#464353"/>
<path d="M435.774 312.197C433.633 313.9 430.85 314.829 427.974 314.801C427.243 314.803 426.23 314.931 426.227 315.58C426.24 315.773 426.314 315.958 426.44 316.116C427.355 317.454 428.795 318.446 430.484 318.902C432.048 319.317 433.723 319.241 435.356 319.164L440.122 318.93C441.019 318.883 441.922 318.84 442.819 318.738C443.717 318.637 444.685 318.469 445.622 318.345C447.919 318.047 450.242 317.942 452.561 318.033C453.176 318.054 453.888 318.029 454.27 317.617C454.652 317.204 454.442 316.463 454.299 315.868C454.013 314.644 454.292 313.36 454.026 312.132C453.56 309.974 451.462 308.33 449.15 307.555C447.004 306.837 443.199 306.022 441.17 307.231C438.995 308.534 437.69 310.649 435.774 312.197Z" fill="#3F3D56"/>
<path d="M440.273 239.928C440.702 241.715 442.638 243.05 442.704 244.839C442.754 246.287 441.588 247.525 440.754 248.757C439.958 250.047 439.288 251.396 438.749 252.787C437.169 256.398 435.207 259.87 432.891 263.155C431.776 264.728 430.531 266.44 430.794 268.285C430.972 269.146 431.316 269.974 431.81 270.732L435.182 276.628C435.922 277.805 436.502 279.057 436.908 280.356C437.199 281.477 437.233 282.639 437.423 283.783C437.964 287.403 439.892 291.045 438.773 294.558C438.673 294.863 438.321 295.23 438.053 295.008C439.163 296.837 440.082 298.685 439.982 300.765C439.94 301.856 439.566 303.001 440.028 304.01C440.289 304.403 440.461 304.837 440.536 305.288C440.537 305.583 440.381 305.865 440.347 306.182C440.259 307.019 441.124 307.713 442.027 307.965C442.931 308.217 443.904 308.206 444.813 308.444C446.564 308.886 447.809 310.223 449.31 311.149C450.829 312.076 452.623 312.588 454.468 312.621C454.73 312.645 454.994 312.598 455.225 312.485C455.356 312.383 455.462 312.257 455.535 312.115C455.608 311.974 455.645 311.821 455.646 311.665C455.724 310.925 455.595 310.179 455.271 309.493C454.947 308.807 454.438 308.202 453.788 307.732C453.505 307.574 453.271 307.357 453.105 307.1C453.019 306.871 452.996 306.627 453.037 306.389C453.299 303.138 453.223 299.872 452.81 296.634C452.625 295.609 452.563 294.569 452.624 293.532C452.722 292.669 453.012 291.809 452.898 290.947C452.785 290.084 452.293 289.308 451.998 288.477C451.489 287.003 451.615 285.42 451.555 283.874C451.456 281.191 450.757 278.565 450.058 275.956C449.787 274.933 449.482 273.856 448.657 273.099C447.959 272.457 446.833 271.839 447.092 270.98C447.234 270.662 447.45 270.373 447.725 270.133C448.049 269.771 448.287 269.355 448.423 268.91C448.56 268.464 448.592 267.999 448.519 267.542C448.814 267.61 449.127 267.585 449.403 267.47C449.68 267.354 449.901 267.157 450.03 266.911C455.475 264.619 459.869 260.045 461.795 254.978C461.902 254.604 462.071 254.247 462.296 253.916C462.798 253.289 463.675 253.018 464.45 252.667C466.888 251.573 468.571 249.525 470.113 247.521C471.012 246.356 471.906 245.155 472.291 243.79C472.5 242.908 472.599 242.008 472.585 241.107L472.707 236.448C472.733 236.147 472.698 235.844 472.603 235.554C472.474 235.276 472.281 235.026 472.036 234.818C470.553 233.426 468.606 232.492 466.48 232.153C465.047 231.929 463.584 231.978 462.137 231.875C459.327 231.678 456.551 230.918 453.742 231.106C449.325 231.405 445.404 234.131 443.332 237.603C442.605 238.843 441.842 239.923 440.273 239.928Z" fill="#464353"/>
<path d="M415.668 209.711C415.734 210.429 415.628 211.151 415.357 211.831C415.016 212.485 414.15 212.993 413.398 212.731C413.623 212.283 413.016 211.753 412.457 211.813C412.18 211.868 411.923 211.983 411.707 212.146C411.491 212.31 411.324 212.517 411.219 212.751C410.845 213.417 410.722 214.171 410.868 214.903C411.047 215.796 411.645 216.689 411.491 217.583C411.367 218.344 410.739 219.106 411.08 219.82C411.298 220.141 411.571 220.43 411.889 220.676C412.334 221.157 412.553 221.77 412.502 222.391C412.45 223.011 412.132 223.59 411.612 224.008L420.075 224.129C419.771 225.386 420.406 226.668 421.136 227.779C423.177 230.832 425.989 233.425 429.35 235.353C432.712 237.282 436.532 238.494 440.511 238.896C440.297 239.009 440.114 239.163 439.974 239.346C439.835 239.529 439.743 239.738 439.705 239.956C439.667 240.175 439.684 240.398 439.755 240.61C439.826 240.822 439.949 241.017 440.115 241.182C440.803 241.783 441.968 241.703 442.829 241.307C443.69 240.911 444.369 240.261 445.154 239.758C446.539 238.877 448.234 238.465 449.932 238.598C450.991 238.684 452.021 238.985 453.085 239.036C456.222 239.173 458.909 237.167 461.908 236.326C464.105 235.72 466.591 235.712 468.458 234.49C469.254 233.965 469.901 233.104 469.667 232.251C469.468 231.762 469.156 231.315 468.75 230.94C467.682 229.727 467.052 228.262 466.291 226.883C464.774 224.15 462.691 221.693 460.151 219.641C458.238 218.164 456.212 216.807 454.087 215.578C453.569 215.238 453.018 214.941 452.44 214.689C451.669 214.469 450.916 214.201 450.188 213.887C449.177 213.336 448.615 212.358 447.851 211.569C446.166 209.84 443.586 209.047 441.514 207.69C440.125 206.8 438.9 205.579 437.24 205.142C436.437 204.93 435.58 204.914 434.772 204.702C432.945 204.216 431.609 202.781 429.812 202.205C428.388 201.762 426.825 201.874 425.322 201.714C423.668 201.537 422.087 201.01 420.712 200.176C420.256 199.852 419.744 199.594 419.197 199.412C416.93 198.807 416.755 202.549 416.548 203.851C416.216 205.842 415.662 207.757 415.668 209.711Z" fill="#00816E"/>
<path d="M417.915 222.266C418.304 225.918 415.203 229.468 416.122 233.047C416.316 233.811 416.692 234.534 416.83 235.28C417.215 237.402 415.789 239.419 414.428 241.198L402.759 256.48C402.291 257.152 401.731 257.769 401.09 258.318C398.852 260.113 395.492 259.918 392.554 260.455C390.488 260.834 388.538 261.602 386.836 262.708C386.762 262.76 386.713 262.836 386.7 262.919C386.686 263.002 386.708 263.086 386.762 263.155C387.248 263.744 387.892 264.215 388.637 264.525C389.382 264.836 390.203 264.975 391.024 264.93C391.333 265.292 391.027 265.825 390.604 266.076C389.975 266.467 389.093 266.573 388.99 267.521C388.946 267.85 389.021 268.183 389.204 268.472C389.682 269.11 390.419 269.559 391.261 269.727C395.299 270.814 399.696 268.869 402.724 266.231C405.752 263.593 407.92 260.269 410.898 257.581C412.542 256.096 414.419 254.821 416.105 253.38C419.49 250.508 422.112 247.018 424.648 243.518C425.476 242.502 426.101 241.367 426.493 240.163C426.802 238.973 426.657 237.717 427.017 236.536C427.486 234.992 428.758 233.754 429.813 232.459C431.888 229.913 433.266 226.806 432.979 223.677C432.691 220.548 430.503 217.475 427.171 216.421C426.139 216.058 425.001 216 423.928 216.257C422.567 216.632 421.562 217.637 420.632 218.596L418.415 220.879C417.862 221.383 417.425 221.978 417.129 222.631C416.986 222.958 416.953 223.315 417.035 223.659C417.116 224.002 417.309 224.317 417.589 224.565" fill="#FBBEBE"/>
<path d="M423.799 207.24C422.256 207.325 420.562 207.464 419.476 208.442C419.024 208.891 418.657 209.403 418.391 209.957C417.343 211.869 416.32 213.866 416.251 215.99C416.191 217.689 416.766 219.346 417.049 221.026C417.295 222.421 416.684 223.844 416.557 225.257C418.467 224.733 420.987 224.019 422.719 223.137C423.853 222.474 425.06 221.913 426.32 221.463C428.159 220.916 431.253 221.836 432.991 222.596C433.083 221.504 432.159 219.616 432.252 218.525C432.266 218.068 432.356 217.616 432.52 217.183C432.78 216.724 433.087 216.287 433.439 215.879C434.105 214.917 434.409 213.793 434.309 212.669C434.209 211.544 433.708 210.477 432.88 209.621C431.327 208.079 428.894 207.506 426.578 207.276C425.119 207.129 423.648 207.087 422.18 207.151" fill="#00816E"/>
<path d="M195.217 176.669L185.232 163.913C185.232 163.913 185.036 160.749 184.383 160.013C183.73 159.277 184.234 157.63 184.234 157.63C184.234 157.63 184.932 156.734 184.327 156.642C183.721 156.55 184.225 154.545 184.225 154.545L184.169 151.34C184.169 151.34 184.72 148.253 184.253 147.517C184.116 147.317 184.046 147.086 184.054 146.852C184.061 146.618 184.145 146.391 184.295 146.198C184.295 146.198 184.844 144.43 184.288 143.963C183.731 143.495 183.859 140.758 183.989 138.576C184.118 136.394 183.005 135.168 183.004 134.841C183.003 134.515 179.321 131.316 179.32 131.026C179.319 130.735 176.991 129.553 175.593 129.249C174.195 128.945 173.503 128.679 173.548 128.513C173.593 128.348 171.361 127.702 171.361 127.702C171.361 127.702 169.409 127.583 168.66 126.722C167.911 125.861 165.631 125.618 165.575 125.609L165.529 125.44C165.529 125.377 165.504 125.315 165.488 125.252C165.672 124.991 165.839 124.722 165.99 124.446L166.121 124.195C166.937 124.197 167.735 123.974 168.403 123.557C168.732 123.314 169.001 123.013 169.191 122.673C169.382 122.333 169.491 121.962 169.512 121.582C169.549 120.822 169.359 120.067 168.96 119.393C168.55 118.657 167.947 117.89 168.156 117.084C168.246 116.74 168.477 116.435 168.597 116.095C168.776 115.431 168.654 114.732 168.258 114.147C167.903 113.553 167.412 113.027 167.017 112.452C166.516 111.715 166.18 110.899 166.026 110.049C165.997 109.597 165.874 109.153 165.664 108.74C165.452 108.45 165.173 108.202 164.845 108.014C163.387 107.098 161.629 106.633 159.843 106.688C158.577 106.728 157.322 107.036 156.061 106.901C155.309 106.789 154.57 106.621 153.85 106.398C152.291 105.992 150.49 105.832 149.136 106.628C147.781 107.423 147.246 108.981 146.327 110.213C145.519 111.289 144.316 112.195 143.714 113.351C143.714 113.351 143.714 113.306 143.714 113.288C143.563 113.551 143.447 113.829 143.369 114.116C143.199 115.028 143.272 115.962 143.584 116.843C143.654 117.318 143.924 117.751 144.339 118.057C144.799 118.319 145.429 118.255 145.964 118.338L145.904 118.571C145.367 120.883 145.83 123.29 147.201 125.313C148.572 127.336 150.752 128.828 153.307 129.492C153.307 129.577 153.307 129.658 153.307 129.743C153.307 129.979 153.291 130.215 153.259 130.449C153.259 130.449 148.581 129.61 147.327 130.19C146.073 130.771 143.614 131.23 143.241 131.544C142.869 131.858 141.94 131.633 141.109 133.567C140.278 135.501 140.193 137.473 139.107 138.384C138.02 139.295 137.487 139.909 137.439 140.567C137.391 141.224 137.583 141.389 137.165 141.596C136.747 141.803 136.159 142.668 136.332 142.998C136.397 143.224 136.384 143.462 136.295 143.681C136.205 143.901 136.044 144.091 135.831 144.229C135.611 144.367 135.436 144.554 135.322 144.771C135.209 144.987 135.161 145.227 135.185 145.465C135.185 145.465 134.905 146.36 134.255 146.581C133.605 146.802 133.191 148.145 133.191 148.145L131.089 150.297L126.901 146.215C126.586 145.91 126.148 145.728 125.682 145.708C125.216 145.688 124.76 145.833 124.414 146.111L122.366 147.753C121.576 147.926 120.862 148.305 120.317 148.842C119.874 149.252 119.515 149.729 119.257 150.249L118.14 151.147C117.788 151.536 117.573 152.009 117.522 152.506C117.472 153.004 117.588 153.503 117.857 153.942L120.543 156.558L120.543 156.58C119.594 156.657 118.694 156.986 117.958 157.523C113.974 160.665 113.942 163.54 114.542 164.852C115.141 166.165 120.23 171.206 120.23 171.206C120.23 171.206 123.186 174.59 127.443 176.378L127.413 176.41C127.326 176.491 127.243 176.576 127.166 176.665L127.096 176.746L127.031 176.827L126.955 176.925C126.935 176.951 126.917 176.978 126.9 177.006L126.82 177.122C126.801 177.148 126.785 177.175 126.77 177.203C126.735 177.257 126.704 177.311 126.674 177.364C126.663 177.382 126.653 177.4 126.644 177.418C126.604 177.49 126.564 177.561 126.529 177.642L126.489 177.723C126.464 177.776 126.444 177.83 126.419 177.888C126.403 177.923 126.39 177.959 126.379 177.996L126.319 178.157C126.302 178.195 126.289 178.234 126.279 178.273C126.279 178.331 126.239 178.39 126.224 178.452C126.209 178.515 126.199 178.524 126.189 178.564C126.179 178.604 126.139 178.756 126.119 178.859C126.119 178.895 126.119 178.935 126.094 178.976C126.069 179.016 126.07 179.114 126.055 179.186C126.04 179.258 126.055 179.284 126.055 179.338L126.025 179.539L126.026 179.7C126.026 179.776 126.026 179.852 126.001 179.933C125.977 180.013 126.002 180.027 126.002 180.076C126.002 180.205 126.003 180.335 126.003 180.474C125.927 185.285 126.247 185.981 126.247 185.981C126.456 186.425 126.796 186.811 127.23 187.098C127.665 187.385 128.179 187.564 128.718 187.614C128.983 187.632 129.249 187.619 129.51 187.576C131.93 187.197 137.576 186.317 139.594 186.651C140.8 186.844 143.023 186.542 144.606 186.273L145.024 186.2L145.314 187.017L146.232 186.791L147.015 187.187L147.52 187.44C148.446 190.191 152.165 189.241 152.165 189.241L153.049 189.685L162.022 189.863C163.031 190.398 164.096 190.844 165.203 191.194C165.35 191.236 165.5 191.266 165.653 191.282C166.492 191.34 167.334 191.351 168.174 191.315C168.86 191.313 169.39 191.271 169.39 191.271C169.39 191.271 169.292 189.112 169.154 186.693C171.935 186.624 174.709 186.414 177.463 186.064C182.252 185.307 184.237 181.438 184.967 179.37C185.19 180.213 185.35 181.069 185.444 181.93C185.642 182.688 185.894 183.434 186.198 184.164C186.456 184.747 186.797 185.298 187.211 185.806C190.738 184.726 188.595 183.119 187.851 182.433C187.108 181.746 188.352 181.157 188.352 181.157C188.352 181.157 189.328 180.577 189.231 180.045C189.134 179.514 189.086 178.937 192.254 178.967C195.421 178.998 195.217 176.669 195.217 176.669ZM146.054 150.573C146.095 150.805 146.567 153.339 146.942 154.004C147.055 154.443 147.092 154.895 147.052 155.345C145.181 155.216 143.229 155.151 143.229 155.151C143.284 155.211 143.319 155.284 143.33 155.361L143.032 155.303L142.609 155.215L146.044 150.55L146.054 150.573ZM139.245 160.233L142.489 160.67L142.762 160.705C142.671 161.148 142.617 161.597 142.599 162.047C142.6 162.092 142.67 162.141 142.776 162.198C142.732 162.424 142.712 162.653 142.718 162.883C142.769 163.106 144.284 163.593 146.025 163.995C146 164.08 145.98 164.16 145.955 164.232C144.415 163.521 141.998 163.193 141.719 162.662C141.44 162.131 133.201 159.608 133.201 159.608L132.383 159.248L134.548 159.604L135.143 159.548C136.492 159.855 137.862 160.084 139.245 160.233Z" fill="url(#paint0_linear)"/>
<path d="M184.641 178.49C184.641 178.49 183.377 185.397 176.839 186.437C170.3 187.476 148.462 187.343 148.462 187.343C148.462 187.343 135.97 185.785 131.427 176.451C126.884 167.116 123.968 163.401 127.856 163.228C131.744 163.055 152.618 169.41 153.813 169.478C155.009 169.546 185.724 155.166 184.641 178.49Z" fill="#65617D"/>
<path opacity="0.05" d="M184.641 178.49C184.641 178.49 183.377 185.397 176.839 186.437C170.3 187.476 148.462 187.343 148.462 187.343C148.462 187.343 135.97 185.785 131.427 176.451C126.884 167.116 123.968 163.401 127.856 163.228C131.744 163.055 152.618 169.41 153.813 169.478C155.009 169.546 185.724 155.166 184.641 178.49Z" fill="black"/>
<path d="M126.106 186.357C126.31 186.798 126.645 187.182 127.076 187.468C127.506 187.754 128.016 187.931 128.552 187.981C128.817 187.995 129.082 187.98 129.343 187.938C131.738 187.564 137.354 186.689 139.337 187.013C140.527 187.202 142.73 186.904 144.298 186.64C145.342 186.463 146.108 186.295 146.108 186.295C146.108 186.295 144.245 180.868 144.018 180.708C143.79 180.548 135.707 176.263 135.707 176.263L129.321 175.876C128.462 175.993 127.686 176.399 127.156 177.009C126.488 177.736 125.911 178.922 125.877 180.867C125.786 185.656 126.106 186.357 126.106 186.357Z" fill="#3F3D56"/>
<path opacity="0.05" d="M126.108 186.357C126.312 186.799 126.647 187.183 127.078 187.469C127.508 187.755 128.018 187.932 128.554 187.982C127.926 187.268 127.345 186.523 126.812 185.752L126.835 181.79C126.705 180.704 126.863 179.606 127.298 178.584C127.733 177.561 128.432 176.643 129.338 175.903C129.338 175.903 125.975 176.115 125.894 180.895C125.813 185.674 126.108 186.357 126.108 186.357Z" fill="black"/>
<path opacity="0.1" d="M153.771 177.607L159.705 173.462L169.03 165.265L166.508 165.17C166.13 165.385 165.073 166.068 165.035 166.882C164.993 167.879 162.514 166.961 161.22 167.533C159.925 168.105 153.643 175.291 152.539 175.246C151.434 175.2 150.555 174.756 150.093 175.454L150.063 175.499L153.771 177.607Z" fill="black"/>
<path opacity="0.1" d="M127.14 177.018C127.352 177.106 127.57 177.195 127.787 177.275C132.306 178.978 137.89 182.555 138.31 183.206C138.564 183.604 141.802 185.333 144.297 186.631C145.341 186.453 146.107 186.285 146.107 186.285C146.107 186.285 144.244 180.859 144.017 180.699C143.789 180.538 135.707 176.253 135.707 176.253L129.32 175.866C128.453 175.984 127.671 176.397 127.14 177.018Z" fill="black"/>
<path d="M114.576 165.354C115.175 166.657 120.214 171.667 120.214 171.667C120.214 171.667 123.402 175.332 127.927 177.008C132.451 178.684 138.03 182.288 138.445 182.94C138.714 183.359 142.321 185.27 144.857 186.581L145.427 186.875L146.685 187.519L147.352 187.852C147.352 187.852 148.892 186.752 150.427 185.643C151.961 184.534 153.446 183.448 153.446 183.398C153.446 183.349 154.087 181.885 153.945 181.805C153.804 181.725 153.555 181.198 152.968 180.543C152.348 179.816 151.543 179.23 150.617 178.833C149.279 178.229 148.21 177.241 147.583 176.031C147.583 176.031 147.381 175.902 147.077 175.728C146.449 175.348 145.747 175.073 145.007 174.916C143.998 174.808 142.096 172.976 142.096 172.976C141.357 172.553 140.741 171.982 140.295 171.31C139.788 170.417 132.649 166.084 131.987 165.684L149.336 175.493L153.489 177.841L159.422 173.7L168.748 165.503L165.661 165.388C161.121 165.227 153.051 164.98 152.043 165.188C151.217 165.359 150.366 165.412 149.522 165.344C149.522 165.344 147.222 165.44 145.697 164.734C144.171 164.028 141.775 163.7 141.496 163.173C141.217 162.647 133.059 160.141 133.059 160.141C133.059 160.141 121.947 154.949 117.988 158.064C114.028 161.179 113.972 164.041 114.576 165.354Z" fill="#65617D"/>
<path d="M150.276 135.264L151.716 139.467L153.591 148.935L160.366 149.321L162.294 146.454L164.241 143.568C164.241 143.568 165.45 139.737 166.316 136.033C167.078 132.753 167.577 129.568 166.734 129.227C165.981 128.925 165.489 127.822 165.162 126.634C165.122 126.491 165.086 126.339 165.055 126.187C164.826 125.183 164.671 124.166 164.592 123.144C164.592 123.144 150.403 122.535 152.401 127.715C152.757 128.6 152.941 129.532 152.944 130.472C152.945 130.714 152.945 130.951 152.896 131.174C152.8 131.979 152.518 132.757 152.067 133.461C151.616 134.165 151.006 134.779 150.276 135.264Z" fill="#EE8E9E"/>
<path d="M147.331 134.581L147.857 141.733L149.026 147.814L150.326 150.631L151.529 166.043C151.529 166.043 162.627 167.149 165.337 165.978C165.537 165.909 165.711 165.793 165.84 165.641C169.09 161.263 167.982 148.614 167.982 148.614L169.197 140.442L168.357 136.206L166.339 136.024L164.795 135.881C164.795 135.881 164.448 136.263 163.946 136.854C162.584 138.455 160.082 141.61 160.258 142.919C160.49 144.707 159.992 146.555 159.206 146.844C158.42 147.132 157.781 147.626 157.643 147.135C157.446 146.723 157.395 146.268 157.498 145.829C157.637 145.132 156.889 143.01 156.889 143.01C156.889 143.01 155.641 140.524 155.728 139.464C155.816 138.404 155.585 137.175 155.216 136.89C154.847 136.605 154.336 136.321 154.746 135.014C155.155 133.707 152.918 131.17 152.918 131.17L147.331 134.581Z" fill="#E3E8F4"/>
<path opacity="0.1" d="M162.057 152.383L162.559 164.592L165.221 165.894C165.42 165.822 165.594 165.704 165.724 165.552C168.974 161.174 167.865 148.525 167.865 148.525L169.086 140.353L168.241 136.117L166.223 135.935C166.989 132.656 167.484 129.476 166.64 129.129C165.888 128.828 165.395 127.725 165.074 126.541L163.663 135.183C163.663 135.183 163.787 135.961 163.83 136.765C163.891 137.274 163.853 137.788 163.718 138.286C163.534 138.955 163.505 139.65 163.634 140.329C162.806 141.629 162.4 144.035 162.205 146.356C161.942 149.442 162.057 152.383 162.057 152.383Z" fill="black"/>
<path d="M165.111 126.327C165.111 126.327 167.437 126.575 168.176 127.431C168.915 128.287 170.852 128.406 170.852 128.406C170.852 128.406 173.063 129.052 173.018 129.213C172.973 129.374 173.665 129.622 175.037 129.944C176.41 130.267 178.729 131.444 178.73 131.721C178.73 131.999 182.377 135.18 182.378 135.506C182.379 135.832 183.487 137.054 183.357 139.218C183.228 141.382 183.095 144.137 183.651 144.582C184.208 145.028 183.658 146.786 183.658 146.786C183.51 146.978 183.427 147.204 183.42 147.436C183.412 147.669 183.481 147.898 183.617 148.097C184.078 148.828 183.533 151.893 183.533 151.893L183.593 155.08C183.593 155.08 183.095 157.08 183.69 157.163C184.286 157.246 183.603 158.143 183.603 158.143C183.603 158.143 183.103 159.776 183.746 160.512C184.389 161.248 184.585 164.386 184.585 164.386L194.484 177.057C194.484 177.057 194.633 179.386 191.501 179.355C188.369 179.325 188.411 179.897 188.508 180.424C188.606 180.951 187.634 181.531 187.634 181.531C187.634 181.531 186.395 182.107 187.134 182.798C187.872 183.488 189.995 185.078 186.499 186.148C186.085 185.646 185.744 185.098 185.485 184.52C185.186 183.8 184.938 183.065 184.742 182.318C184.742 182.318 184.409 179.212 183.763 178.807C183.116 178.402 183.2 176.439 183.2 176.439C183.2 176.439 184.118 174.844 182.825 174.205C181.532 173.565 162.803 164.431 162.803 164.431L162.311 152.218C162.311 152.218 161.961 143.192 163.888 140.164C163.759 139.485 163.788 138.789 163.972 138.12C164.293 137.386 163.917 135.018 163.917 135.018L165.111 126.327Z" fill="#3F3D56"/>
<path opacity="0.1" d="M153.054 131.281C153.054 131.281 148.421 130.45 147.177 131.026C145.933 131.602 143.499 132.057 143.147 132.38C142.795 132.703 141.861 132.469 141.035 134.39C140.209 136.31 140.129 138.273 139.068 139.175C138.006 140.077 137.463 140.691 137.42 141.344C137.377 141.997 137.559 142.162 137.146 142.364C136.733 142.567 136.14 143.431 136.318 143.757C136.495 144.083 145.924 151.243 145.924 151.243C145.924 151.243 146.396 153.978 146.812 154.67C147.227 155.361 146.385 164.923 145.464 165.578C144.543 166.234 151.664 166.158 151.664 166.158C151.664 166.158 151.967 159.898 152.244 159.557C152.52 159.217 152.035 152.534 152.035 152.534C152.035 152.534 151.972 146.816 152.568 145.303C153.163 143.79 153.052 138.765 153.052 138.765C153.052 138.765 153.572 135.75 154.215 135.046C154.859 134.342 153.054 131.281 153.054 131.281Z" fill="black"/>
<path d="M152.919 131.162C152.919 131.162 148.286 130.331 147.042 130.903C145.799 131.474 143.359 131.938 143.012 132.256C142.665 132.575 141.721 132.341 140.9 134.266C140.079 136.191 139.989 138.145 138.933 139.047C137.876 139.949 137.323 140.563 137.28 141.216C137.237 141.869 137.424 142.034 137.006 142.241C136.588 142.448 136 143.303 136.183 143.629C136.366 143.955 145.789 151.115 145.789 151.115C145.789 151.115 146.256 153.85 146.677 154.541C147.098 155.233 146.245 164.795 145.324 165.45C144.403 166.106 151.549 166.025 151.549 166.025C151.549 166.025 151.852 159.765 152.124 159.429C152.395 159.093 151.92 152.402 151.92 152.402C151.92 152.402 151.857 146.688 152.453 145.175C153.048 143.662 152.962 138.637 152.962 138.637C152.962 138.637 153.482 135.622 154.126 134.918C154.769 134.214 152.919 131.162 152.919 131.162Z" fill="#3F3D56"/>
<path opacity="0.1" d="M152.423 127.706C152.779 128.591 152.963 129.523 152.966 130.463C155.231 131.044 157.65 130.937 159.84 130.161C162.03 129.385 163.866 127.983 165.057 126.178C164.828 125.174 164.673 124.157 164.594 123.135C164.594 123.135 150.425 122.522 152.423 127.706Z" fill="black"/>
<path d="M145.396 121.271C145.402 123.668 146.445 125.971 148.31 127.705C150.176 129.439 152.721 130.472 155.422 130.591C158.122 130.71 160.772 129.905 162.824 128.343C164.877 126.781 166.175 124.581 166.452 122.196C166.729 119.812 165.963 117.424 164.313 115.527C162.662 113.629 160.253 112.366 157.581 111.998C154.909 111.63 152.18 112.185 149.955 113.548C147.729 114.912 146.179 116.98 145.622 119.326C145.47 119.965 145.394 120.618 145.396 121.271Z" fill="#EE8E9E"/>
<path d="M138.69 142.95L136.17 143.651C136.235 143.876 136.222 144.113 136.133 144.332C136.044 144.551 135.882 144.741 135.67 144.877C135.451 145.014 135.276 145.199 135.165 145.415C135.053 145.63 135.007 145.868 135.033 146.104C135.033 146.104 134.758 146.999 134.113 147.211C133.469 147.424 133.059 148.766 133.059 148.766L130.948 150.937C130.948 150.937 130.163 151.511 130.305 151.797C130.447 152.083 129.474 152.166 129.474 152.166L130.001 159.434L134.381 160.158L137.098 159.904L139.305 159.164L141.238 158.134L142.105 156.133L145.962 150.89L138.69 142.95Z" fill="#3F3D56"/>
<path d="M130.108 152.724C130.108 152.724 124.467 145.557 120.283 149.446C116.099 153.335 122.019 159.612 123.401 159.402C124.782 159.192 131.372 158.845 131.372 158.845L130.108 152.724Z" fill="#EE8E9E"/>
<path d="M143.335 149.575L118.482 138.422C118.099 138.251 117.632 138.386 117.438 138.726L107.812 155.564C107.618 155.904 107.771 156.318 108.154 156.49L133.007 167.642C133.39 167.814 133.857 167.678 134.051 167.339L143.677 150.5C143.871 150.161 143.718 149.747 143.335 149.575Z" fill="#3F3D56"/>
<path d="M141.028 150.581L118.973 140.684L110.546 155.424L132.602 165.321L141.028 150.581Z" fill="#00816E"/>
<path d="M113.913 148.025C114.136 148.024 114.316 147.863 114.316 147.666C114.315 147.468 114.134 147.309 113.911 147.309C113.688 147.31 113.508 147.471 113.509 147.668C113.51 147.866 113.691 148.025 113.913 148.025Z" fill="#E6E8EC"/>
<path d="M137.788 159.017C138.158 159.016 138.458 158.749 138.457 158.421C138.456 158.092 138.154 157.827 137.784 157.828C137.414 157.829 137.114 158.096 137.115 158.425C137.116 158.753 137.417 159.018 137.788 159.017Z" fill="#E6E8EC"/>
<path d="M126.477 154.245C126.443 159.637 139.025 160.743 139.025 160.743L142.239 161.18L143.682 161.377L144.266 156.108C144.266 156.108 143.605 156.021 142.782 155.853C141.561 155.607 139.981 155.178 139.651 154.567C139.118 153.553 126.495 148.853 126.477 154.245Z" fill="#EE8E9E"/>
<path opacity="0.1" d="M145.624 119.328C145.914 119.346 146.187 119.452 146.397 119.629C146.751 119.963 146.773 120.558 147.238 120.762C147.411 120.826 147.603 120.845 147.788 120.814C149.013 120.658 149.715 119.431 150.894 119.088C151.58 118.929 152.305 118.982 152.952 119.238C153.215 119.312 153.452 119.446 153.639 119.625C154.034 120.07 153.759 120.742 153.942 121.287C154.197 122.046 155.221 122.342 156.104 122.438C156.987 122.534 157.986 122.589 158.578 123.177C158.774 123.398 158.915 123.653 158.991 123.925C159.068 124.198 159.078 124.482 159.021 124.758C158.969 124.951 158.97 125.152 159.023 125.344C159.267 125.956 160.462 125.858 160.773 125.374C161.004 125.021 160.933 124.73 161.472 124.63C161.858 124.602 162.245 124.661 162.597 124.801C163.537 125.084 164.526 125.215 165.519 125.19C166.146 123.994 166.482 122.695 166.503 121.377C166.525 120.059 166.232 118.752 165.644 117.542C165.056 116.332 164.185 115.246 163.09 114.355C161.995 113.464 160.7 112.789 159.289 112.373C157.879 111.957 156.385 111.811 154.905 111.943C153.426 112.075 151.994 112.482 150.704 113.139C149.415 113.796 148.296 114.686 147.421 115.753C146.547 116.819 145.936 118.038 145.63 119.327L145.624 119.328Z" fill="black"/>
<path d="M159.014 125.098C158.961 124.906 158.96 124.705 159.012 124.512C159.069 124.237 159.059 123.953 158.982 123.681C158.906 123.409 158.765 123.155 158.569 122.935C157.977 122.343 156.983 122.292 156.095 122.192C155.207 122.092 154.187 121.8 153.933 121.041C153.75 120.496 154.025 119.829 153.63 119.383C153.445 119.201 153.208 119.067 152.943 118.996C152.297 118.739 151.571 118.685 150.885 118.842C149.706 119.185 149.004 120.412 147.779 120.568C147.594 120.601 147.402 120.583 147.229 120.516C146.764 120.312 146.722 119.717 146.388 119.383C145.827 118.862 144.763 119.205 144.081 118.818C143.667 118.514 143.399 118.082 143.331 117.609C143.023 116.733 142.952 115.805 143.121 114.9C143.515 113.383 145.045 112.337 146.014 111.033C146.923 109.823 147.433 108.292 148.797 107.487C150.161 106.683 151.922 106.856 153.472 107.258C154.184 107.481 154.917 107.65 155.662 107.761C156.908 107.892 158.158 107.588 159.409 107.548C161.181 107.492 162.924 107.959 164.365 108.874C164.69 109.061 164.966 109.307 165.175 109.596C165.384 110.006 165.508 110.447 165.542 110.896C165.692 111.74 166.025 112.549 166.522 113.28C166.908 113.856 167.398 114.373 167.748 114.967C168.139 115.548 168.261 116.242 168.087 116.902C167.967 117.237 167.736 117.542 167.646 117.887C167.447 118.683 168.039 119.446 168.445 120.178C168.84 120.848 169.028 121.598 168.992 122.353C168.971 122.73 168.863 123.098 168.674 123.436C168.485 123.774 168.219 124.073 167.893 124.315C167.21 124.738 166.394 124.961 165.56 124.953C164.549 124.983 163.541 124.851 162.583 124.564C162.23 124.426 161.843 124.367 161.458 124.393C160.919 124.493 160.99 124.783 160.759 125.137C160.453 125.612 159.263 125.71 159.014 125.098Z" fill="#3F3D56"/>
<path opacity="0.1" d="M153.497 177.848L159.43 173.708L168.755 165.51L165.668 165.395C165.307 165.686 165.077 166.084 165.021 166.514C164.979 167.512 162.499 166.589 161.205 167.166C159.911 167.742 153.629 174.924 152.524 174.878C151.419 174.832 150.541 174.388 150.079 175.082L150.049 175.127C149.865 175.316 149.618 175.447 149.344 175.5L153.497 177.848Z" fill="black"/>
<path d="M141.515 177.6L144.527 186.046L145 187.385L146.421 187.037L149.556 186.262L163.505 182.821C165.264 182.748 166.983 182.337 168.545 181.616C171.18 180.297 174.198 179.704 177.214 179.913C179.061 180.059 181.111 179.347 182.807 176.551C182.807 176.551 186.644 166.413 176.871 163.542C167.098 160.67 166.643 165.116 166.643 165.116L166.507 165.188C166.129 165.403 165.072 166.086 165.035 166.9C164.992 167.897 162.513 166.98 161.219 167.551C159.924 168.123 153.642 175.309 152.538 175.264C151.433 175.218 150.554 174.774 150.092 175.472L150.062 175.517C149.721 175.934 148.697 176.036 148.016 176.051C147.805 176.062 147.592 176.062 147.381 176.053L147.29 176.076L146.585 176.266L141.515 177.6Z" fill="#65617D"/>
<path opacity="0.1" d="M142.235 161.184L143.678 161.381L144.262 156.112C144.262 156.112 143.601 156.025 142.779 155.858C142.998 156.595 142.512 159.435 142.235 161.184Z" fill="black"/>
<path opacity="0.1" d="M179.837 136.451C179.837 136.451 184.116 135.334 183.09 146.121C182.375 152.705 179.238 158.9 174.162 163.751C174.162 163.751 165.05 167.329 160.948 166.769C156.846 166.21 153.855 166.098 153.855 166.098C152.561 165.524 151.147 165.195 149.701 165.132C147.401 165.058 142.561 163.813 142.464 163.397C142.366 162.982 143.644 156.982 143.088 156.537C143.088 156.537 149.539 156.749 150.186 157.159C150.833 157.568 151.755 157.275 152.445 157.152C153.136 157.029 155.249 155.395 159.444 156.813C159.444 156.813 160.872 156.929 161.426 156.601C161.878 156.413 162.393 156.382 162.868 156.516C163.226 156.409 163.565 156.258 163.875 156.066C164.011 155.904 165.121 156.062 165.121 156.062C165.187 156.088 165.259 156.101 165.331 156.1C165.403 156.099 165.475 156.085 165.54 156.057C165.606 156.03 165.664 155.99 165.711 155.942C165.757 155.893 165.792 155.835 165.811 155.773C165.956 155.44 166.174 155.135 166.454 154.877C166.454 154.877 167.675 148.668 170.018 146.331C170.205 146.185 170.349 146.001 170.436 145.794C170.524 145.587 170.552 145.364 170.519 145.145C170.325 144.484 174.306 135.159 179.837 136.451Z" fill="black"/>
<path d="M179.715 135.62C179.715 135.62 183.998 134.507 182.972 145.29C182.259 151.874 179.122 158.069 174.045 162.919C174.045 162.919 164.932 166.502 160.83 165.942C156.728 165.383 153.732 165.258 153.732 165.258C152.44 164.683 151.027 164.354 149.583 164.292C147.278 164.214 142.438 162.972 142.346 162.557C142.254 162.141 143.521 156.142 142.97 155.692C142.97 155.692 149.421 155.909 150.068 156.318C150.715 156.728 151.632 156.43 152.323 156.312C153.013 156.193 155.126 154.555 159.327 155.968C159.327 155.968 160.754 156.089 161.303 155.761C161.755 155.574 162.269 155.542 162.745 155.671C163.102 155.562 163.441 155.411 163.753 155.221C163.888 155.055 164.993 155.217 164.993 155.217C165.059 155.243 165.131 155.256 165.203 155.255C165.276 155.255 165.347 155.24 165.412 155.213C165.478 155.185 165.536 155.146 165.583 155.097C165.629 155.048 165.664 154.991 165.683 154.929C165.828 154.595 166.047 154.291 166.326 154.033C166.326 154.033 167.553 147.823 169.896 145.487C170.083 145.341 170.226 145.156 170.314 144.949C170.401 144.742 170.429 144.519 170.396 144.3C170.208 143.657 174.183 134.345 179.715 135.62Z" fill="#3F3D56"/>
<path opacity="0.1" d="M146.571 176.242L152.673 182.751L152.714 182.715C152.759 182.59 153.355 181.202 153.213 181.118C153.072 181.033 152.011 178.998 149.89 178.146C148.811 177.683 147.904 176.957 147.276 176.053L146.571 176.242Z" fill="black"/>
<path opacity="0.1" d="M146.685 187.541L147.352 187.874C147.352 187.874 148.892 186.774 150.427 185.665C151.961 184.556 153.446 183.469 153.446 183.42C153.446 183.371 154.087 181.907 153.945 181.827C153.804 181.747 153.555 181.22 152.968 180.565C148.839 179.553 151.459 182.085 151.823 182.2C151.823 182.2 146.802 181.192 146.539 186.043C146.517 186.546 146.566 187.049 146.685 187.541Z" fill="black"/>
<path d="M151.783 189.576L152.661 190.02L161.554 190.194C162.552 190.728 163.608 191.174 164.705 191.526C164.85 191.563 164.999 191.591 165.149 191.609C165.974 191.666 166.803 191.677 167.63 191.642C168.311 191.64 168.836 191.598 168.836 191.598C168.836 191.598 168.386 181.66 168.065 180.615C167.912 180.115 167.166 180.224 166.431 180.477C165.879 180.679 165.347 180.92 164.839 181.197C164.839 181.197 161.068 181.535 160.468 181.823C159.869 182.111 158.163 181.665 157.105 181.834C156.046 182.002 154.151 180.739 154.151 180.739C148.987 179.243 151.9 182.051 152.269 182.175C152.269 182.175 147.222 181.167 146.98 186.019C146.738 190.87 151.783 189.576 151.783 189.576Z" fill="#3F3D56"/>
<path d="M164.627 185.702C164.729 187.758 166.547 190.306 167.631 191.652C168.312 191.65 168.836 191.608 168.836 191.608C168.836 191.608 168.387 181.671 168.066 180.626C167.913 180.126 167.167 180.235 166.431 180.488C165.543 181.975 164.541 184.039 164.627 185.702Z" fill="#565387"/>
<path opacity="0.1" d="M164.627 185.702C164.729 187.758 166.547 190.306 167.631 191.652C168.312 191.65 168.836 191.608 168.836 191.608C168.836 191.608 168.387 181.671 168.066 180.626C167.913 180.126 167.167 180.235 166.431 180.488C165.543 181.975 164.541 184.039 164.627 185.702Z" fill="black"/>
<path opacity="0.05" d="M163.105 185.978C163.726 187.961 163.723 190.188 164.706 191.535C164.851 191.573 165 191.601 165.15 191.619C165.975 191.676 166.804 191.687 167.631 191.651C168.312 191.649 168.837 191.607 168.837 191.607C168.837 191.607 168.387 181.67 168.066 180.625C167.913 180.124 167.167 180.234 166.432 180.487C165.88 180.689 165.348 180.929 164.84 181.207C164.84 181.207 162.315 183.437 163.105 185.978Z" fill="black"/>
<path opacity="0.1" d="M132.367 165.924C132.367 165.924 136.789 167.18 140.545 171.684L132.367 165.924Z" fill="black"/>
<g opacity="0.1">
<path opacity="0.1" d="M168.105 116.804C168.105 116.835 168.105 116.862 168.08 116.894C168.037 117.01 167.985 117.124 167.923 117.234C167.972 117.087 168.032 116.943 168.105 116.804Z" fill="black"/>
<path opacity="0.1" d="M143.112 114.9C143.186 114.614 143.301 114.338 143.453 114.077C143.453 114.144 143.403 114.216 143.383 114.287C143.217 115.193 143.291 116.12 143.598 116.996C143.666 117.468 143.932 117.899 144.343 118.205C145.03 118.592 146.093 118.249 146.655 118.77C147.009 119.104 147.031 119.699 147.495 119.903C147.668 119.97 147.86 119.988 148.045 119.955C149.27 119.799 149.973 118.572 151.152 118.229C151.838 118.07 152.564 118.124 153.21 118.383C153.474 118.454 153.712 118.588 153.897 118.77C154.292 119.216 154.016 119.883 154.2 120.428C154.454 121.187 155.479 121.484 156.362 121.579C157.245 121.675 158.243 121.73 158.835 122.323C159.031 122.542 159.173 122.797 159.249 123.069C159.326 123.34 159.336 123.624 159.279 123.899C159.227 124.092 159.227 124.293 159.281 124.485C159.525 125.097 160.72 124.999 161.031 124.516C161.262 124.162 161.19 123.871 161.73 123.771C162.115 123.745 162.501 123.804 162.855 123.942C163.813 124.229 164.821 124.361 165.832 124.331C166.665 124.339 167.481 124.116 168.165 123.693C168.464 123.484 168.707 123.219 168.879 122.917C168.725 123.465 168.372 123.954 167.874 124.307C167.191 124.73 166.375 124.953 165.541 124.944C164.53 124.975 163.522 124.843 162.564 124.555C162.211 124.417 161.824 124.358 161.439 124.385C160.9 124.485 160.971 124.775 160.745 125.129C160.429 125.613 159.234 125.71 158.99 125.099C158.939 124.906 158.939 124.706 158.988 124.513C159.045 124.237 159.035 123.954 158.958 123.682C158.882 123.41 158.741 123.156 158.545 122.936C157.953 122.343 156.959 122.293 156.071 122.193C155.183 122.093 154.164 121.801 153.909 121.041C153.726 120.496 154.001 119.829 153.606 119.384C153.423 119.202 153.187 119.068 152.924 118.997C152.276 118.74 151.549 118.685 150.861 118.842C149.687 119.186 148.98 120.413 147.755 120.569C147.57 120.601 147.378 120.583 147.205 120.517C146.74 120.312 146.698 119.718 146.364 119.384C145.803 118.862 144.744 119.205 144.057 118.819C143.644 118.514 143.375 118.082 143.307 117.609C143.005 116.732 142.938 115.805 143.112 114.9Z" fill="black"/>
</g>
<path opacity="0.1" d="M168.913 147.51C168.069 148.523 167.108 149.461 166.365 150.527C165.558 151.578 165.168 152.838 165.257 154.107C166.026 153.403 166.381 152.427 166.863 151.545C167.685 150.049 168.912 148.78 169.951 147.409C170.147 147.144 171.414 145.616 170.773 145.555C170.238 145.49 169.199 147.165 168.913 147.51Z" fill="black"/>
<path d="M173.749 243.16C174.365 244.893 174.985 246.63 175.752 248.314C177.133 251.24 178.868 254.024 180.927 256.618C182.254 258.326 183.68 259.972 185.199 261.549C187.101 263.524 189.246 265.512 189.899 268.04C190.292 269.501 190.166 271.026 190.332 272.51C190.498 273.993 191.052 275.583 192.422 276.473C193.397 277.11 194.644 277.298 195.839 277.46C196.697 277.578 197.766 277.615 198.208 276.956C198.363 276.687 198.443 276.39 198.443 276.088L198.643 273.901C198.682 273.427 198.871 272.823 199.406 272.799C199.94 272.775 200.21 273.405 200.664 273.689C201.271 274.063 202.177 273.685 202.508 273.116C202.783 272.5 202.799 271.818 202.553 271.193C202.182 269.95 201.518 268.791 200.605 267.792C199.691 266.793 198.55 265.977 197.255 265.397C196.355 265.079 195.493 264.685 194.679 264.221C193.851 263.587 193.165 262.822 192.654 261.965C187.953 255.148 183.226 248.295 179.9 240.87C179.245 239.543 178.801 238.142 178.581 236.707C178.415 235.246 178.667 233.774 178.769 232.307C178.956 229.672 178.672 227.028 177.928 224.472C177.764 223.801 177.478 223.159 177.079 222.57C175.712 220.746 172.534 220.483 170.52 221.75C169.779 222.259 169.165 222.899 168.718 223.629C168.27 224.359 167.999 225.164 167.921 225.992C167.779 227.477 168.747 229.012 169.241 230.392C170.737 234.653 172.24 238.909 173.749 243.16Z" fill="#A1616A"/>
<path opacity="0.05" d="M173.749 243.16C174.365 244.893 174.985 246.63 175.752 248.314C177.133 251.24 178.868 254.024 180.927 256.618C182.254 258.326 183.68 259.972 185.199 261.549C187.101 263.524 189.246 265.512 189.899 268.04C190.292 269.501 190.166 271.026 190.332 272.51C190.498 273.993 191.052 275.583 192.422 276.473C193.397 277.11 194.644 277.298 195.839 277.46C196.697 277.578 197.766 277.615 198.208 276.956C198.363 276.687 198.443 276.39 198.443 276.088L198.643 273.901C198.682 273.427 198.871 272.823 199.406 272.799C199.94 272.775 200.21 273.405 200.664 273.689C201.271 274.063 202.177 273.685 202.508 273.116C202.783 272.5 202.799 271.818 202.553 271.193C202.182 269.95 201.518 268.791 200.605 267.792C199.691 266.793 198.55 265.977 197.255 265.397C196.355 265.079 195.493 264.685 194.679 264.221C193.851 263.587 193.165 262.822 192.654 261.965C187.953 255.148 183.226 248.295 179.9 240.87C179.245 239.543 178.801 238.142 178.581 236.707C178.415 235.246 178.667 233.774 178.769 232.307C178.956 229.672 178.672 227.028 177.928 224.472C177.764 223.801 177.478 223.159 177.079 222.57C175.712 220.746 172.534 220.483 170.52 221.75C169.779 222.259 169.165 222.899 168.718 223.629C168.27 224.359 167.999 225.164 167.921 225.992C167.779 227.477 168.747 229.012 169.241 230.392C170.737 234.653 172.24 238.909 173.749 243.16Z" fill="black"/>
<path d="M144.575 316.295C145.488 316.574 146.459 316.675 147.42 316.591C147.489 315.893 148.547 315.733 149.334 315.767C149.715 315.754 150.092 315.83 150.429 315.987C150.626 316.098 150.778 316.258 150.97 316.374C151.313 316.539 151.696 316.625 152.086 316.625L156.182 316.917C158.008 317.05 159.91 317.169 161.618 316.587C161.958 316.49 162.26 316.309 162.488 316.066C162.951 315.474 162.484 314.63 161.842 314.203C161.2 313.776 160.373 313.586 159.726 313.15C158.301 312.193 158.098 310.397 157.342 308.959C156.805 308.053 156.144 307.21 155.373 306.448C154.814 305.794 154.163 305.206 153.436 304.697C151.788 303.652 149.902 303.68 147.97 303.534C146.608 303.431 145.327 303.363 144.352 304.439C143.145 305.784 143.638 308.465 143.718 310.03C143.819 312.135 144.106 314.23 144.575 316.295Z" fill="#514E7F"/>
<path opacity="0.05" d="M144.575 316.295C145.488 316.574 146.459 316.675 147.42 316.591C147.489 315.893 148.547 315.733 149.334 315.767C149.715 315.754 150.092 315.83 150.429 315.987C150.626 316.098 150.778 316.258 150.97 316.374C151.313 316.539 151.696 316.625 152.086 316.625L156.182 316.917C158.008 317.05 159.91 317.169 161.618 316.587C161.958 316.49 162.26 316.309 162.488 316.066C162.951 315.474 162.484 314.63 161.842 314.203C161.2 313.776 160.373 313.586 159.726 313.15C158.301 312.193 158.098 310.397 157.342 308.959C156.805 308.053 156.144 307.21 155.373 306.448C154.814 305.794 154.163 305.206 153.436 304.697C151.788 303.652 149.902 303.68 147.97 303.534C146.608 303.431 145.327 303.363 144.352 304.439C143.145 305.784 143.638 308.465 143.718 310.03C143.819 312.135 144.106 314.23 144.575 316.295Z" fill="black"/>
<path d="M146.011 245.673C144.761 246.034 144.221 247.417 144.456 248.566C144.692 249.714 145.471 250.704 146.115 251.721C147.95 254.608 148.747 257.914 150.289 260.927C151.441 263.159 152.996 265.256 154.133 267.515C155.269 269.773 155.978 272.324 155.3 274.727C154.971 275.895 154.328 276.965 153.903 278.116C153.483 279.363 153.209 280.644 153.088 281.941C152.546 286.346 152.46 290.785 152.831 295.203C152.836 295.741 152.965 296.273 153.209 296.766C153.468 297.212 153.913 297.658 153.718 298.106C153.633 298.289 153.447 298.424 153.356 298.603C153.096 299.105 153.622 299.635 154.102 299.991C154.017 300.126 153.902 300.244 153.765 300.339C153.627 300.434 153.47 300.504 153.302 300.544C153.646 300.737 153.911 301.023 154.057 301.36C154.204 301.697 154.224 302.067 154.115 302.415C153.691 302.474 153.668 303.051 153.936 303.354C154.204 303.657 154.628 303.844 154.821 304.187C154.935 304.467 154.923 304.775 154.789 305.049C154.655 305.322 154.408 305.539 154.099 305.656C153.47 305.873 152.783 305.922 152.123 305.796C151.004 305.662 149.899 305.45 148.817 305.163C148.252 305.066 147.746 304.792 147.39 304.391C147.035 303.989 146.855 303.488 146.884 302.978C146.629 301.159 146.547 299.324 146.64 297.493C146.789 288.622 146.585 279.744 146.124 270.879C145.936 267.303 144.715 263.842 143.147 260.556C142.28 258.877 141.317 257.239 140.262 255.647C138.001 252.006 136.002 247.97 136.503 243.833C136.557 243.386 136.737 242.853 137.236 242.78C137.431 242.761 137.629 242.79 137.806 242.863C138.844 243.289 139.848 243.776 140.812 244.321C142.395 245.138 144.18 245.601 146.011 245.673Z" fill="#464353"/>
<path opacity="0.05" d="M146.011 245.673C144.761 246.034 144.221 247.417 144.456 248.566C144.692 249.714 145.471 250.704 146.115 251.721C147.95 254.608 148.747 257.914 150.289 260.927C151.441 263.159 152.996 265.256 154.133 267.515C155.269 269.773 155.978 272.324 155.3 274.727C154.971 275.895 154.328 276.965 153.903 278.116C153.483 279.363 153.209 280.644 153.088 281.941C152.546 286.346 152.46 290.785 152.831 295.203C152.836 295.741 152.965 296.273 153.209 296.766C153.468 297.212 153.913 297.658 153.718 298.106C153.633 298.289 153.447 298.424 153.356 298.603C153.096 299.105 153.622 299.635 154.102 299.991C154.017 300.126 153.902 300.244 153.765 300.339C153.627 300.434 153.47 300.504 153.302 300.544C153.646 300.737 153.911 301.023 154.057 301.36C154.204 301.697 154.224 302.067 154.115 302.415C153.691 302.474 153.668 303.051 153.936 303.354C154.204 303.657 154.628 303.844 154.821 304.187C154.935 304.467 154.923 304.775 154.789 305.049C154.655 305.322 154.408 305.539 154.099 305.656C153.47 305.873 152.783 305.922 152.123 305.796C151.004 305.662 149.899 305.45 148.817 305.163C148.252 305.066 147.746 304.792 147.39 304.391C147.035 303.989 146.855 303.488 146.884 302.978C146.629 301.159 146.547 299.324 146.64 297.493C146.789 288.622 146.585 279.744 146.124 270.879C145.936 267.303 144.715 263.842 143.147 260.556C142.28 258.877 141.317 257.239 140.262 255.647C138.001 252.006 136.002 247.97 136.503 243.833C136.557 243.386 136.737 242.853 137.236 242.78C137.431 242.761 137.629 242.79 137.806 242.863C138.844 243.289 139.848 243.776 140.812 244.321C142.395 245.138 144.18 245.601 146.011 245.673Z" fill="black"/>
<path d="M129.065 234.941C128.412 234.572 127.659 234.365 126.884 234.34C125.987 234.383 125.222 234.909 124.522 235.411C123.694 235.979 122.907 236.594 122.168 237.252C120.637 238.707 119.573 240.498 119.086 242.44C118.599 244.382 118.707 246.403 119.398 248.295C120.145 250.264 121.507 251.999 122.854 253.698L125.588 257.159C129.761 262.435 133.933 267.711 138.301 272.862C138.302 272.989 138.349 273.112 138.435 273.214C138.52 273.316 138.64 273.391 138.777 273.428C138.933 273.463 139.13 273.458 139.226 273.574C139.271 273.647 139.29 273.729 139.282 273.811C139.274 274.193 139.193 274.571 139.044 274.93C138.973 275.048 138.956 275.185 138.995 275.314C139.137 275.604 139.731 275.437 139.924 275.709C140.05 275.888 139.895 276.121 139.729 276.273C139.563 276.426 139.357 276.596 139.387 276.806C139.418 277.016 139.833 277.252 139.818 277.511C139.819 277.663 139.668 277.78 139.562 277.901C139.415 278.094 139.348 278.327 139.373 278.558C139.399 278.79 139.515 279.007 139.702 279.17C139.998 281.691 138.457 284.092 138.157 286.606C137.665 290.578 139.72 294.447 139.979 298.43C139.966 298.879 140.063 299.324 140.265 299.735C140.686 300.422 141.782 300.834 141.729 301.617C141.651 301.939 141.549 302.256 141.424 302.566C141.34 303.013 141.583 303.459 141.595 303.907C141.606 304.354 141.159 304.905 140.684 304.728C141.044 305.782 141.365 306.845 141.647 307.917L151.182 308.585C151.282 307.825 151.251 307.056 151.089 306.305C150.89 305.487 150.474 304.729 150.254 303.92C150.112 303.522 150.071 303.101 150.134 302.687C150.198 302.273 150.363 301.877 150.62 301.527C150.372 301.53 150.13 301.456 149.937 301.316C149.745 301.177 149.614 300.982 149.569 300.766C149.488 300.33 149.495 299.885 149.59 299.451C149.835 297.246 148.784 295.077 148.808 292.863C148.833 291.12 149.518 289.441 149.861 287.728C150.596 284.059 149.807 280.087 151.638 276.733C152.746 274.713 154.282 272.473 153.026 270.523C152.407 269.559 151.316 268.901 150.602 267.991C150.02 267.13 149.582 266.2 149.302 265.227C147.822 261.208 145.435 257.478 143.34 253.657C142.759 252.7 142.327 251.677 142.055 250.616C141.905 249.685 141.848 248.745 141.885 247.805C141.88 246.117 141.758 244.432 141.521 242.758C141.472 242.025 141.233 241.311 140.824 240.672C140.411 240.19 139.896 239.783 139.307 239.474C136.174 237.584 132.449 236.509 129.065 234.941Z" fill="#464353"/>
<path d="M140.75 319.407C141.667 319.681 142.638 319.78 143.601 319.697C143.669 319 144.723 318.84 145.51 318.873C145.89 318.861 146.268 318.937 146.605 319.093C146.802 319.205 146.954 319.37 147.151 319.481C147.492 319.648 147.876 319.734 148.266 319.732L152.357 320.023C154.188 320.156 156.085 320.28 157.798 319.694C158.138 319.598 158.439 319.417 158.664 319.172C159.126 318.581 158.659 317.742 158.018 317.314C157.376 316.887 156.548 316.693 155.906 316.257C154.476 315.3 154.279 313.508 153.518 312.071C152.986 311.162 152.326 310.316 151.553 309.555C150.992 308.902 150.34 308.315 149.611 307.808C147.969 306.758 146.078 306.787 144.15 306.641C142.783 306.537 141.502 306.474 140.532 307.546C139.326 308.891 139.818 311.572 139.894 313.141C139.995 315.246 140.281 317.341 140.75 319.407Z" fill="#514E7F"/>
<path d="M182.692 220.143C187.906 220.127 192.122 216.367 192.108 211.745C192.093 207.122 187.855 203.388 182.64 203.404C177.426 203.421 173.211 207.181 173.225 211.803C173.239 216.425 177.478 220.159 182.692 220.143Z" fill="#A1616A"/>
<path d="M173.766 214.286C172.417 215.323 170.476 215.405 168.701 215.572C164.906 215.929 161.214 216.889 157.801 218.404C157.328 218.586 156.901 218.849 156.542 219.177C156.237 219.533 156.02 219.942 155.906 220.377C155.584 221.32 155.465 222.308 155.557 223.289C155.683 224.24 155.995 225.165 156.478 226.022C157.796 228.423 159.824 230.461 162.347 231.919C162.791 232.211 163.295 232.423 163.831 232.545C165.073 232.769 166.271 232.13 167.496 231.84C168.61 231.579 169.785 231.608 170.88 231.924C171.89 232.225 172.996 232.776 173.993 232.402C174.631 232.083 175.127 231.579 175.396 230.975C176.355 229.357 177.211 227.691 177.958 225.987C178.226 225.322 178.535 224.67 178.885 224.035C179.973 222.185 181.86 220.753 182.797 218.832C182.893 218.685 182.95 218.522 182.965 218.353C182.98 218.185 182.953 218.015 182.885 217.857C182.71 217.644 182.467 217.481 182.188 217.39C180.791 216.686 179.517 215.806 178.407 214.777C177.785 214.251 176.641 212.829 175.748 212.706C174.744 212.557 174.445 213.765 173.766 214.286Z" fill="#A1616A"/>
<path d="M174.041 231.293C172.948 231.743 171.657 231.555 170.471 231.339C167.413 230.781 164.319 230.218 161.486 229.056C160.602 228.759 159.834 228.239 159.278 227.56C158.932 226.98 158.721 226.343 158.657 225.689L158.143 222.561C157.958 221.475 158.267 220.468 158.294 219.368C158.313 219.246 158.304 219.122 158.268 219.003C158.233 218.885 158.17 218.773 158.085 218.676C157.912 218.548 157.689 218.486 157.464 218.503C156.047 218.53 155.194 219.852 154.203 220.749C153.631 221.267 152.946 221.677 152.19 221.953C151.283 222.287 150.174 222.523 149.798 223.329C149.648 223.665 149.669 224.045 149.509 224.381C148.878 225.724 146.168 225.285 145.481 226.628C145.286 227.005 145.302 227.474 144.98 227.77C144.659 228.066 144.053 228.064 143.554 228.137C141.583 228.429 140.636 230.448 138.955 231.406C137.54 232.215 135.714 232.203 134.188 232.833C133.342 233.185 132.592 233.732 131.695 233.963C130.798 234.194 129.784 234.076 128.821 234.102C128.718 234.094 128.614 234.104 128.517 234.133C128.419 234.162 128.328 234.208 128.251 234.269C128.192 234.35 128.153 234.442 128.136 234.537C128.12 234.633 128.127 234.731 128.157 234.824C128.633 237.466 129.876 239.952 131.765 242.038C133.655 244.124 136.124 245.737 138.932 246.719C139.257 246.809 139.567 246.941 139.851 247.109C140.71 247.674 140.865 248.894 141.839 249.294C142.191 249.402 142.57 249.422 142.934 249.352C143.298 249.281 143.632 249.123 143.901 248.894C144.437 248.434 144.94 247.946 145.409 247.432C146.296 246.606 147.46 246.058 148.728 245.87C149.898 245.701 151.204 245.818 152.151 245.175C152.537 244.859 152.897 244.517 153.227 244.153C153.927 243.57 154.76 243.125 155.669 242.849C158.152 241.97 160.778 241.45 163.446 241.309C165.932 241.18 168.489 241.374 170.837 240.651C171.447 240.482 172.009 240.198 172.484 239.819C172.988 239.333 173.362 238.753 173.578 238.121C174.419 235.922 174.579 233.564 174.041 231.293Z" fill="#00816E"/>
<path d="M161.833 218.995C162.529 218.935 163.23 218.991 163.931 218.989C164.753 218.986 165.565 218.805 166.387 218.798C167.689 218.813 168.951 219.196 169.989 219.891C171.027 220.587 171.788 221.559 172.158 222.665C172.228 222.842 172.241 223.032 172.196 223.215C172.169 223.305 172.106 223.384 172.019 223.437C171.932 223.489 171.827 223.513 171.722 223.503C171.447 222.842 171.088 222.212 170.652 221.624C169.868 220.68 168.751 219.995 167.479 219.675C166.21 219.361 164.875 219.322 163.585 219.562C163.046 219.653 162.522 219.78 161.998 219.911L159.478 220.536C159.014 220.649 158.546 220.762 158.097 220.911C157.749 221.029 157.156 221.455 156.813 221.474C156.349 221.476 156.721 221.117 156.927 220.875C157.337 220.376 157.912 220.002 158.573 219.806C159.62 219.422 160.714 219.15 161.833 218.995Z" fill="#00816E"/>
<path d="M168.276 244.115C168.891 245.848 169.507 247.585 170.279 249.268C171.658 252.195 173.393 254.98 175.454 257.573C176.781 259.281 178.207 260.927 179.726 262.504C181.623 264.479 183.742 266.467 184.426 268.991C184.819 270.456 184.693 271.981 184.859 273.46C185.025 274.939 185.579 276.534 186.944 277.424C187.924 278.056 189.17 278.244 190.366 278.41C191.219 278.528 192.288 278.565 192.735 277.907C192.886 277.637 192.967 277.34 192.969 277.039L193.164 274.852C193.208 274.378 193.398 273.773 193.928 273.749C194.457 273.725 194.736 274.355 195.191 274.64C195.797 275.013 196.704 274.635 197.035 274.066C197.307 273.45 197.323 272.769 197.08 272.144C196.707 270.901 196.042 269.742 195.129 268.744C194.216 267.745 193.075 266.928 191.781 266.348C190.881 266.029 190.017 265.635 189.2 265.171C188.372 264.537 187.685 263.77 187.176 262.911C182.47 256.098 177.743 249.245 174.422 241.816C173.767 240.491 173.321 239.091 173.097 237.658C172.937 236.196 173.184 234.725 173.291 233.258C173.478 230.623 173.194 227.979 172.449 225.423C172.286 224.751 171.998 224.108 171.596 223.521C170.234 221.692 167.051 221.434 165.037 222.701C164.295 223.209 163.681 223.849 163.232 224.579C162.784 225.31 162.512 226.114 162.433 226.943C162.291 228.428 163.264 229.962 163.753 231.342C165.255 235.606 166.763 239.864 168.276 244.115Z" fill="#A1616A"/>
<path d="M196.379 205.812C196.453 205.114 195.745 204.472 194.942 204.028C194.096 203.647 193.283 203.21 192.512 202.721C191.794 202.173 191.398 201.459 190.68 200.911C189.864 200.364 188.939 199.959 187.953 199.717C185.855 199.072 183.654 198.73 181.434 198.705C179.19 198.712 176.896 199.166 175.21 200.186C174.794 200.42 174.435 200.725 174.154 201.083C173.888 201.513 173.719 201.984 173.653 202.471C173.256 203.972 172.715 205.441 172.038 206.862C171.342 208.442 170.601 210.081 168.955 211.306C167.194 212.613 164.498 213.372 163.338 214.95C163.21 215.09 163.12 215.255 163.076 215.431C163.032 215.607 163.034 215.79 163.084 215.965C163.252 216.363 163.787 216.634 164.282 216.883C167.151 218.331 169.628 220.215 170.906 222.469C172.184 224.723 172.157 227.383 170.353 229.467C169.69 230.239 168.775 231.153 169.428 231.925C170.44 233.098 173.812 232.412 174.602 233.652C174.851 234.05 174.706 234.502 174.707 234.935C174.711 236.241 176.132 237.394 177.854 237.993C179.575 238.591 181.568 238.728 183.505 238.798C184.016 237.772 184.063 236.611 183.636 235.556C183.506 235.328 183.455 235.072 183.487 234.819C183.631 234.537 183.854 234.293 184.136 234.11C186.198 232.369 185.752 229.822 184.505 227.765C183.258 225.708 181.315 223.831 180.587 221.665C180.226 220.589 180.222 219.377 181.182 218.48C181.734 218.048 182.329 217.662 182.959 217.326C184.085 216.643 184.951 215.674 185.442 214.546C186.018 213.118 185.937 211.415 187.618 210.448C189.234 209.549 191.51 209.801 193.298 209.183C194.674 208.696 196.272 206.836 196.379 205.812Z" fill="#464353"/>
<path d="M294.385 275.562C286.685 272.765 284.419 270.733 284.407 266.651C284.397 263.522 285.939 259.904 292.748 259.883C296.511 259.823 300.211 260.744 303.387 262.533L305.585 257.335C303.014 256.002 299.389 254.766 294.083 254.626L294.06 247.025L289.586 247.039L289.611 254.953C281.479 256.154 276.784 261.104 276.804 267.609C276.825 274.427 281.376 278.021 290.423 281.127C296.977 283.472 300.409 286.126 300.423 290.436C300.436 294.907 296.205 298.13 289.926 298.15C284.978 298.165 279.366 296.694 276.177 294.821L274.07 300.077C277.173 302.03 282.483 303.422 287.607 303.486L287.632 311.4L295.242 311.376L295.217 303.226C304.291 301.856 309.16 296.029 309.141 289.859C309.119 282.885 303.503 278.825 294.385 275.562Z" fill="url(#paint1_linear)"/>
<path d="M287.647 309.611L287.623 301.697C282.499 301.633 277.189 300.241 274.086 298.288L276.193 293.032C279.381 294.905 284.994 296.376 289.942 296.361C296.22 296.341 300.432 293.118 300.418 288.647C300.405 284.337 296.952 281.684 290.398 279.352C281.371 276.25 276.801 272.652 276.78 265.834C276.759 259.329 281.455 254.379 289.586 253.177L289.561 245.264L294.035 245.25L294.058 252.851C299.364 252.991 302.989 254.231 305.561 255.56L303.363 260.735C300.187 258.946 296.487 258.025 292.723 258.086C285.914 258.107 284.372 261.72 284.382 264.854C284.395 268.927 286.66 270.958 294.36 273.765C303.479 277.027 309.094 281.087 309.116 288.062C309.135 294.254 304.291 300.067 295.192 301.428L295.218 309.587L287.647 309.611Z" fill="#00816E"/>
<path opacity="0.1" d="M588.537 216.048C588.575 224.824 587.404 233.572 585.052 242.098C584.261 244.968 583.34 247.781 582.289 250.538C581.002 253.938 579.511 257.273 577.822 260.531C576.969 262.176 576.068 263.792 575.118 265.377C575.161 274.376 573.099 283.287 569.062 291.546C561.759 306.363 548.699 318.367 532.259 325.371C521.966 329.761 510.71 332.086 499.291 332.179L107.648 333.392C90.2215 333.481 73.0831 329.477 57.9751 321.788C55.7424 320.65 53.5666 319.438 51.4478 318.151C46.8472 315.353 42.5233 312.213 38.5228 308.766C33.1069 304.099 28.3321 298.881 24.2978 293.22C14.8196 279.966 9.77264 264.599 9.74154 248.901C0.138418 234.064 -5.4896 216.274 -5.54887 197.139C-5.62364 172.996 3.16421 150.945 17.6625 134.228C20.6851 130.736 23.9977 127.448 27.5725 124.393C31.0998 121.37 34.8924 118.6 38.9146 116.109C42.1315 114.113 45.4957 112.31 48.9846 110.713C50.4401 110.047 51.9008 109.425 53.3867 108.844C54.6914 108.326 56.0112 107.843 57.3463 107.387C58.9484 106.84 60.5708 106.339 62.2136 105.884C63.8563 105.428 65.4773 105.027 67.0767 104.679C69.4286 104.162 71.8212 103.741 74.2545 103.414C76.271 103.144 78.2878 102.955 80.3046 102.805C81.9081 102.699 83.5251 102.634 85.1558 102.611L86.0383 102.609C87.8338 102.603 89.6193 102.66 91.3898 102.762C91.5754 102.431 91.7761 102.095 91.9617 101.763C92.6641 100.572 93.3917 99.3802 94.1244 98.211L94.1243 98.1797C94.2497 97.9782 94.3752 97.7766 94.5057 97.5794C95.0979 96.6253 95.7153 95.68 96.3478 94.7437C96.639 94.2957 96.9251 93.8745 97.2214 93.4488C97.2866 93.3458 97.3519 93.2473 97.4272 93.1442C97.7284 92.6962 98.0347 92.2481 98.346 91.8001C99.8959 89.5926 101.508 87.4192 103.183 85.2799C103.328 85.0962 103.464 84.9169 103.61 84.7376C103.871 84.406 104.112 84.0788 104.403 83.7516C105.097 82.8865 105.81 82.017 106.529 81.1608C107.031 80.5557 107.534 79.9505 108.076 79.3676C109.383 77.8614 110.725 76.3639 112.097 74.8843C113.47 73.4046 114.917 71.9158 116.381 70.4582C116.582 70.2564 116.783 70.0591 116.994 69.8572L119.141 67.7716C119.247 67.6729 119.337 67.5832 119.438 67.4935C119.694 67.2468 119.94 67.0001 120.217 66.7579C121.369 65.6723 122.551 64.6001 123.738 63.5413C129.8 58.1674 136.262 53.1587 143.078 48.5486C143.344 48.36 143.616 48.1803 143.883 48.0006C145.161 47.1383 146.46 46.2892 147.759 45.4536C154.903 40.8815 162.371 36.7216 170.118 33C170.651 32.7301 171.195 32.4735 171.744 32.217C178.691 28.9349 185.836 25.9934 193.146 23.4056C197.129 21.9954 201.183 20.6773 205.308 19.4514C208.04 18.6516 210.781 17.8875 213.557 17.1904C217.851 16.0832 222.199 15.0832 226.6 14.1903C239.568 11.569 252.764 9.93368 266.045 9.30214C270.079 9.10187 274.158 8.99534 278.284 8.98256C298.19 8.89755 318.025 11.0596 337.311 15.4167C337.511 15.683 337.784 15.8998 338.105 16.0466C338.426 16.1935 338.783 16.2655 339.144 16.256L340.839 16.2508C341.576 16.4228 342.308 16.6039 343.045 16.7894C347.16 17.8288 351.217 18.9623 355.215 20.1898L356.224 20.5086C366.092 23.5857 375.696 27.2914 384.96 31.5968C393.31 35.4702 401.353 39.8429 409.033 44.6846C410.215 45.4321 411.381 46.187 412.53 46.9495C413.919 46.1494 415.332 45.3864 416.769 44.6607C422.318 41.8392 428.213 39.5917 434.34 37.9625C447.148 34.5599 460.71 34.0476 473.794 36.4722C490.573 39.5722 505.778 47.3492 518.072 58.4392C523.081 62.9621 527.545 67.9348 531.392 73.2771C531.671 73.6608 531.95 74.0489 532.218 74.4415C535.519 79.1862 538.359 84.1715 540.707 89.3435C540.793 89.5311 540.88 89.7141 540.956 89.9016C543.124 94.7419 544.876 99.7208 546.197 104.796C546.258 105.051 546.329 105.31 546.391 105.569C547.626 110.48 548.471 115.463 548.918 120.48C548.919 120.659 548.919 120.842 548.96 121.026C549.18 123.621 549.296 126.245 549.307 128.898C549.315 131.267 549.231 133.619 549.072 135.949C549.073 136.204 549.033 136.472 549.009 136.732C548.966 137.411 548.902 138.073 548.839 138.758C552.699 141.498 556.313 144.501 559.649 147.737C561.123 149.155 562.55 150.627 563.929 152.155C568.134 156.795 571.83 161.779 574.97 167.04C583.528 181.312 588.482 198.08 588.537 216.048Z" fill="#808080"/>
</g>
<defs>
<linearGradient id="paint0_linear" x1="154.82" y1="191.401" x2="154.555" y2="106.052" gradientUnits="userSpaceOnUse">
<stop stop-color="#808080" stop-opacity="0.25"/>
<stop offset="0.54" stop-color="#808080" stop-opacity="0.12"/>
<stop offset="1" stop-color="#808080" stop-opacity="0.1"/>
</linearGradient>
<linearGradient id="paint1_linear" x1="19817.2" y1="45867.8" x2="22258.9" y2="45860.2" gradientUnits="userSpaceOnUse">
<stop stop-color="#808080" stop-opacity="0.25"/>
<stop offset="0.54" stop-color="#808080" stop-opacity="0.12"/>
<stop offset="1" stop-color="#808080" stop-opacity="0.1"/>
</linearGradient>
<clipPath id="clip0">
<rect width="594.015" height="324.211" fill="white" transform="translate(0 1.83984) rotate(-0.177459)"/>
</clipPath>
</defs>
</svg>
