<svg width="200" height="230" viewBox="0 0 97 36" fill="none" xmlns="http://www.w3.org/2000/svg">
<path d="M19.1953 18.6816C19.1953 18.8691 19.1602 19.0625 19.0898 19.2617C19.0312 19.4609 18.9551 19.6426 18.8613 19.8066C18.709 19.8301 18.5684 19.8828 18.4395 19.9648C18.3223 20.0469 18.2285 20.0996 18.1582 20.123C18.0059 20.1465 17.8242 20.1582 17.6133 20.1582C17.4141 20.1465 17.2324 20.1465 17.0684 20.1582C16.752 20.1816 16.4355 20.2168 16.1191 20.2637C15.8145 20.3105 15.5098 20.3691 15.2051 20.4395C15.1816 20.4395 15.1582 20.4453 15.1348 20.457C15.1113 20.457 15.0996 20.4688 15.0996 20.4922C15.0996 20.5156 15.1055 20.5391 15.1172 20.5625C15.1289 20.5859 15.1348 20.6094 15.1348 20.6328C15.1348 20.668 15.0996 20.6855 15.0293 20.6855C14.9004 20.6855 14.8125 20.6445 14.7656 20.5625C14.3906 20.6562 14.0156 20.7559 13.6406 20.8613C13.2656 20.9551 12.8906 21.0488 12.5156 21.1426C12.3281 21.1777 12.1406 21.2129 11.9531 21.248C11.7773 21.2832 11.5957 21.3301 11.4082 21.3887C11.3145 21.4121 11.2207 21.4531 11.127 21.5117L10.8457 21.6875C10.7871 21.6758 10.7344 21.6699 10.6875 21.6699C10.6406 21.6582 10.5938 21.6523 10.5469 21.6523C10.3477 21.6523 10.1367 21.6934 9.91406 21.7754C9.69141 21.8457 9.49805 21.9453 9.33398 22.0742H9.21094C9.09375 22.0742 9.01172 22.0566 8.96484 22.0215C8.85938 22.0098 8.79492 22.0449 8.77148 22.127C8.74805 22.1973 8.70703 22.2617 8.64844 22.3203C8.25 22.3555 7.85742 22.4258 7.4707 22.5312C7.08398 22.6367 6.70312 22.7539 6.32812 22.8828C5.95312 23 5.57227 23.123 5.18555 23.252C4.81055 23.3691 4.42969 23.4629 4.04297 23.5332C3.99609 23.7676 3.97266 24.0371 3.97266 24.3418C3.97266 24.5762 3.99023 24.8457 4.02539 25.1504C4.07227 25.4551 4.16602 25.7129 4.30664 25.9238V25.959C4.30664 26.0176 4.2832 26.0586 4.23633 26.082C4.18945 26.1055 4.16602 26.1465 4.16602 26.2051C4.16602 26.5098 4.19531 26.7969 4.25391 27.0664C4.32422 27.3359 4.39453 27.5996 4.46484 27.8574C4.53516 28.1152 4.59961 28.373 4.6582 28.6309C4.72852 28.8887 4.76367 29.1523 4.76367 29.4219C4.76367 29.4922 4.75781 29.5566 4.74609 29.6152C4.74609 29.6855 4.74023 29.7559 4.72852 29.8262C4.76367 29.9316 4.82227 30.0195 4.9043 30.0898C4.98633 30.1602 5.05664 30.2422 5.11523 30.3359C5.12695 30.3945 5.13281 30.4473 5.13281 30.4941V30.6699C5.13281 30.8691 5.10938 31.0449 5.0625 31.1973C5.01562 31.3496 4.95703 31.4902 4.88672 31.6191C4.81641 31.7598 4.74023 31.8945 4.6582 32.0234C4.57617 32.1641 4.5 32.3164 4.42969 32.4805C4.3125 32.5039 4.21875 32.5156 4.14844 32.5156C3.97266 32.5156 3.82617 32.4688 3.70898 32.375C3.60352 32.2812 3.50977 32.1641 3.42773 32.0234C3.3457 31.8945 3.26367 31.7598 3.18164 31.6191C3.11133 31.4785 3.02344 31.3613 2.91797 31.2676C2.92969 31.209 2.93555 31.1562 2.93555 31.1094C2.94727 31.0625 2.95312 31.0098 2.95312 30.9512C2.95312 30.7168 2.91211 30.4883 2.83008 30.2656C2.75977 30.043 2.67773 29.832 2.58398 29.6328C2.57227 29.2344 2.53125 28.8418 2.46094 28.4551C2.39062 28.0684 2.29102 27.6875 2.16211 27.3125C2.18555 27.1719 2.20312 27.0371 2.21484 26.9082C2.22656 26.7676 2.23242 26.6328 2.23242 26.5039C2.23242 26.1641 2.21484 25.8242 2.17969 25.4844C2.14453 25.1445 2.13867 24.8047 2.16211 24.4648C2.12695 24.4062 2.0918 24.3594 2.05664 24.3242C2.02148 24.2773 1.99219 24.2246 1.96875 24.166H1.89844C1.72266 24.166 1.55273 24.1836 1.38867 24.2188C1.22461 24.2422 1.06055 24.2539 0.896484 24.2539C0.837891 24.2539 0.785156 24.2539 0.738281 24.2539C0.691406 24.2422 0.638672 24.2305 0.580078 24.2188C0.451172 24.0898 0.351562 23.9434 0.28125 23.7793C0.210938 23.6152 0.175781 23.4453 0.175781 23.2695C0.175781 23.0117 0.246094 22.7773 0.386719 22.5664C0.679688 22.4961 0.966797 22.4141 1.24805 22.3203C1.54102 22.2148 1.82227 22.0918 2.0918 21.9512C2.12695 21.7754 2.14453 21.5996 2.14453 21.4238C2.15625 21.248 2.2207 21.084 2.33789 20.9316C2.30273 20.8379 2.24414 20.7559 2.16211 20.6855C2.0918 20.6035 2.05664 20.5098 2.05664 20.4043C2.05664 20.3457 2.06836 20.2695 2.0918 20.1758C2.20898 20.0469 2.29102 19.8828 2.33789 19.6836C2.38477 19.4844 2.42578 19.2734 2.46094 19.0508C2.49609 18.8281 2.53125 18.6055 2.56641 18.3828C2.61328 18.1602 2.68945 17.9609 2.79492 17.7852C2.77148 17.6914 2.75391 17.5918 2.74219 17.4863C2.73047 17.3691 2.72461 17.2637 2.72461 17.1699C2.72461 17.0293 2.73047 16.8887 2.74219 16.748C2.76562 16.5957 2.80078 16.4551 2.84766 16.3262C2.71875 16.1738 2.61328 15.998 2.53125 15.7988C2.44922 15.5879 2.4082 15.3828 2.4082 15.1836C2.4082 14.7969 2.5957 14.5508 2.9707 14.4453C2.95898 14.3984 2.94727 14.3574 2.93555 14.3223C2.93555 14.2871 2.93555 14.252 2.93555 14.2168C2.93555 14.1113 2.96484 14.0117 3.02344 13.918C3.08203 13.8242 3.12891 13.7305 3.16406 13.6367C3.10547 13.4844 3.07617 13.3555 3.07617 13.25C3.07617 13.1562 3.09375 13.0742 3.12891 13.0039C3.16406 12.9219 3.19336 12.834 3.2168 12.7402C3.25195 12.623 3.27539 12.5176 3.28711 12.4238C3.31055 12.3301 3.3457 12.248 3.39258 12.1777C3.43945 12.1074 3.49805 12.0547 3.56836 12.0195C3.65039 11.9844 3.77344 11.9668 3.9375 11.9668C4.19531 11.9668 4.44141 12.0488 4.67578 12.2129C4.92188 12.3652 5.10938 12.541 5.23828 12.7402C5.36719 12.7285 5.47852 12.7051 5.57227 12.6699C5.67773 12.623 5.77148 12.582 5.85352 12.5469C5.94727 12.5117 6.04102 12.4824 6.13477 12.459C6.24023 12.4238 6.36328 12.4121 6.50391 12.4238C6.53906 12.3418 6.59766 12.2891 6.67969 12.2656C6.77344 12.2305 6.86719 12.207 6.96094 12.1953C7.05469 12.1719 7.14258 12.1426 7.22461 12.1074C7.30664 12.0723 7.35938 12.0078 7.38281 11.9141C7.42969 11.9492 7.48242 11.9668 7.54102 11.9668C7.59961 11.9668 7.6582 11.9609 7.7168 11.9492C7.77539 11.9258 7.83984 11.9141 7.91016 11.9141C7.98047 11.9141 8.03906 11.9375 8.08594 11.9844C8.39062 11.8203 8.71289 11.7031 9.05273 11.6328C9.4043 11.5508 9.75 11.5039 10.0898 11.4922C10.8984 11.0469 11.748 10.7422 12.6387 10.5781C13.541 10.4141 14.4434 10.332 15.3457 10.332C15.4746 10.332 15.5977 10.332 15.7148 10.332C15.8438 10.3203 15.9668 10.3262 16.084 10.3496C16.2129 10.373 16.3535 10.4141 16.5059 10.4727C16.6699 10.5312 16.8281 10.6016 16.9805 10.6836C17.1445 10.7656 17.2969 10.8594 17.4375 10.9648C17.5781 11.0586 17.6953 11.1465 17.7891 11.2285C17.8828 11.4395 17.9297 11.6445 17.9297 11.8438C17.9297 11.9375 17.9238 12.0312 17.9121 12.125C17.9004 12.207 17.8945 12.2949 17.8945 12.3887C17.8945 12.5293 17.9238 12.6875 17.9824 12.8633C17.9473 12.8516 17.8887 12.8457 17.8066 12.8457C17.7012 12.8457 17.6133 12.8691 17.543 12.916C17.4727 12.9629 17.4082 13.0156 17.3496 13.0742C17.291 13.1328 17.2324 13.1855 17.1738 13.2324C17.127 13.2793 17.0801 13.3027 17.0332 13.3027C16.9395 13.3027 16.8574 13.2852 16.7871 13.25C16.7285 13.2148 16.6641 13.1797 16.5938 13.1445C16.5352 13.0977 16.4707 13.0625 16.4004 13.0391C16.3301 13.0039 16.248 12.9922 16.1543 13.0039V12.9336C16.1543 12.8047 16.1133 12.7227 16.0312 12.6875C15.9492 12.6406 15.8848 12.5762 15.8379 12.4941C15.6621 12.4824 15.4863 12.459 15.3105 12.4238C15.1465 12.3887 14.9766 12.3711 14.8008 12.3711C14.5664 12.3711 14.3848 12.4531 14.2559 12.6172C14.1973 12.5938 14.1445 12.5645 14.0977 12.5293C14.0625 12.4941 14.0098 12.4824 13.9395 12.4941H13.8867C13.2539 12.4941 12.6328 12.5645 12.0234 12.7051C11.4141 12.834 10.8105 12.998 10.2129 13.1973C9.61523 13.3848 9.01758 13.5898 8.41992 13.8125C7.82227 14.0352 7.22461 14.2285 6.62695 14.3926C6.48633 14.5801 6.33984 14.7207 6.1875 14.8145C6.03516 14.8965 5.88281 14.9668 5.73047 15.0254C5.58984 15.084 5.44922 15.1426 5.30859 15.2012C5.16797 15.2598 5.04492 15.3535 4.93945 15.4824C4.8457 15.6113 4.76953 15.793 4.71094 16.0273C4.66406 16.25 4.65234 16.5605 4.67578 16.959C4.61719 17.0293 4.58203 17.1055 4.57031 17.1875C4.55859 17.2695 4.54688 17.3516 4.53516 17.4336C4.52344 17.5039 4.50586 17.5742 4.48242 17.6445C4.45898 17.7148 4.41797 17.7793 4.35938 17.8379C4.38281 17.9551 4.40039 18.0723 4.41211 18.1895C4.42383 18.3066 4.42969 18.4238 4.42969 18.541C4.42969 19.0332 4.34766 19.5137 4.18359 19.9824C4.24219 20.0762 4.27148 20.1816 4.27148 20.2988C4.27148 20.4277 4.25391 20.5449 4.21875 20.6504C4.18359 20.7559 4.16602 20.873 4.16602 21.002C4.16602 21.1309 4.18945 21.2363 4.23633 21.3184C4.30664 21.3184 4.34766 21.3418 4.35938 21.3887H4.46484C4.67578 21.3887 4.85742 21.3359 5.00977 21.2305C5.16211 21.125 5.32617 21.0723 5.50195 21.0723C5.53711 21.0723 5.57812 21.084 5.625 21.1074C5.67188 21.1309 5.71289 21.1426 5.74805 21.1426C5.83008 21.1426 5.86523 21.1133 5.85352 21.0547C5.8418 20.9961 5.87109 20.9551 5.94141 20.9316L6.57422 20.8262C6.97266 20.7559 7.34766 20.6738 7.69922 20.5801C8.0625 20.4746 8.41992 20.3223 8.77148 20.123C8.85352 20.1582 8.94727 20.1758 9.05273 20.1758C9.14648 20.1758 9.24609 20.1641 9.35156 20.1406C9.45703 20.1055 9.55664 20.0879 9.65039 20.0879C9.73242 20.0879 9.79688 20.0996 9.84375 20.123C9.91406 20.0762 10.002 20.041 10.1074 20.0176C10.2129 19.9824 10.2715 19.9121 10.2832 19.8066H10.3184C10.3652 19.8066 10.4004 19.8184 10.4238 19.8418C10.4473 19.8652 10.4824 19.877 10.5293 19.877H10.5996C10.8457 19.7598 11.0684 19.6719 11.2676 19.6133C11.5957 19.5312 11.9473 19.4609 12.3223 19.4023C12.6973 19.332 13.0312 19.2148 13.3242 19.0508C13.6641 19.0508 13.9922 18.998 14.3086 18.8926C14.6367 18.7754 14.9648 18.7168 15.293 18.7168C15.4453 18.7168 15.5859 18.7402 15.7148 18.7871C15.832 18.7051 15.9668 18.6465 16.1191 18.6113C16.2832 18.5762 16.418 18.5117 16.5234 18.418C16.5938 18.4297 16.6641 18.4414 16.7344 18.4531C16.8164 18.4531 16.8984 18.4531 16.9805 18.4531C17.332 18.4531 17.666 18.4062 17.9824 18.3125C18.3105 18.207 18.6445 18.1309 18.9844 18.084C19.0664 18.1777 19.1191 18.2773 19.1426 18.3828C19.1777 18.4766 19.1953 18.5762 19.1953 18.6816ZM38.6543 25.9414C38.6309 26.1172 38.5664 26.252 38.4609 26.3457C38.3672 26.4395 38.2559 26.5273 38.127 26.6094C38.0684 26.5977 38.0098 26.5918 37.9512 26.5918C37.9043 26.5801 37.8516 26.5742 37.793 26.5742C37.4297 26.5625 37.084 26.6094 36.7559 26.7148C36.4395 26.8203 36.1113 26.8965 35.7715 26.9434C35.6543 26.9668 35.543 26.9785 35.4375 26.9785C35.3438 26.9668 35.2441 26.9727 35.1387 26.9961C34.7637 27.0547 34.3652 27.1016 33.9434 27.1367C33.5215 27.1719 33.0996 27.2188 32.6777 27.2773C32.2559 27.3242 31.8398 27.3887 31.4297 27.4707C31.0312 27.541 30.6562 27.6465 30.3047 27.7871C30.2695 27.7637 30.2344 27.7402 30.1992 27.7168C30.1641 27.6816 30.123 27.6641 30.0762 27.6641C29.959 27.6641 29.8477 27.6816 29.7422 27.7168C29.6367 27.752 29.5312 27.7637 29.4258 27.752C29.3086 27.8223 29.1797 27.875 29.0391 27.9102C28.9102 27.9336 28.7754 27.957 28.6348 27.9805C28.5059 27.9922 28.377 28.0156 28.248 28.0508C28.1191 28.0859 27.9961 28.1504 27.8789 28.2441C27.7852 28.1973 27.668 28.1738 27.5273 28.1738C27.3984 28.1621 27.3105 28.1152 27.2637 28.0332C26.9941 28.1621 26.707 28.2441 26.4023 28.2793C26.1094 28.3145 25.8105 28.3262 25.5059 28.3145C25.3066 28.3027 25.0781 28.2734 24.8203 28.2266C24.5625 28.1797 24.3047 28.1152 24.0469 28.0332C23.7891 27.9395 23.5488 27.834 23.3262 27.7168C23.1035 27.5879 22.9336 27.4355 22.8164 27.2598C22.7344 27.1426 22.6758 27.0137 22.6406 26.873C22.6055 26.7324 22.5234 26.627 22.3945 26.5566C22.4297 26.2871 22.4707 26.0234 22.5176 25.7656C22.5645 25.5078 22.6113 25.2441 22.6582 24.9746C22.8926 24.7754 23.1152 24.5645 23.3262 24.3418C23.5371 24.1191 23.7363 23.8848 23.9238 23.6387C24.1465 23.5332 24.3516 23.4043 24.5391 23.252C24.7383 23.0996 24.9316 22.9473 25.1191 22.7949C25.3184 22.6309 25.5117 22.4727 25.6992 22.3203C25.8984 22.168 26.1094 22.0332 26.332 21.916C26.3672 21.834 26.4141 21.7695 26.4727 21.7227C26.543 21.6641 26.6133 21.6113 26.6836 21.5645C26.7539 21.5059 26.8184 21.4473 26.877 21.3887C26.9355 21.3184 26.9766 21.2363 27 21.1426C27.4102 20.8965 27.7676 20.5859 28.0723 20.2109C28.377 19.8359 28.5762 19.4141 28.6699 18.9453C28.4707 18.7812 28.2422 18.6758 27.9844 18.6289C27.7383 18.5703 27.4805 18.5293 27.2109 18.5059C26.9766 18.4941 26.7305 18.4941 26.4727 18.5059C26.2266 18.5176 25.9746 18.5117 25.7168 18.4883C25.459 18.5703 25.1895 18.623 24.9082 18.6465C24.6387 18.6699 24.3691 18.6934 24.0996 18.7168C23.8301 18.7285 23.5605 18.7637 23.291 18.8223C23.0332 18.8691 22.7812 18.9629 22.5352 19.1035C22.4883 19.1035 22.4414 19.0977 22.3945 19.0859C22.3594 19.0742 22.3184 19.0684 22.2715 19.0684C21.8965 19.0566 21.5449 19.1328 21.2168 19.2969C20.8887 19.4492 20.5664 19.6016 20.25 19.7539C20.2266 19.8008 20.2148 19.8359 20.2148 19.8594C20.2148 19.9297 20.2266 20 20.25 20.0703C20.2852 20.1289 20.3027 20.1934 20.3027 20.2637C20.291 20.2754 20.2852 20.2871 20.2852 20.2988C20.2852 20.3105 20.2793 20.3223 20.2676 20.334C20.2559 20.3926 20.2383 20.4453 20.2148 20.4922C20.2031 20.5391 20.1855 20.5918 20.1621 20.6504C20.0332 21.0254 19.9629 21.3945 19.9512 21.7578C19.9395 22.0625 19.9395 22.3613 19.9512 22.6543C19.9629 22.9473 19.9629 23.2461 19.9512 23.5508C19.9277 23.9258 19.8691 24.2773 19.7754 24.6055C19.834 24.8867 19.8867 25.1855 19.9336 25.502C19.9805 25.8066 20.0391 26.1113 20.1094 26.416C20.1797 26.7207 20.2617 27.0195 20.3555 27.3125C20.4609 27.5938 20.5957 27.8633 20.7598 28.1211C20.748 28.1445 20.7539 28.1621 20.7773 28.1738C20.8008 28.1855 20.8242 28.1914 20.8477 28.1914H20.9883C21.0469 28.1914 21.0703 28.2148 21.0586 28.2617C21.082 28.2969 21.0996 28.332 21.1113 28.3672C21.123 28.3906 21.1465 28.4141 21.1816 28.4375C21.2051 28.4727 21.2051 28.5195 21.1816 28.5781C21.1699 28.8125 21.1113 29.0293 21.0059 29.2285C20.9004 29.4277 20.8359 29.6445 20.8125 29.8789C20.6719 29.9141 20.543 29.9316 20.4258 29.9316C20.2266 29.9199 20.0508 29.8613 19.8984 29.7559C19.7461 29.6621 19.6055 29.5449 19.4766 29.4043C19.3477 29.2637 19.2246 29.123 19.1074 28.9824C18.9902 28.8301 18.8613 28.7012 18.7207 28.5957C18.6387 28.2676 18.5566 27.9043 18.4746 27.5059C18.4043 27.1074 18.2812 26.7676 18.1055 26.4863C18.1523 26.3809 18.1758 26.252 18.1758 26.0996C18.1875 25.8652 18.1641 25.6367 18.1055 25.4141C18.0586 25.1797 18.0469 24.9453 18.0703 24.7109C18.0703 24.582 18.082 24.4531 18.1055 24.3242C18.1406 24.1953 18.1641 24.0664 18.1758 23.9375C18.1875 23.7383 18.1641 23.5449 18.1055 23.3574C18.0586 23.1699 18.041 22.9766 18.0527 22.7773C18.0645 22.6836 18.082 22.5957 18.1055 22.5137C18.1406 22.4199 18.1875 22.3379 18.2461 22.2676C18.1875 22.127 18.1699 21.9922 18.1934 21.8633C18.2051 21.6641 18.2285 21.4766 18.2637 21.3008C18.2988 21.125 18.3223 20.9492 18.334 20.7734C18.334 20.6797 18.3281 20.5918 18.3164 20.5098C18.3047 20.416 18.2871 20.3281 18.2637 20.2461L18.1055 20.1934C18.0352 20.1934 17.9648 20.2109 17.8945 20.2461C17.8359 20.2812 17.7832 20.3223 17.7363 20.3691C17.6895 20.416 17.6484 20.457 17.6133 20.4922C17.5781 20.5156 17.543 20.5273 17.5078 20.5273C17.4844 20.5273 17.4551 20.5273 17.4199 20.5273C17.3965 20.5156 17.373 20.5098 17.3496 20.5098C17.3262 20.5098 17.2793 20.5332 17.209 20.5801C17.1504 20.627 17.0742 20.6797 16.9805 20.7383C16.8984 20.7852 16.8164 20.8379 16.7344 20.8965C16.6523 20.9434 16.5879 20.9727 16.541 20.9844C16.4121 20.9609 16.3066 20.9199 16.2246 20.8613C16.1543 20.791 16.084 20.7266 16.0137 20.668C15.9551 20.5977 15.8906 20.5391 15.8203 20.4922C15.75 20.4336 15.6621 20.4102 15.5566 20.4219C15.5215 20.3516 15.5039 20.2754 15.5039 20.1934C15.4922 20.1113 15.4922 20.0293 15.5039 19.9473V19.666C15.5859 19.5137 15.6973 19.3906 15.8379 19.2969C15.9668 19.1914 16.1074 19.1035 16.2598 19.0332L16.7168 18.8223C16.8691 18.752 17.0098 18.6641 17.1387 18.5586H17.2969C17.5078 18.5703 17.6895 18.5293 17.8418 18.4355C18.0059 18.3418 18.1582 18.2363 18.2988 18.1191C18.4395 17.9902 18.5801 17.8613 18.7207 17.7324C18.873 17.6035 19.0371 17.5039 19.2129 17.4336C19.3418 17.4922 19.4766 17.5449 19.6172 17.5918C19.7578 17.627 19.9043 17.6504 20.0566 17.6621C20.209 17.6621 20.3672 17.6387 20.5312 17.5918C20.6953 17.5449 20.8242 17.457 20.918 17.3281C20.9766 17.3516 21.0234 17.3691 21.0586 17.3809C21.1055 17.3809 21.1582 17.3809 21.2168 17.3809C21.3926 17.3926 21.5684 17.3691 21.7441 17.3105C21.9199 17.2402 22.0898 17.1582 22.2539 17.0645C22.4883 17.0762 22.7168 17.0645 22.9395 17.0293C23.1738 16.9824 23.4023 16.9355 23.625 16.8887C23.8594 16.8418 24.0879 16.8008 24.3105 16.7656C24.5449 16.7188 24.7793 16.7012 25.0137 16.7129C25.4004 16.7246 25.7812 16.6895 26.1562 16.6074C26.5312 16.5254 26.9121 16.4961 27.2988 16.5195C27.5684 16.5312 27.832 16.5547 28.0898 16.5898C28.3594 16.6133 28.6289 16.6191 28.8984 16.6074C29.0508 16.6777 29.1855 16.7422 29.3027 16.8008C29.4316 16.8477 29.5898 16.8594 29.7773 16.8359C30.1523 17.1523 30.4922 17.5215 30.7969 17.9434V18.2422C30.7852 18.5117 30.7383 18.7754 30.6562 19.0332C30.5742 19.291 30.4746 19.5488 30.3574 19.8066C30.252 20.0527 30.1348 20.2988 30.0059 20.5449C29.877 20.7793 29.7539 21.0137 29.6367 21.248C28.875 21.9395 28.1133 22.625 27.3516 23.3047C26.5898 23.9844 25.8047 24.6406 24.9961 25.2734C24.9727 25.3906 24.9375 25.4961 24.8906 25.5898C24.8555 25.6836 24.832 25.7832 24.8203 25.8887C24.8203 25.9473 24.8262 25.9941 24.8379 26.0293C24.9199 26.0527 24.9902 26.0996 25.0488 26.1699C25.1191 26.2285 25.1426 26.3105 25.1191 26.416H25.2773C25.3359 26.416 25.3652 26.4395 25.3652 26.4863L25.6465 26.5039C26.0918 26.5273 26.5371 26.5156 26.9824 26.4688C27.4277 26.4219 27.873 26.3691 28.3184 26.3105C28.7754 26.252 29.2266 26.1992 29.6719 26.1523C30.1172 26.0938 30.5625 26.0586 31.0078 26.0469C31.1133 26.0117 31.2246 25.9824 31.3418 25.959C31.459 25.9355 31.5645 25.8887 31.6582 25.8184H31.7109C31.793 25.8184 31.8516 25.8418 31.8867 25.8887C31.9336 25.9355 31.998 25.9648 32.0801 25.9766C32.1387 25.9766 32.1973 25.9648 32.2559 25.9414C32.3262 25.918 32.3965 25.9004 32.4668 25.8887C32.6309 25.8418 32.8008 25.8125 32.9766 25.8008C33.1641 25.7891 33.3457 25.7715 33.5215 25.748C34.2012 25.6895 34.875 25.6543 35.543 25.6426C36.2109 25.6191 36.8789 25.5312 37.5469 25.3789C37.6055 25.4609 37.6875 25.5195 37.793 25.5547C37.8984 25.5781 38.0098 25.6074 38.127 25.6426C38.2441 25.666 38.3496 25.6953 38.4434 25.7305C38.5488 25.7656 38.6191 25.8359 38.6543 25.9414ZM37.459 26.5918C37.4004 26.6855 37.3301 26.7734 37.248 26.8555C37.166 26.9258 37.0898 27.002 37.0195 27.084C36.9375 27.1191 36.8438 27.1367 36.7383 27.1367C36.6445 27.1367 36.5508 27.1367 36.457 27.1367C36.375 27.125 36.293 27.125 36.2109 27.1367C36.1406 27.1367 36.082 27.1602 36.0352 27.207C35.9414 27.1836 35.8711 27.1426 35.8242 27.084C35.7773 27.0137 35.6953 26.9727 35.5781 26.9609C35.5312 26.9492 35.4844 26.9492 35.4375 26.9609C35.2617 26.7617 35.0977 26.5508 34.9453 26.3281C34.8047 26.1055 34.6699 25.8945 34.541 25.6953C34.5293 25.2617 34.4941 24.8223 34.4355 24.377C34.4238 24.2715 34.4062 24.166 34.3828 24.0605C34.3594 23.9551 34.3418 23.8555 34.3301 23.7617C34.3301 23.6445 34.3359 23.5332 34.3477 23.4277C34.3711 23.3105 34.3887 23.2051 34.4004 23.1113C34.4473 22.7715 34.5 22.4375 34.5586 22.1094C34.6172 21.7812 34.6699 21.4473 34.7168 21.1074C34.7637 20.8027 34.7871 20.4863 34.7871 20.1582C34.7871 19.8184 34.7344 19.502 34.6289 19.209L34.6113 19.1211C34.6348 19.0273 34.6582 18.9512 34.6816 18.8926C34.7168 18.8223 34.7402 18.7461 34.752 18.6641C34.7754 18.5352 34.7461 18.4414 34.6641 18.3828C34.6992 18.2891 34.7578 18.2305 34.8398 18.207C34.9219 18.1719 34.9688 18.1016 34.9805 17.9961C34.9922 17.9492 34.9922 17.9023 34.9805 17.8555C35.0742 17.8203 35.168 17.791 35.2617 17.7676C35.3672 17.7324 35.4668 17.7266 35.5605 17.75C35.7129 17.7734 35.8477 17.8262 35.9648 17.9082C36.082 17.9785 36.1934 18.0605 36.2988 18.1543C36.4863 18.7168 36.5625 19.3145 36.5273 19.9473C36.4922 20.5684 36.4336 21.1953 36.3516 21.8281C36.2695 22.4609 36.2168 23.082 36.1934 23.6914C36.1699 24.2891 36.2637 24.8457 36.4746 25.3613L36.5098 25.3789C36.5684 25.3906 36.6152 25.373 36.6504 25.3262C36.6855 25.2676 36.7324 25.2441 36.791 25.2559C36.8379 25.2793 36.8672 25.291 36.8789 25.291C36.9258 25.5254 37.002 25.748 37.1074 25.959C37.2129 26.1699 37.3301 26.3809 37.459 26.5918ZM48.7793 16.4844C48.7793 16.6836 48.7676 16.877 48.7441 17.0645C48.7324 17.2402 48.6973 17.4277 48.6387 17.627C48.5332 17.709 48.4395 17.8086 48.3574 17.9258L48.1113 18.2598C48.0293 18.3652 47.9414 18.4707 47.8477 18.5762C47.7539 18.6699 47.6367 18.7461 47.4961 18.8047C47.3789 19.3203 47.2324 19.8184 47.0566 20.2988C46.8926 20.7676 46.7695 21.2598 46.6875 21.7754C46.5469 22.0332 46.4355 22.3145 46.3535 22.6191C46.2715 22.9238 46.1836 23.2344 46.0898 23.5508C46.0078 23.8555 45.9141 24.1484 45.8086 24.4297C45.7031 24.7109 45.5566 24.9629 45.3691 25.1855C45.2754 25.4668 45.1816 25.7715 45.0879 26.0996C44.9941 26.416 44.8359 26.6797 44.6133 26.8906C44.625 26.9141 44.6309 26.9492 44.6309 26.9961C44.6309 27.1367 44.5957 27.2715 44.5254 27.4004C44.4551 27.5176 44.4199 27.6406 44.4199 27.7695C44.2324 27.9102 44.0508 28.0742 43.875 28.2617C43.7109 28.4492 43.541 28.6367 43.3652 28.8242C43.1895 29.0117 43.002 29.1758 42.8027 29.3164C42.6035 29.457 42.3867 29.5508 42.1523 29.5977C41.9883 29.4805 41.8359 29.3457 41.6953 29.1934C41.5547 29.0527 41.3906 28.9355 41.2031 28.8418C41.1094 28.3145 41.0508 27.7988 41.0273 27.2949C41.0156 26.7793 40.9746 26.2695 40.9043 25.7656C40.8574 25.4727 40.7812 25.1914 40.6758 24.9219C40.582 24.6523 40.5352 24.377 40.5352 24.0957C40.5352 24.0371 40.5352 23.9785 40.5352 23.9199C40.5469 23.8496 40.5586 23.7852 40.5703 23.7266C40.4531 23.5977 40.377 23.4395 40.3418 23.252C40.3066 23.0527 40.2773 22.8535 40.2539 22.6543C40.2305 22.4434 40.1953 22.2383 40.1484 22.0391C40.1133 21.8398 40.043 21.6699 39.9375 21.5293C39.9844 21.4824 40.0078 21.418 40.0078 21.3359C40.0078 21.2773 39.9961 21.2188 39.9727 21.1602C39.9609 21.1016 39.9551 21.043 39.9551 20.9844C39.9551 20.9375 39.9727 20.8848 40.0078 20.8262C39.9141 20.709 39.8496 20.6035 39.8145 20.5098C39.791 20.4043 39.7734 20.3047 39.7617 20.2109C39.75 20.1055 39.7383 20 39.7266 19.8945C39.7266 19.7891 39.7148 19.6777 39.6914 19.5605C39.668 19.4785 39.627 19.4199 39.5684 19.3848C39.5215 19.3379 39.498 19.3027 39.498 19.2793C39.498 19.2207 39.5215 19.1738 39.5684 19.1387C39.4043 18.9043 39.2695 18.6582 39.1641 18.4004C39.0586 18.1426 38.9414 17.8848 38.8125 17.627C38.8242 17.498 38.8711 17.3984 38.9531 17.3281C39.0352 17.2578 39.0938 17.1641 39.1289 17.0469H39.6914C40.207 18.0547 40.5996 19.1035 40.8691 20.1934C41.1504 21.2715 41.3965 22.3613 41.6074 23.4629C41.666 23.7793 41.7188 24.0957 41.7656 24.4121C41.8242 24.7285 41.8887 25.0508 41.959 25.3789C41.9824 25.4492 42.0176 25.5254 42.0645 25.6074C42.1113 25.6895 42.1348 25.7715 42.1348 25.8535C42.1348 25.9238 42.1172 25.9941 42.082 26.0645C42.1523 26.1113 42.2051 26.1758 42.2402 26.2578C42.2871 26.3398 42.3223 26.4277 42.3457 26.5215C42.3809 26.6035 42.4102 26.6914 42.4336 26.7852C42.457 26.8672 42.4922 26.9434 42.5391 27.0137C42.6797 27.002 42.8027 26.9375 42.9082 26.8203C43.0137 26.7031 43.1074 26.5684 43.1895 26.416C43.2832 26.252 43.3652 26.0938 43.4355 25.9414C43.5176 25.7773 43.6113 25.6484 43.7168 25.5547C43.7285 25.4258 43.752 25.3027 43.7871 25.1855C43.834 25.0566 43.8574 24.9277 43.8574 24.7988C43.9746 24.5996 44.0801 24.4121 44.1738 24.2363C44.2676 24.0605 44.3262 23.8496 44.3496 23.6035C44.4082 23.5566 44.4434 23.5215 44.4551 23.498C44.4668 23.4629 44.5195 23.457 44.6133 23.4805C44.6133 23.1641 44.6602 22.8594 44.7539 22.5664C44.8594 22.2617 45 21.9746 45.1758 21.7051C45.1992 21.4355 45.252 21.166 45.334 20.8965C45.4277 20.6152 45.5332 20.3398 45.6504 20.0703C45.6855 19.9883 45.7324 19.8945 45.791 19.7891C45.8496 19.6719 45.8789 19.5664 45.8789 19.4727C45.8789 19.4258 45.8672 19.3848 45.8438 19.3496C45.832 19.3027 45.8262 19.2559 45.8262 19.209C45.8262 19.1152 45.8613 19.0332 45.9316 18.9629C46.002 18.8926 46.0664 18.8223 46.125 18.752C46.125 18.4824 46.1543 18.2129 46.2129 17.9434C46.2715 17.6738 46.3887 17.4395 46.5645 17.2402C46.623 16.8418 46.6992 16.4551 46.793 16.0801C46.8867 15.6934 47.0215 15.3242 47.1973 14.9727H47.8301C47.8301 14.75 47.9297 14.6387 48.1289 14.6387C48.2461 14.6387 48.375 14.668 48.5156 14.7266C48.6094 14.9844 48.6738 15.2773 48.709 15.6055C48.7559 15.9219 48.7793 16.2148 48.7793 16.4844ZM59.8711 17.8203V17.8906C59.7891 17.9141 59.748 17.9727 59.748 18.0664C59.6191 18.125 59.4844 18.1719 59.3438 18.207C59.2031 18.2305 59.0684 18.2715 58.9395 18.3301C58.8105 18.3184 58.6758 18.3125 58.5352 18.3125C58.4062 18.3008 58.2773 18.2949 58.1484 18.2949C57.7969 18.2949 57.4453 18.3066 57.0938 18.3301C56.7422 18.3535 56.3906 18.3535 56.0391 18.3301C55.875 18.4238 55.6934 18.5 55.4941 18.5586C55.3066 18.6055 55.125 18.6289 54.9492 18.6289C54.8086 18.6289 54.6855 18.6113 54.5801 18.5762C54.2988 18.7168 53.9883 18.834 53.6484 18.9277C53.3203 19.0215 52.9863 19.1152 52.6465 19.209C52.3066 19.291 51.9785 19.3906 51.6621 19.5078C51.3574 19.6133 51.0879 19.7656 50.8535 19.9648C50.8301 20.1289 50.8125 20.293 50.8008 20.457C50.7891 20.6094 50.7832 20.7617 50.7832 20.9141C50.7832 21.0781 50.7891 21.2305 50.8008 21.3711C50.8242 21.5117 50.8652 21.6523 50.9238 21.793C50.9824 21.8164 51.0469 21.834 51.1172 21.8457C51.1992 21.8574 51.2695 21.8633 51.3281 21.8633C51.3867 21.8633 51.4453 21.8574 51.5039 21.8457C51.5625 21.8223 51.6035 21.7812 51.627 21.7227C51.8027 21.6992 51.9785 21.6934 52.1543 21.7051C52.3301 21.7051 52.5059 21.7051 52.6816 21.7051C52.8574 21.7051 53.0273 21.6992 53.1914 21.6875C53.3672 21.6758 53.5371 21.6465 53.7012 21.5996C53.8887 21.5527 54.0703 21.5234 54.2461 21.5117C54.4336 21.5 54.6152 21.4883 54.791 21.4766C54.9668 21.4648 55.1484 21.4473 55.3359 21.4238C55.5234 21.3887 55.7168 21.3242 55.916 21.2305C56.0684 21.2891 56.2207 21.3184 56.373 21.3184C56.5371 21.3184 56.6953 21.3301 56.8477 21.3535C56.9297 21.4121 56.9941 21.4766 57.041 21.5469C57.0996 21.6172 57.1289 21.6992 57.1289 21.793C57.1289 21.957 57.0703 22.1211 56.9531 22.2852C56.8359 22.4492 56.7422 22.6016 56.6719 22.7422H56.4785C56.1973 22.7422 55.9219 22.7832 55.6523 22.8652C55.3945 22.9355 55.1309 23.0234 54.8613 23.1289C54.6035 23.2227 54.3398 23.3105 54.0703 23.3926C53.8125 23.4629 53.543 23.498 53.2617 23.498C53.2148 23.498 53.1855 23.5273 53.1738 23.5859C53.1738 23.6328 53.1621 23.668 53.1387 23.6914C53.0801 23.6797 52.9922 23.6738 52.875 23.6738C52.6055 23.6738 52.3477 23.7031 52.1016 23.7617C51.8555 23.8203 51.6035 23.8496 51.3457 23.8496C51.2754 23.8496 51.2051 23.8496 51.1348 23.8496C51.0645 23.8379 50.9941 23.8262 50.9238 23.8145C50.8652 23.9082 50.7891 23.9727 50.6953 24.0078C50.6016 24.0312 50.5137 24.0781 50.4316 24.1484C50.3965 24.2539 50.373 24.3828 50.3613 24.5352C50.3613 24.6875 50.3555 24.8457 50.3438 25.0098C50.3438 25.1621 50.332 25.3086 50.3086 25.4492C50.2852 25.5898 50.2383 25.7012 50.168 25.7832C50.1797 25.8418 50.2266 25.8652 50.3086 25.8535C50.3906 25.8301 50.4316 25.8652 50.4316 25.959C50.4316 26.0645 50.4199 26.1758 50.3965 26.293C50.373 26.4102 50.3613 26.5273 50.3613 26.6445C50.3613 26.8672 50.3848 27.1133 50.4316 27.3828C50.4902 27.6406 50.5723 27.8809 50.6777 28.1035C50.7949 28.3262 50.9473 28.5137 51.1348 28.666C51.3223 28.8066 51.5566 28.877 51.8379 28.877C52.0254 28.877 52.2012 28.8418 52.3652 28.7715C52.5293 28.7012 52.6641 28.584 52.7695 28.4199L52.8574 28.4023C52.9043 28.4023 52.9453 28.4082 52.9805 28.4199C53.0273 28.4316 53.0742 28.4375 53.1211 28.4375C53.1914 28.4375 53.2793 28.3965 53.3848 28.3145C53.502 28.2207 53.625 28.1152 53.7539 27.998C53.8945 27.8809 54.0352 27.7695 54.1758 27.6641C54.3164 27.5469 54.4512 27.4648 54.5801 27.418C54.6621 27.2539 54.7383 27.0898 54.8086 26.9258C54.8906 26.7617 55.0078 26.6328 55.1602 26.5391V26.0293C55.2773 25.9004 55.4004 25.7832 55.5293 25.6777C55.6699 25.5723 55.7754 25.4375 55.8457 25.2734C55.9043 25.2969 55.957 25.3145 56.0039 25.3262C56.0625 25.3379 56.1211 25.3438 56.1797 25.3438C56.2383 25.3438 56.2969 25.3379 56.3555 25.3262C56.4258 25.3145 56.4902 25.2969 56.5488 25.2734C56.6426 25.4023 56.7129 25.5488 56.7598 25.7129C56.8184 25.8652 56.8887 26.0117 56.9707 26.1523C56.8652 26.3633 56.7422 26.6152 56.6016 26.9082C56.4609 27.2012 56.3086 27.4941 56.1445 27.7871C55.9805 28.0801 55.8047 28.3613 55.6172 28.6309C55.4414 28.8887 55.2656 29.0879 55.0898 29.2285C55.0547 29.2637 54.9785 29.3047 54.8613 29.3516C54.7324 29.4453 54.6152 29.5332 54.5098 29.6152C54.4043 29.709 54.3047 29.8145 54.2109 29.9316C53.8711 30.0371 53.543 30.1777 53.2266 30.3535C52.9219 30.5293 52.6172 30.6992 52.3125 30.8633C52.1719 30.8281 52.0195 30.8105 51.8555 30.8105C51.7148 30.8105 51.5742 30.8164 51.4336 30.8281C51.293 30.8516 51.1406 30.8633 50.9766 30.8633C50.9297 30.8047 50.8594 30.7637 50.7656 30.7402C50.6836 30.7285 50.6543 30.6699 50.6777 30.5645C50.2793 30.541 49.957 30.4297 49.7109 30.2305C49.4648 30.043 49.2539 29.8086 49.0781 29.5273C48.9141 29.2461 48.7793 28.9414 48.6738 28.6133C48.5684 28.2852 48.457 27.9688 48.3398 27.6641V27.6113C48.3398 27.5527 48.3633 27.5176 48.4102 27.5059C48.457 27.4941 48.4805 27.459 48.4805 27.4004C48.4805 27.377 48.4746 27.3594 48.4629 27.3477C48.4277 27.2188 48.3984 27.1074 48.375 27.0137C48.3516 26.9199 48.3398 26.8086 48.3398 26.6797C48.3398 26.4922 48.3516 26.3105 48.375 26.1348C48.3984 25.9473 48.4102 25.7598 48.4102 25.5723C48.4102 25.3848 48.3867 25.2207 48.3398 25.0801C48.3867 25.0215 48.4277 24.9453 48.4629 24.8516C48.4863 24.7461 48.5039 24.6406 48.5156 24.5352C48.5273 24.4297 48.5332 24.3242 48.5332 24.2188C48.5449 24.1133 48.5625 24.0195 48.5859 23.9375C48.5391 23.8086 48.498 23.6973 48.4629 23.6035C48.4277 23.498 48.4102 23.375 48.4102 23.2344V23.1113C48.5273 22.9121 48.627 22.707 48.709 22.4961C48.791 22.2852 48.8789 22.0684 48.9727 21.8457V21.793C48.9727 21.4531 48.9609 21.1133 48.9375 20.7734C48.9141 20.4336 48.9023 20.0938 48.9023 19.7539V19.4199C48.9023 19.3027 48.9082 19.1914 48.9199 19.0859C49.0137 19.0391 49.084 18.9746 49.1309 18.8926C49.1777 18.8105 49.248 18.7461 49.3418 18.6992H49.9219L50.0273 18.5234C50.0625 18.4648 50.0859 18.4004 50.0977 18.3301C50.2266 18.2949 50.3496 18.248 50.4668 18.1895C50.5957 18.1191 50.7129 18.0488 50.8184 17.9785C50.9824 17.8848 51.1289 17.8027 51.2578 17.7324C51.3984 17.6504 51.5332 17.5859 51.6621 17.5391C51.8027 17.4805 51.9492 17.4336 52.1016 17.3984C52.2539 17.3633 52.4297 17.334 52.6289 17.3105C52.7227 17.3105 52.7812 17.293 52.8047 17.2578C52.8398 17.2227 52.8867 17.1816 52.9453 17.1348C53.0859 17.1582 53.2266 17.1816 53.3672 17.2051C53.5078 17.2168 53.6484 17.2227 53.7891 17.2227C54.0703 17.2227 54.334 17.1699 54.5801 17.0645C54.9316 17.0645 55.2773 17.0586 55.6172 17.0469C55.9688 17.0352 56.3203 17.0293 56.6719 17.0293C56.9766 17.0293 57.2812 17.041 57.5859 17.0645C57.8906 17.0879 58.1895 17.1289 58.4824 17.1875C58.5879 17.1523 58.7051 17.1348 58.834 17.1348C58.9746 17.1348 59.1152 17.1523 59.2559 17.1875C59.4082 17.2109 59.5547 17.2109 59.6953 17.1875C59.707 17.3164 59.7363 17.4277 59.7832 17.5215C59.8418 17.6035 59.8711 17.7031 59.8711 17.8203ZM68.6074 24.4824C68.6074 24.6113 68.5605 24.7109 68.4668 24.7812C68.373 24.8398 68.3262 24.9219 68.3262 25.0273C68.3262 25.0742 68.3496 25.1328 68.3965 25.2031C68.2324 25.2031 68.1211 25.2559 68.0625 25.3613C68.0039 25.4668 67.9453 25.584 67.8867 25.7129H67.6582C67.5996 25.7129 67.5527 25.7246 67.5176 25.748C67.4824 25.7715 67.4473 25.8066 67.4121 25.8535C67.3887 25.8887 67.3535 25.9473 67.3066 26.0293C67.084 26.0762 66.8672 26.1523 66.6562 26.2578C66.457 26.3516 66.2578 26.457 66.0586 26.5742C65.8711 26.6797 65.6777 26.791 65.4785 26.9082C65.2793 27.0137 65.0742 27.1016 64.8633 27.1719C64.7578 27.3477 64.6055 27.4883 64.4062 27.5938H64.3535C64.2949 27.6055 64.2422 27.5996 64.1953 27.5762C64.1602 27.541 64.1133 27.5234 64.0547 27.5234C64.0195 27.5234 63.9961 27.5293 63.9844 27.541C63.6328 27.7754 63.2402 27.8926 62.8066 27.8926C62.6895 27.8926 62.5781 27.8867 62.4727 27.875C62.3672 27.8516 62.2559 27.8398 62.1387 27.8398C62.1035 27.8398 62.0801 27.8516 62.0684 27.875L62.0332 27.9453C62.0215 27.9688 62.0039 27.9922 61.9805 28.0156C61.9688 28.0391 61.9277 28.0508 61.8574 28.0508C61.7285 28.0508 61.5996 28.0332 61.4707 27.998C61.3418 27.9629 61.207 27.957 61.0664 27.9805C60.7969 27.8281 60.5859 27.6816 60.4336 27.541C60.2812 27.4004 60.1406 27.1895 60.0117 26.9082C59.9531 26.7793 59.8711 26.6562 59.7656 26.5391C59.6719 26.4219 59.6016 26.293 59.5547 26.1523C59.543 26.1055 59.5254 26.0234 59.502 25.9062C59.4785 25.7773 59.4551 25.6426 59.4316 25.502C59.4082 25.3613 59.3848 25.2266 59.3613 25.0977C59.3496 24.9688 59.3438 24.8809 59.3438 24.834C59.3438 24.6934 59.3496 24.5586 59.3613 24.4297C59.3848 24.2891 59.4082 24.1484 59.4316 24.0078C59.502 23.5625 59.5488 23.1172 59.5723 22.6719C59.6074 22.2148 59.707 21.7754 59.8711 21.3535C59.8477 21.2246 59.8359 21.1016 59.8359 20.9844V20.5977C59.8359 20.375 59.8066 20.1875 59.748 20.0352C59.8418 19.8828 59.8887 19.7129 59.8887 19.5254C59.8887 19.3145 59.8008 19.1914 59.625 19.1562V19.1035C59.625 18.8574 59.543 18.6641 59.3789 18.5234C59.3789 18.1133 59.4785 17.8086 59.6777 17.6094C59.8887 17.3984 60.1641 17.2168 60.5039 17.0645C60.5508 16.9941 60.5684 16.9355 60.5566 16.8887C60.6387 16.9121 60.7148 16.9355 60.7852 16.959C60.8555 16.9824 60.9258 16.9941 60.9961 16.9941C61.1133 16.9941 61.2188 16.9766 61.3125 16.9414C61.3477 17.082 61.4355 17.1699 61.5762 17.2051C61.7285 17.2285 61.8516 17.2637 61.9453 17.3105V17.5391C61.9453 17.9023 62.0332 18.248 62.209 18.5762C62.1621 18.6699 62.1328 18.7695 62.1211 18.875C62.1094 18.9805 62.1035 19.0801 62.1035 19.1738C62.1035 19.3145 62.1094 19.4551 62.1211 19.5957C62.1328 19.7363 62.1387 19.8711 62.1387 20C62.1387 20.1406 62.1211 20.2812 62.0859 20.4219C62.0625 20.5625 61.998 20.6855 61.8926 20.791C61.8809 20.9434 61.8691 21.1191 61.8574 21.3184C61.8574 21.5059 61.8457 21.6992 61.8223 21.8984C61.8105 22.0977 61.7812 22.291 61.7344 22.4785C61.6875 22.666 61.6172 22.8184 61.5234 22.9355C61.5117 23.1113 61.5 23.293 61.4883 23.4805C61.4883 23.6562 61.4883 23.8262 61.4883 23.9902C61.4883 24.248 61.5 24.5527 61.5234 24.9043C61.5586 25.2559 61.6406 25.5488 61.7695 25.7832C61.8281 25.877 61.9395 25.9473 62.1035 25.9941C62.2793 26.041 62.4199 26.0645 62.5254 26.0645C62.6543 26.0645 62.7832 26.0469 62.9121 26.0117C63.0527 25.9648 63.1523 25.8887 63.2109 25.7832C63.2812 25.7949 63.3281 25.8301 63.3516 25.8887C63.375 25.9473 63.416 25.9941 63.4746 26.0293C64.1426 25.748 64.8105 25.4785 65.4785 25.2207C66.1465 24.9629 66.8027 24.6641 67.4473 24.3242C67.541 24.3711 67.6406 24.3945 67.7461 24.3945C67.8633 24.3945 67.9805 24.3828 68.0977 24.3594C68.2148 24.3359 68.332 24.3242 68.4492 24.3242H68.5723C68.5957 24.3945 68.6074 24.4473 68.6074 24.4824Z" fill="white"/>
</svg>
