<svg width="301" height="93" viewBox="0 0 301 93" fill="none" xmlns="http://www.w3.org/2000/svg">
<path d="M48.6762 25.9512C48.677 26.2012 48.631 26.4591 48.5382 26.725C48.461 26.9908 48.3602 27.2333 48.236 27.4524C48.0329 27.4842 47.8457 27.5551 47.6742 27.6649C47.5183 27.7748 47.3935 27.8454 47.2999 27.8769C47.0969 27.9088 46.8547 27.9251 46.5735 27.9259C46.3078 27.911 46.0656 27.9117 45.8469 27.9279C45.4252 27.9603 45.0035 28.0084 44.5818 28.0721C44.1758 28.1357 43.7698 28.215 43.3638 28.3099C43.3326 28.31 43.3014 28.3179 43.2702 28.3336C43.2389 28.3337 43.2234 28.3494 43.2235 28.3806C43.2236 28.4119 43.2315 28.4431 43.2472 28.4743C43.263 28.5055 43.2709 28.5367 43.271 28.568C43.2711 28.6148 43.2243 28.6384 43.1306 28.6387C42.9587 28.6392 42.8413 28.5848 42.7785 28.4756C42.2789 28.602 41.7794 28.7362 41.2798 28.8783C40.7803 29.0047 40.2807 29.1311 39.7811 29.2575C39.5313 29.3051 39.2814 29.3527 39.0316 29.4002C38.7974 29.4478 38.5554 29.511 38.3057 29.5898C38.1808 29.6214 38.056 29.6764 37.9312 29.7549L37.557 29.9903C37.4789 29.9749 37.4085 29.9673 37.346 29.9675C37.2835 29.952 37.2209 29.9444 37.1584 29.9446C36.8928 29.9453 36.6118 30.0008 36.3153 30.111C36.0187 30.2056 35.7613 30.3391 35.5432 30.5116L35.3791 30.5121C35.2229 30.5125 35.1134 30.4894 35.0507 30.4427C34.9101 30.4275 34.8243 30.4746 34.7934 30.5841C34.7625 30.6779 34.7081 30.764 34.6302 30.8423C34.0991 30.8907 33.576 30.9859 33.0609 31.128C32.5457 31.2701 32.0385 31.4278 31.539 31.601C31.0396 31.7587 30.5323 31.9242 30.0173 32.0975C29.5178 32.2552 29.0104 32.3816 28.4951 32.4768C28.4337 32.7895 28.4037 33.149 28.4051 33.5552C28.4061 33.8677 28.4308 34.227 28.479 34.6331C28.5429 35.0392 28.6691 35.3826 28.8575 35.6633L28.8577 35.7102C28.858 35.7883 28.8269 35.8431 28.7645 35.8745C28.7021 35.9059 28.6711 35.9607 28.6713 36.0388C28.6727 36.4451 28.7131 36.8278 28.7924 37.1869C28.8874 37.546 28.9823 37.8973 29.0773 38.2408C29.1722 38.5843 29.2593 38.9278 29.3386 39.2713C29.4335 39.6148 29.4816 39.9663 29.4828 40.3256C29.4831 40.4194 29.4756 40.5053 29.4602 40.5835C29.4606 40.6773 29.4531 40.771 29.4378 40.8648C29.4851 41.0053 29.5636 41.1223 29.6733 41.2157C29.783 41.3092 29.8771 41.4183 29.9557 41.5431C29.9716 41.6211 29.9796 41.6914 29.9798 41.7539L29.9806 41.9883C29.9815 42.2539 29.9511 42.4884 29.8893 42.6917C29.8275 42.895 29.75 43.0827 29.6568 43.2548C29.5637 43.4426 29.4628 43.6226 29.354 43.7948C29.2452 43.9826 29.1444 44.186 29.0514 44.405C28.8952 44.4367 28.7703 44.4527 28.6765 44.4529C28.4422 44.4536 28.2466 44.3916 28.09 44.2671C27.9489 44.1425 27.8234 43.9866 27.7134 43.7994C27.6034 43.6278 27.4934 43.4484 27.3834 43.2612C27.289 43.074 27.1713 42.9181 27.0302 42.7935C27.0456 42.7153 27.0532 42.645 27.053 42.5825C27.0684 42.5199 27.0759 42.4496 27.0757 42.3715C27.0746 42.059 27.0189 41.7545 26.9085 41.4579C26.8137 41.1613 26.7034 40.8803 26.5775 40.6151C26.5601 40.0839 26.5036 39.5606 26.4081 39.0452C26.3126 38.5299 26.1781 38.0224 26.0045 37.5229C26.0351 37.3353 26.0579 37.1556 26.073 36.9837C26.0879 36.7961 26.0952 36.6164 26.0946 36.4445C26.093 35.9914 26.068 35.5384 26.0196 35.0854C25.9712 34.6324 25.9619 34.1793 25.9916 33.7261C25.9444 33.6481 25.8973 33.5857 25.8503 33.539C25.8032 33.4766 25.7639 33.4064 25.7324 33.3284L25.6386 33.3286C25.4043 33.3293 25.1778 33.3534 24.9592 33.4009C24.7406 33.4327 24.5219 33.449 24.3031 33.4496C24.225 33.4498 24.1547 33.45 24.0922 33.4502C24.0296 33.4347 23.9593 33.4193 23.8811 33.4039C23.7086 33.2325 23.5751 33.0376 23.4806 32.8191C23.3862 32.6006 23.3385 32.3742 23.3377 32.1398C23.3365 31.796 23.4292 31.4833 23.6158 31.2015C24.0061 31.1067 24.3885 30.9962 24.7631 30.8701C25.1532 30.7284 25.5277 30.5633 25.8864 30.3748C25.9325 30.1403 25.9551 29.9058 25.9543 29.6715C25.9692 29.4371 26.0543 29.2181 26.2099 29.0145C26.1626 28.8896 26.0841 28.7805 25.9744 28.687C25.8803 28.5779 25.833 28.4531 25.8325 28.3124C25.8322 28.2343 25.8475 28.1327 25.8783 28.0076C26.034 27.8353 26.1426 27.6162 26.2042 27.3504C26.2658 27.0846 26.3196 26.8032 26.3654 26.5062C26.4113 26.2092 26.4572 25.9122 26.503 25.6152C26.5645 25.3182 26.6652 25.0523 26.805 24.8175C26.7733 24.6926 26.7494 24.5598 26.7333 24.4193C26.7172 24.263 26.7089 24.1224 26.7085 23.9974C26.7078 23.8099 26.715 23.6224 26.73 23.4349C26.7605 23.2317 26.8068 23.044 26.8687 22.872C26.6961 22.6694 26.5547 22.4354 26.4444 22.1701C26.3341 21.8891 26.2785 21.6158 26.2776 21.3502C26.2758 20.8346 26.5247 20.5058 27.0242 20.3637C27.0084 20.3013 26.9926 20.2466 26.9768 20.1998C26.9766 20.1529 26.9765 20.1061 26.9763 20.0592C26.9758 19.9186 27.0144 19.7856 27.0921 19.6604C27.1698 19.5352 27.2319 19.41 27.2784 19.2849C27.1995 19.082 27.1599 18.9102 27.1594 18.7696C27.159 18.6446 27.182 18.5352 27.2286 18.4413C27.2751 18.3318 27.3138 18.2145 27.3446 18.0894C27.3909 17.933 27.4217 17.7923 27.4369 17.6672C27.4677 17.5422 27.5142 17.4327 27.5764 17.3387C27.6386 17.2448 27.7165 17.1743 27.8101 17.1271C27.9193 17.0799 28.0833 17.056 28.302 17.0554C28.6458 17.0545 28.9743 17.1629 29.2875 17.3808C29.6163 17.583 29.8671 17.8166 30.0399 18.0818C30.2117 18.0657 30.36 18.034 30.4849 17.9868C30.6253 17.9239 30.7501 17.8688 30.8593 17.8217C30.9842 17.7744 31.109 17.735 31.2339 17.7034C31.3744 17.6561 31.5384 17.6401 31.726 17.6552C31.7725 17.5456 31.8503 17.4751 31.9596 17.4436C32.0845 17.3963 32.2093 17.3647 32.3343 17.3488C32.4592 17.3172 32.5762 17.2778 32.6855 17.2306C32.7947 17.1834 32.8647 17.0973 32.8955 16.9722C32.9582 17.0189 33.0286 17.0421 33.1067 17.0419C33.1848 17.0417 33.2629 17.0336 33.341 17.0178C33.419 16.9863 33.5049 16.9705 33.5986 16.9702C33.6924 16.9699 33.7706 17.001 33.8333 17.0633C34.2388 16.8434 34.668 16.6859 35.1208 16.5909C35.5892 16.4802 36.0499 16.4164 36.503 16.3995C37.5791 15.8027 38.7105 15.3933 39.8972 15.1712C41.0996 14.949 42.3024 14.8363 43.5055 14.8329C43.6774 14.8324 43.8414 14.8319 43.9977 14.8315C44.1695 14.8154 44.3336 14.8227 44.4899 14.8535C44.6619 14.8843 44.8496 14.9385 45.053 15.016C45.272 15.0935 45.4833 15.1867 45.6868 15.2955C45.9059 15.4042 46.1094 15.5287 46.2974 15.6688C46.4853 15.7932 46.642 15.91 46.7673 16.019C46.8933 16.2999 46.9567 16.5732 46.9576 16.8388C46.9581 16.9638 46.9507 17.0888 46.9355 17.2139C46.9202 17.3233 46.9128 17.4405 46.9132 17.5655C46.9139 17.753 46.9537 17.9638 47.0326 18.198C46.9856 18.1825 46.9075 18.1749 46.7981 18.1752C46.6575 18.1756 46.5404 18.2072 46.4469 18.2699C46.3533 18.3327 46.2676 18.4032 46.1898 18.4816C46.1119 18.5599 46.034 18.6305 45.9561 18.6932C45.8938 18.7559 45.8314 18.7873 45.769 18.7875C45.644 18.7878 45.5345 18.7647 45.4406 18.7181C45.3623 18.6714 45.2762 18.6248 45.1823 18.5782C45.104 18.5159 45.0179 18.4693 44.924 18.4383C44.8301 18.3917 44.7207 18.3763 44.5957 18.3923L44.5954 18.2986C44.5948 18.1267 44.5398 18.0175 44.4302 17.9709C44.3206 17.9087 44.2344 17.823 44.1715 17.7138C43.9371 17.6989 43.7026 17.6683 43.4681 17.6221C43.2492 17.5758 43.0225 17.553 42.7882 17.5537C42.4757 17.5545 42.2339 17.6646 42.0627 17.8838C41.9845 17.8528 41.9141 17.8139 41.8514 17.7672C41.8044 17.7205 41.734 17.7051 41.6403 17.721L41.57 17.7212C40.7262 17.7235 39.8984 17.8196 39.0866 18.0094C38.2747 18.1836 37.4707 18.4046 36.6748 18.6725C35.8787 18.9247 35.0828 19.2004 34.2869 19.4995C33.4911 19.7986 32.6951 20.0587 31.899 20.2797C31.7123 20.5302 31.5176 20.7183 31.3149 20.8438C31.1122 20.9538 30.9094 21.0481 30.7065 21.1268C30.5193 21.2054 30.332 21.2841 30.1448 21.3628C29.9576 21.4414 29.7939 21.5669 29.6539 21.7391C29.5295 21.9114 29.4288 22.1538 29.3517 22.4666C29.2902 22.7636 29.276 23.1777 29.309 23.7089C29.2312 23.8028 29.1847 23.9045 29.1695 24.0139C29.1542 24.1234 29.139 24.2328 29.1237 24.3422C29.1084 24.436 29.0853 24.5298 29.0543 24.6237C29.0234 24.7175 28.969 24.8036 28.8912 24.8819C28.9229 25.0381 28.9469 25.1943 28.9631 25.3505C28.9792 25.5067 28.9876 25.6629 28.9881 25.8192C28.9903 26.4754 28.8831 27.1163 28.6665 27.7419C28.7451 27.8667 28.7846 28.0072 28.7851 28.1635C28.7857 28.3354 28.7628 28.4917 28.7164 28.6324C28.67 28.7732 28.6471 28.9295 28.6477 29.1014C28.6483 29.2733 28.68 29.4138 28.7429 29.523C28.8366 29.5227 28.8914 29.5538 28.9073 29.6163L29.0479 29.6159C29.3292 29.6151 29.5711 29.5441 29.7737 29.4029C29.9764 29.2617 30.1949 29.1908 30.4293 29.1901C30.4761 29.19 30.5309 29.2054 30.5935 29.2365C30.6561 29.2676 30.7108 29.2831 30.7577 29.2829C30.8671 29.2826 30.9138 29.2434 30.8979 29.1653C30.882 29.0873 30.9209 29.0325 31.0146 29.001L31.8578 28.858C32.3888 28.7627 32.8884 28.6519 33.3567 28.5256C33.8406 28.3836 34.3165 28.1791 34.7843 27.9122C34.8939 27.9588 35.0189 27.9819 35.1596 27.9815C35.2846 27.9811 35.4173 27.9651 35.5578 27.9335C35.6983 27.8862 35.831 27.8624 35.956 27.862C36.0654 27.8617 36.1514 27.8771 36.214 27.9082C36.3075 27.8454 36.4246 27.7982 36.5651 27.7666C36.7056 27.7193 36.7834 27.6253 36.7985 27.4846L36.8454 27.4845C36.9079 27.4843 36.9548 27.4998 36.9862 27.531C37.0175 27.5622 37.0644 27.5776 37.1269 27.5775L37.2207 27.5772C37.5483 27.42 37.8448 27.302 38.1101 27.2231C38.5472 27.1125 39.0157 27.0175 39.5154 26.9379C40.0151 26.8428 40.4599 26.6853 40.8497 26.4654C41.3029 26.4641 41.7401 26.3926 42.1615 26.2508C42.5985 26.0933 43.0357 26.0139 43.4732 26.0127C43.6763 26.0121 43.8639 26.0429 44.036 26.1049C44.1919 25.9951 44.3713 25.9164 44.5743 25.869C44.7929 25.8215 44.9723 25.735 45.1125 25.6096C45.2063 25.625 45.3001 25.6404 45.3939 25.6557C45.5033 25.6554 45.6126 25.6551 45.722 25.6548C46.1908 25.6535 46.6359 25.5897 47.0573 25.4635C47.4943 25.3217 47.9393 25.2189 48.3922 25.1551C48.502 25.2798 48.5728 25.4124 48.6045 25.5529C48.6518 25.6778 48.6757 25.8105 48.6762 25.9512ZM74.6543 35.5577C74.6239 35.7921 74.5385 35.9721 74.3983 36.0975C74.2738 36.2228 74.1257 36.3404 73.9542 36.4503C73.8761 36.4349 73.7979 36.4273 73.7198 36.4275C73.6572 36.4121 73.5869 36.4044 73.5088 36.4047C73.0243 36.3904 72.5636 36.4542 72.1266 36.5961C71.7052 36.7379 71.268 36.8407 70.8151 36.9044C70.659 36.9361 70.5106 36.9522 70.37 36.9526C70.2449 36.9373 70.1121 36.9455 69.9716 36.9771C69.4719 37.0567 68.9409 37.1207 68.3785 37.1691C67.8162 37.2176 67.2539 37.2817 66.6917 37.3614C66.1294 37.4255 65.575 37.513 65.0285 37.6239C64.4976 37.7191 63.998 37.8612 63.5299 38.05C63.4829 38.0189 63.436 37.9877 63.389 37.9566C63.3419 37.9099 63.2872 37.8866 63.2247 37.8868C63.0684 37.8872 62.9201 37.9111 62.7796 37.9583C62.6391 38.0056 62.4986 38.0216 62.3579 38.0064C62.202 38.1006 62.0303 38.1714 61.843 38.2188C61.6712 38.2505 61.4916 38.2823 61.3043 38.3141C61.1324 38.3302 60.9607 38.3619 60.7889 38.4093C60.6172 38.4566 60.4535 38.543 60.2976 38.6685C60.1724 38.6063 60.0161 38.5755 59.8286 38.576C59.6566 38.5609 59.5392 38.4987 59.4764 38.3895C59.1176 38.5624 58.7351 38.6729 58.3291 38.7209C57.9386 38.7689 57.5402 38.7856 57.1339 38.7711C56.8682 38.7563 56.5634 38.7181 56.2195 38.6565C55.8755 38.595 55.5314 38.51 55.1873 38.4016C54.8432 38.2776 54.5224 38.1379 54.225 37.9825C53.9275 37.8114 53.7002 37.6089 53.5432 37.375C53.4333 37.2191 53.3546 37.0474 53.3071 36.86C53.2596 36.6727 53.1497 36.5324 52.9775 36.4391C53.0232 36.0796 53.0767 35.7279 53.138 35.3839C53.1993 35.04 53.2606 34.6883 53.3219 34.3287C53.6335 34.0622 53.9294 33.7801 54.2096 33.4825C54.4899 33.1848 54.7544 32.8716 55.0033 32.5427C55.2997 32.4013 55.5726 32.2286 55.8219 32.0248C56.0868 31.8209 56.3439 31.6171 56.5932 31.4133C56.8581 31.1938 57.1152 30.9821 57.3645 30.7783C57.6294 30.5744 57.9101 30.3939 58.2064 30.2368C58.2529 30.1273 58.3151 30.0412 58.393 29.9785C58.4865 29.9001 58.58 29.8295 58.6736 29.7668C58.7671 29.6884 58.8527 29.61 58.9306 29.5317C59.0084 29.4377 59.0627 29.3282 59.0935 29.2031C59.6393 28.8734 60.1144 28.458 60.519 27.9569C60.9235 27.4557 61.1872 26.8925 61.3101 26.2671C61.0438 26.0491 60.7386 25.9094 60.3946 25.8478C60.0662 25.7706 59.7223 25.7169 59.3628 25.6867C59.0503 25.6719 58.7221 25.6729 58.3785 25.6894C58.0504 25.706 57.7144 25.6991 57.3706 25.6689C57.0272 25.7792 56.6681 25.8505 56.2932 25.8828C55.9339 25.9151 55.5746 25.9474 55.2154 25.9796C54.856 25.9963 54.4968 26.0441 54.1377 26.1233C53.7942 26.1867 53.4587 26.3127 53.1312 26.5011C53.0687 26.5013 53.0062 26.4937 52.9436 26.4782C52.8967 26.4627 52.842 26.4551 52.7795 26.4552C52.2794 26.441 51.811 26.5439 51.3743 26.7639C50.9374 26.9682 50.5085 27.1726 50.0873 27.3769C50.0562 27.4395 50.0408 27.4864 50.0409 27.5176C50.0412 27.6114 50.0571 27.7051 50.0887 27.7988C50.1358 27.8767 50.1596 27.9626 50.1599 28.0564C50.1443 28.072 50.1366 28.0877 50.1366 28.1033C50.1367 28.1189 50.1289 28.1346 50.1133 28.1503C50.098 28.2284 50.0748 28.2988 50.0437 28.3614C50.0283 28.4239 50.0051 28.4943 49.9742 28.5725C49.804 29.073 49.7119 29.5654 49.6979 30.0499C49.6837 30.4562 49.685 30.8546 49.702 31.2452C49.719 31.6358 49.7203 32.0342 49.7061 32.4405C49.6765 32.9406 49.6 33.4095 49.4765 33.8474C49.5559 34.2222 49.6276 34.6204 49.6915 35.0421C49.7554 35.4482 49.8349 35.8542 49.93 36.2602C50.0251 36.6662 50.1359 37.0643 50.2622 37.4546C50.4041 37.8292 50.585 38.188 50.8049 38.5312C50.7894 38.5624 50.7973 38.5859 50.8286 38.6014C50.8599 38.6169 50.8912 38.6247 50.9224 38.6246L51.1099 38.624C51.1881 38.6238 51.2194 38.655 51.204 38.7175C51.2354 38.7643 51.259 38.8111 51.2748 38.858C51.2905 38.8892 51.3219 38.9203 51.3689 38.9514C51.4003 38.9982 51.4005 39.0607 51.3695 39.1389C51.3549 39.4515 51.2778 39.7408 51.1381 40.0068C50.9984 40.2728 50.9134 40.5621 50.8832 40.8747C50.6959 40.9221 50.5241 40.946 50.3678 40.9465C50.1022 40.9316 49.8675 40.8541 49.6639 40.7141C49.4604 40.5896 49.2723 40.4339 49.0998 40.2469C48.9273 40.0599 48.7626 39.8729 48.6057 39.6858C48.4488 39.4831 48.2763 39.3117 48.0883 39.1716C47.9775 38.7344 47.8665 38.2504 47.7553 37.7194C47.6597 37.1885 47.4941 36.7358 47.2585 36.3615C47.3205 36.2207 47.3511 36.0487 47.3505 35.8456C47.365 35.533 47.3327 35.2284 47.2536 34.9318C47.19 34.6195 47.1733 34.307 47.2035 33.9944C47.2029 33.8225 47.218 33.6506 47.2487 33.4787C47.2949 33.3067 47.3256 33.1347 47.3406 32.9628C47.3554 32.6971 47.3232 32.4394 47.2443 32.1896C47.1809 31.9398 47.1566 31.682 47.1713 31.4164C47.1865 31.2913 47.2096 31.1741 47.2404 31.0646C47.2869 30.9395 47.349 30.8299 47.4268 30.736C47.3481 30.5487 47.324 30.3691 47.3547 30.1971C47.3694 29.9314 47.3998 29.6813 47.4459 29.4468C47.4919 29.2123 47.5224 28.9779 47.5372 28.7435C47.5368 28.6185 47.5286 28.5013 47.5126 28.392C47.4965 28.267 47.4727 28.1499 47.4411 28.0406L47.2299 27.9709C47.1362 27.9711 47.0425 27.9948 46.9489 28.042C46.8709 28.0891 46.8008 28.144 46.7385 28.2066C46.6762 28.2693 46.6217 28.3242 46.575 28.3712C46.5282 28.4025 46.4814 28.4183 46.4345 28.4184C46.4033 28.4185 46.3642 28.4186 46.3174 28.4188C46.2861 28.4032 46.2548 28.3955 46.2235 28.3956C46.1923 28.3957 46.1299 28.4271 46.0364 28.4899C45.9584 28.5526 45.8571 28.6232 45.7324 28.7017C45.6232 28.7645 45.5141 28.8351 45.405 28.9135C45.2958 28.9763 45.21 29.0156 45.1476 29.0314C44.9756 29.0007 44.8348 28.9464 44.7251 28.8686C44.6311 28.7751 44.537 28.6894 44.443 28.6115C44.3646 28.518 44.2784 28.4401 44.1844 28.3779C44.0904 28.3 43.9731 28.2691 43.8325 28.2851C43.7853 28.1915 43.7615 28.09 43.7612 27.9807C43.7452 27.8713 43.7448 27.7619 43.7601 27.6525L43.7588 27.2775C43.8675 27.0741 44.0153 26.9096 44.2024 26.7841C44.3738 26.643 44.5609 26.5253 44.7637 26.4309L45.3721 26.148C45.5749 26.0537 45.762 25.9359 45.9334 25.7948L46.1444 25.7942C46.4257 25.8091 46.6677 25.7537 46.8704 25.6281C47.0887 25.5025 47.2913 25.3613 47.4783 25.2045C47.6652 25.0321 47.8521 24.8597 48.039 24.6873C48.2416 24.5149 48.4599 24.3815 48.6939 24.287C48.8661 24.3647 49.046 24.4345 49.2337 24.4965C49.4214 24.5428 49.6168 24.5735 49.82 24.5886C50.0231 24.588 50.2339 24.5561 50.4525 24.493C50.671 24.4299 50.8425 24.3122 50.9669 24.14C51.0451 24.171 51.1077 24.1943 51.1546 24.2098C51.2171 24.2096 51.2874 24.2094 51.3656 24.2092C51.6 24.2242 51.8343 24.1923 52.0684 24.1135C52.3024 24.0191 52.5286 23.9091 52.7469 23.7834C53.0595 23.7982 53.3641 23.7817 53.6608 23.734C53.9731 23.6706 54.2776 23.6072 54.5743 23.5439C54.8865 23.4805 55.191 23.425 55.4878 23.3773C55.8 23.3139 56.1125 23.2896 56.425 23.3043C56.9407 23.3185 57.4483 23.2702 57.948 23.1594C58.4476 23.0486 58.9553 23.0081 59.471 23.0379C59.8304 23.0525 60.1821 23.0828 60.526 23.1287C60.8855 23.1589 61.2449 23.1657 61.6042 23.1491C61.8076 23.2423 61.9876 23.3277 62.1441 23.4054C62.3162 23.4674 62.5272 23.4824 62.7771 23.4505C63.2785 23.8709 63.7333 24.3619 64.1415 24.9232L64.1429 25.3216C64.1285 25.6811 64.0672 26.0328 63.9589 26.3768C63.8507 26.7209 63.7191 27.065 63.564 27.4092C63.4245 27.7377 63.2694 28.0663 63.0986 28.3949C62.9278 28.7079 62.7648 29.0208 62.6096 29.3338C61.5971 30.2585 60.5846 31.1754 59.5721 32.0845C58.5596 32.9937 57.5157 33.8716 56.4404 34.7184C56.4097 34.8747 56.3633 35.0155 56.3012 35.1407C56.2548 35.2658 56.224 35.3987 56.2088 35.5393C56.2091 35.6175 56.2171 35.68 56.2329 35.7268C56.3424 35.7577 56.4364 35.82 56.5148 35.9135C56.6088 35.9913 56.6404 36.1006 56.6097 36.2413L56.8206 36.2408C56.8987 36.2405 56.9379 36.2717 56.9381 36.3342L57.3132 36.3566C57.907 36.3861 58.5007 36.3688 59.0943 36.3047C59.6878 36.2405 60.2813 36.1685 60.8748 36.0887C61.4839 36.0089 62.0852 35.9369 62.6788 35.8727C63.2722 35.7929 63.8658 35.7443 64.4595 35.727C64.6 35.6798 64.7483 35.6403 64.9044 35.6086C65.0606 35.5769 65.201 35.514 65.3257 35.4199L65.396 35.4197C65.5054 35.4194 65.5836 35.4504 65.6307 35.5128C65.6934 35.5751 65.7795 35.6139 65.8889 35.6293C65.967 35.629 66.0451 35.6132 66.1231 35.5817C66.2167 35.5502 66.3104 35.5265 66.4041 35.5106C66.6226 35.4475 66.8491 35.4078 67.0834 35.3915C67.3333 35.3752 67.5755 35.3511 67.8097 35.3192C68.7157 35.2385 69.614 35.1891 70.5045 35.1709C71.3951 35.1372 72.2853 35.0175 73.1752 34.8118C73.2537 34.921 73.3633 34.9988 73.5041 35.0453C73.6449 35.0761 73.7934 35.1148 73.9498 35.1612C74.1062 35.192 74.247 35.2307 74.3721 35.2772C74.5129 35.3237 74.607 35.4172 74.6543 35.5577ZM73.0635 36.4294C72.9858 36.5546 72.8925 36.672 72.7835 36.7817C72.6744 36.8758 72.5732 36.9776 72.4798 37.0872C72.3706 37.1344 72.2457 37.1582 72.1051 37.1586C71.9801 37.159 71.8551 37.1593 71.7301 37.1597C71.6206 37.1444 71.5113 37.1447 71.4019 37.1606C71.3082 37.1609 71.2302 37.1923 71.1679 37.255C71.0428 37.2241 70.9488 37.1697 70.8861 37.0917C70.8233 36.9982 70.7137 36.9438 70.5574 36.9286C70.4948 36.9132 70.4323 36.9133 70.3699 36.9291C70.1346 36.6642 69.9149 36.3835 69.7108 36.0872C69.5223 35.7909 69.3416 35.5101 69.1688 35.245C69.1513 34.6669 69.1024 34.0811 69.0222 33.4876C69.0061 33.347 68.9822 33.2065 68.9505 33.0659C68.9188 32.9254 68.8949 32.7926 68.8788 32.6677C68.8783 32.5114 68.8856 32.363 68.9007 32.2223C68.9315 32.066 68.9544 31.9253 68.9696 31.8002C69.0306 31.3469 69.0994 30.9014 69.176 30.4637C69.2526 30.026 69.3214 29.5805 69.3824 29.1272C69.4435 28.7208 69.4733 28.2988 69.4718 27.8613C69.4703 27.4082 69.3986 26.9865 69.2566 26.5963L69.2328 26.4792C69.2636 26.3541 69.2945 26.2524 69.3255 26.1742C69.372 26.0803 69.4029 25.9787 69.4182 25.8693C69.4489 25.6973 69.4094 25.5724 69.2997 25.4946C69.3462 25.3695 69.424 25.2911 69.5333 25.2596C69.6425 25.2124 69.7047 25.1185 69.7198 24.9778C69.7353 24.9152 69.735 24.8527 69.7192 24.7903C69.844 24.7431 69.9689 24.7037 70.0938 24.6721C70.2343 24.6248 70.3671 24.6166 70.4922 24.6475C70.6954 24.6782 70.8753 24.748 71.0319 24.8569C71.1885 24.9502 71.3373 25.0592 71.4784 25.1838C71.7309 25.9331 71.8352 26.7297 71.7912 27.5735C71.7471 28.4018 71.6719 29.2379 71.5654 30.082C71.4588 30.926 71.3914 31.7544 71.3629 32.5669C71.3343 33.3639 71.4619 34.1057 71.7454 34.7924L71.7924 34.8157C71.8706 34.8311 71.933 34.8075 71.9797 34.7449C72.0263 34.6666 72.0887 34.6352 72.1668 34.6506C72.2294 34.6817 72.2686 34.6972 72.2842 34.6972C72.3478 35.0095 72.4503 35.3061 72.5919 35.5869C72.7335 35.8678 72.8907 36.1486 73.0635 36.4294ZM88.1113 22.9103C88.1122 23.176 88.0975 23.4338 88.0671 23.6839C88.0523 23.9183 88.0063 24.1684 87.929 24.4343C87.7888 24.5441 87.6642 24.6772 87.5554 24.8338L87.2288 25.28C87.1199 25.4209 87.0032 25.5619 86.8787 25.7029C86.7541 25.8282 86.5982 25.9302 86.4109 26.0089C86.257 26.6968 86.064 27.3614 85.8318 28.0027C85.6152 28.6283 85.4533 29.285 85.3463 29.9728C85.16 30.3171 85.0128 30.6925 84.9048 31.0991C84.7968 31.5056 84.6811 31.92 84.5575 32.3423C84.4495 32.7488 84.3258 33.1398 84.1865 33.5152C84.0471 33.8906 83.853 34.2271 83.604 34.5246C83.4803 34.9 83.3566 35.3066 83.2331 35.7444C83.1096 36.1667 82.8998 36.5188 82.6039 36.8009C82.6196 36.8321 82.6276 36.879 82.6278 36.9415C82.6285 37.129 82.5822 37.3088 82.489 37.4809C82.3958 37.6374 82.3495 37.8016 82.3501 37.9735C82.1007 38.1617 81.8593 38.3811 81.6258 38.6318C81.4079 38.8824 81.1821 39.133 80.9486 39.3837C80.7151 39.6344 80.4658 39.8538 80.2009 40.0421C79.9359 40.2303 79.6472 40.3561 79.335 40.4195C79.1157 40.2639 78.9119 40.0848 78.7237 39.8822C78.5356 39.6952 78.3163 39.5396 78.0659 39.4153C77.9385 38.7125 77.858 38.0252 77.8245 37.3534C77.8065 36.666 77.7495 35.9865 77.6535 35.3148C77.5897 34.9244 77.4868 34.5497 77.345 34.1907C77.2188 33.8317 77.155 33.4647 77.1537 33.0897C77.1535 33.0116 77.1532 32.9334 77.1529 32.8553C77.1683 32.7615 77.1836 32.6755 77.1989 32.5974C77.0421 32.4259 76.9398 32.2153 76.8921 31.9654C76.8443 31.6999 76.8044 31.4344 76.7722 31.1689C76.74 30.8877 76.6922 30.6144 76.6288 30.349C76.581 30.0835 76.4865 29.8572 76.3452 29.6701C76.4075 29.6074 76.4385 29.5214 76.4381 29.412C76.4378 29.3339 76.4219 29.2558 76.3904 29.1778C76.3745 29.0997 76.3665 29.0216 76.3662 28.9435C76.366 28.881 76.3892 28.8106 76.4358 28.7323C76.3103 28.5764 76.2238 28.436 76.1765 28.3112C76.1448 28.1706 76.1209 28.0379 76.1049 27.9129C76.0888 27.7724 76.0727 27.6318 76.0566 27.4912C76.0561 27.3506 76.0399 27.2022 76.0082 27.046C75.9765 26.9367 75.9216 26.8588 75.8433 26.8121C75.7806 26.7498 75.7492 26.703 75.7491 26.6717C75.7488 26.5936 75.7799 26.531 75.8422 26.484C75.6224 26.1721 75.4416 25.8445 75.2998 25.5011C75.158 25.1578 75.0006 24.8145 74.8275 24.4712C74.8426 24.2993 74.9046 24.1663 75.0137 24.0722C75.1227 23.9782 75.2004 23.853 75.2468 23.6966L75.9968 23.6945C76.6888 25.0363 77.217 26.4332 77.5813 27.8853C77.9612 29.3218 78.2943 30.774 78.5806 32.2419C78.6601 32.6636 78.7319 33.0852 78.7958 33.5069C78.8754 33.9286 78.9628 34.358 79.058 34.7953C79.0896 34.8889 79.1368 34.9904 79.1997 35.0996C79.2625 35.2088 79.2942 35.318 79.2945 35.4274C79.2948 35.5212 79.2717 35.615 79.2252 35.7089C79.3191 35.7711 79.3897 35.8568 79.437 35.9661C79.4999 36.0753 79.5471 36.1923 79.5788 36.3172C79.6261 36.4265 79.6655 36.5436 79.6972 36.6685C79.7288 36.7778 79.776 36.8792 79.8389 36.9728C80.0263 36.9566 80.1901 36.8702 80.3302 36.7136C80.4703 36.5569 80.5946 36.3769 80.7033 36.1734C80.8276 35.9543 80.9362 35.7431 81.0293 35.5397C81.1379 35.3207 81.2623 35.1484 81.4025 35.023C81.4176 34.8511 81.4483 34.687 81.4946 34.5306C81.5565 34.3585 81.5872 34.1866 81.5866 34.0147C81.742 33.7486 81.8817 33.4982 82.0059 33.2635C82.1301 33.0288 82.2073 32.7473 82.2374 32.4191C82.3153 32.3564 82.3621 32.3094 82.3776 32.2781C82.393 32.2312 82.4633 32.2232 82.5884 32.2541C82.587 31.8322 82.6481 31.4258 82.7718 31.0348C82.911 30.6281 83.0972 30.2448 83.3304 29.8848C83.3604 29.5253 83.4295 29.1657 83.5376 28.8061C83.6614 28.4307 83.8007 28.0631 83.9558 27.7033C84.0023 27.5938 84.0643 27.4686 84.142 27.3278C84.2196 27.1713 84.2582 27.0306 84.2577 26.9056C84.2575 26.8431 84.2417 26.7884 84.2103 26.7416C84.1945 26.6792 84.1864 26.6167 84.1862 26.5542C84.1858 26.4292 84.2323 26.3197 84.3257 26.2257C84.4192 26.1317 84.5048 26.0377 84.5826 25.9437C84.5814 25.5843 84.6192 25.2249 84.6961 24.8653C84.773 24.5057 84.9282 24.1927 85.1617 23.9265C85.238 23.395 85.3378 22.8791 85.4611 22.3787C85.5843 21.8628 85.7623 21.3701 85.9951 20.9007L86.8389 20.8983C86.8379 20.6014 86.9702 20.4526 87.2358 20.4518C87.392 20.4514 87.564 20.49 87.7518 20.5676C87.878 20.911 87.9652 21.3014 88.0136 21.7387C88.0775 22.1604 88.1101 22.551 88.1113 22.9103ZM102.906 24.6499L102.907 24.7436C102.797 24.7752 102.743 24.8535 102.743 24.9785C102.572 25.0571 102.392 25.1201 102.205 25.1675C102.018 25.1993 101.838 25.2545 101.667 25.3331C101.495 25.3179 101.315 25.3106 101.127 25.3112C100.955 25.296 100.784 25.2887 100.612 25.2892C100.143 25.2905 99.6743 25.3074 99.2056 25.34C98.737 25.3726 98.2682 25.3739 97.7994 25.344C97.581 25.4696 97.3392 25.5718 97.0738 25.6507C96.8241 25.7139 96.582 25.7458 96.3476 25.7465C96.1601 25.747 95.996 25.7241 95.8552 25.6776C95.4808 25.8661 95.0673 26.0235 94.6146 26.1498C94.1775 26.2761 93.7326 26.4023 93.2799 26.5286C92.8272 26.6392 92.3901 26.7733 91.9688 26.9307C91.563 27.0725 91.2043 27.2766 90.8928 27.5431C90.8622 27.762 90.8396 27.9808 90.8247 28.1996C90.8097 28.4027 90.8026 28.6059 90.8033 28.809C90.8041 29.0278 90.8126 29.2309 90.8288 29.4183C90.8607 29.6057 90.916 29.7931 90.9948 29.9804C91.073 30.0114 91.159 30.0346 91.2529 30.0499C91.3623 30.0653 91.4561 30.0728 91.5342 30.0726C91.6123 30.0724 91.6904 30.0643 91.7685 30.0485C91.8465 30.017 91.901 29.9622 91.932 29.884C92.1662 29.8521 92.4006 29.8436 92.635 29.8585C92.8694 29.8579 93.1038 29.8572 93.3381 29.8566C93.5725 29.8559 93.7991 29.8474 94.0177 29.8312C94.2521 29.8149 94.4785 29.7752 94.697 29.7121C94.9468 29.6489 95.1889 29.6092 95.4232 29.5929C95.6731 29.5765 95.9153 29.5602 96.1496 29.5439C96.3839 29.5277 96.626 29.5035 96.8759 29.4716C97.1258 29.424 97.3833 29.3373 97.6485 29.2116C97.8519 29.2891 98.0551 29.3276 98.2582 29.3271C98.477 29.3265 98.688 29.3415 98.8912 29.3722C99.0009 29.45 99.0871 29.5357 99.1499 29.6292C99.2283 29.7228 99.2678 29.832 99.2682 29.957C99.269 30.1758 99.1916 30.3948 99.0361 30.6139C98.8806 30.8331 98.7563 31.0366 98.6631 31.2244L98.4053 31.2251C98.0303 31.2262 97.6633 31.2819 97.3043 31.3923C96.9609 31.487 96.6097 31.6052 96.2508 31.7468C95.9075 31.8728 95.5564 31.9909 95.1974 32.1013C94.8539 32.196 94.4947 32.2439 94.1197 32.245C94.0572 32.2452 94.0183 32.2843 94.0029 32.3625C94.0031 32.425 93.9877 32.4719 93.9565 32.5033C93.8784 32.4879 93.7611 32.4804 93.6049 32.4808C93.2455 32.4818 92.9019 32.5219 92.574 32.6009C92.2462 32.68 91.9104 32.72 91.5666 32.7209C91.4729 32.7212 91.3791 32.7215 91.2854 32.7217C91.1916 32.7064 91.0978 32.691 91.004 32.6756C90.9263 32.8009 90.825 32.8871 90.7002 32.9343C90.5753 32.9659 90.4583 33.0288 90.3492 33.1228C90.3028 33.2636 90.2722 33.4355 90.2572 33.6387C90.2579 33.8418 90.2508 34.0528 90.236 34.2716C90.2367 34.4747 90.2217 34.67 90.1911 34.8576C90.1605 35.0452 90.0985 35.1938 90.0051 35.3035C90.021 35.3816 90.0836 35.4126 90.1929 35.3967C90.3022 35.3651 90.357 35.4119 90.3575 35.5369C90.3579 35.6775 90.3428 35.826 90.3121 35.9823C90.2814 36.1386 90.2663 36.2949 90.2668 36.4512C90.2678 36.7481 90.3002 37.0761 90.3639 37.4353C90.4432 37.7788 90.5537 38.0988 90.6953 38.3953C90.8526 38.6917 91.0566 38.9412 91.3072 39.1436C91.5579 39.3304 91.8707 39.4232 92.2457 39.4222C92.4957 39.4215 92.7299 39.3739 92.9483 39.2796C93.1668 39.1852 93.3459 39.0284 93.4858 38.8093L93.6029 38.7855C93.6654 38.7854 93.7201 38.793 93.7671 38.8085C93.8296 38.824 93.8921 38.8316 93.9546 38.8314C94.0484 38.8312 94.1654 38.7761 94.3056 38.6664C94.4615 38.5409 94.625 38.3998 94.7964 38.2431C94.9834 38.0863 95.1703 37.9374 95.3574 37.7962C95.5443 37.6394 95.7236 37.5296 95.8953 37.4666C96.0039 37.2475 96.1048 37.0285 96.1978 36.8095C96.3064 36.5904 96.4621 36.4181 96.6648 36.2925L96.6624 35.6128C96.8181 35.4405 96.9816 35.2838 97.153 35.1427C97.3401 35.0016 97.4801 34.8215 97.5731 34.6025C97.6513 34.6335 97.7217 34.6567 97.7842 34.6722C97.8624 34.6876 97.9406 34.6952 98.0187 34.695C98.0968 34.6947 98.1749 34.6867 98.253 34.6709C98.3467 34.655 98.4325 34.6313 98.5106 34.5998C98.6362 34.7713 98.7306 34.9664 98.7938 35.185C98.8726 35.3879 98.967 35.5829 99.0771 35.7701C98.9374 36.0517 98.7745 36.3881 98.5883 36.7793C98.4021 37.1704 98.2003 37.5616 97.9829 37.9529C97.7655 38.3441 97.5324 38.7198 97.2836 39.0799C97.0504 39.4243 96.8169 39.6905 96.5832 39.8787C96.5365 39.9257 96.4351 39.9807 96.2791 40.0436C96.1076 40.1691 95.9518 40.2867 95.8115 40.3965C95.6713 40.5219 95.539 40.6629 95.4145 40.8195C94.9619 40.9614 94.525 41.1501 94.104 41.3857C93.6985 41.6212 93.293 41.8489 92.8875 42.0688C92.6999 42.0225 92.4967 41.9996 92.2779 42.0002C92.0904 42.0007 91.9029 42.0091 91.7155 42.0252C91.5281 42.057 91.325 42.0732 91.1063 42.0738C91.0435 41.9959 90.9496 41.9415 90.8245 41.9106C90.715 41.8952 90.6757 41.8172 90.7065 41.6765C90.1751 41.6468 89.7449 41.4995 89.4159 41.2348C89.0869 40.9858 88.8046 40.6741 88.569 40.2997C88.3489 39.9253 88.1679 39.5196 88.0258 39.0825C87.8837 38.6454 87.7338 38.224 87.5761 37.8181L87.5759 37.7478C87.5756 37.6697 87.6067 37.6227 87.6692 37.6069C87.7316 37.5911 87.7627 37.5442 87.7625 37.4661C87.7623 37.4348 87.7545 37.4114 87.7388 37.3958C87.6913 37.2241 87.6517 37.0757 87.6201 36.9508C87.5884 36.8259 87.5723 36.6775 87.5717 36.5057C87.5708 36.2557 87.5856 36.0134 87.6161 35.779C87.6465 35.5289 87.6613 35.2788 87.6604 35.0288C87.6596 34.7788 87.6276 34.5602 87.5644 34.3729C87.6267 34.2945 87.681 34.1928 87.7274 34.0677C87.7582 33.927 87.7812 33.7863 87.7963 33.6456C87.8115 33.505 87.8188 33.3643 87.8183 33.2237C87.8335 33.083 87.8565 32.958 87.8874 32.8485C87.8243 32.6768 87.7691 32.5285 87.7218 32.4036C87.6744 32.2632 87.6504 32.0992 87.6498 31.9117L87.6492 31.7476C87.8046 31.4815 87.9365 31.2077 88.0449 30.9262C88.1533 30.6446 88.2695 30.3552 88.3935 30.058L88.3932 29.9877C88.3917 29.5346 88.3745 29.0815 88.3417 28.6284C88.309 28.1754 88.2918 27.7223 88.2902 27.2692L88.2887 26.8239C88.2882 26.6677 88.2955 26.5192 88.3107 26.3785C88.4354 26.3157 88.5289 26.2295 88.591 26.1199C88.6532 26.0104 88.7466 25.9242 88.8714 25.8613L89.6448 25.8591L89.7847 25.6244C89.8313 25.5461 89.8622 25.4601 89.8775 25.3663C90.0492 25.3189 90.2131 25.256 90.3691 25.1774C90.5406 25.0832 90.6966 24.989 90.8369 24.8948C91.0552 24.7692 91.2501 24.6593 91.4217 24.5651C91.6088 24.4552 91.7882 24.3687 91.9599 24.3057C92.1471 24.2271 92.3422 24.164 92.5452 24.1166C92.7481 24.0691 92.9824 24.0294 93.2479 23.9974C93.3729 23.9971 93.4509 23.9734 93.482 23.9264C93.5287 23.8794 93.5911 23.8246 93.669 23.7619C93.8566 23.7926 94.0442 23.8233 94.2318 23.854C94.4193 23.8691 94.6069 23.8764 94.7944 23.8759C95.1694 23.8748 95.5207 23.8035 95.8483 23.662C96.3171 23.6606 96.778 23.6515 97.231 23.6346C97.6997 23.6177 98.1685 23.6085 98.6372 23.6072C99.0435 23.6061 99.4498 23.6206 99.8561 23.6507C100.262 23.6808 100.661 23.7343 101.052 23.8114C101.192 23.7641 101.349 23.7402 101.52 23.7397C101.708 23.7392 101.896 23.7621 102.083 23.8085C102.286 23.8391 102.482 23.8386 102.669 23.8068C102.685 23.9786 102.725 24.127 102.788 24.2518C102.866 24.3609 102.906 24.4936 102.906 24.6499ZM114.585 33.4998C114.586 33.6717 114.524 33.8047 114.399 33.8988C114.274 33.9773 114.212 34.0868 114.213 34.2274C114.213 34.2899 114.244 34.368 114.307 34.4615C114.088 34.4622 113.94 34.5329 113.862 34.6737C113.785 34.8146 113.707 34.971 113.63 35.1431L113.325 35.144C113.247 35.1442 113.184 35.16 113.138 35.1914C113.091 35.2228 113.044 35.2698 112.998 35.3324C112.966 35.3794 112.92 35.4576 112.858 35.5672C112.561 35.6305 112.272 35.7329 111.992 35.8743C111.726 36.0001 111.461 36.1414 111.196 36.2984C110.947 36.4398 110.689 36.5889 110.424 36.7459C110.159 36.8873 109.886 37.0053 109.605 37.0998C109.465 37.3346 109.263 37.5226 108.998 37.664L108.927 37.6642C108.849 37.6801 108.779 37.6724 108.716 37.6414C108.669 37.5946 108.607 37.5714 108.529 37.5716C108.482 37.5717 108.45 37.5796 108.435 37.5953C107.967 37.9091 107.444 38.0668 106.866 38.0685C106.71 38.0689 106.561 38.0615 106.421 38.0463C106.28 38.0154 106.132 38.0002 105.975 38.0007C105.928 38.0008 105.897 38.0165 105.882 38.0478L105.835 38.1417C105.82 38.173 105.796 38.2043 105.765 38.2356C105.75 38.2669 105.695 38.2827 105.601 38.283C105.429 38.2835 105.257 38.2605 105.085 38.2141C104.913 38.1677 104.734 38.1604 104.546 38.1922C104.186 37.9901 103.904 37.7956 103.701 37.6086C103.497 37.4217 103.308 37.141 103.135 36.7665C103.056 36.5948 102.947 36.4311 102.805 36.2752C102.68 36.1193 102.585 35.9477 102.522 35.7604C102.507 35.6979 102.483 35.5886 102.451 35.4325C102.419 35.2607 102.387 35.0811 102.355 34.8937C102.323 34.7063 102.292 34.5267 102.26 34.3549C102.244 34.183 102.235 34.0659 102.235 34.0034C102.234 33.8159 102.242 33.6362 102.257 33.4643C102.287 33.2767 102.318 33.0891 102.349 32.9015C102.44 32.3075 102.501 31.7136 102.53 31.1197C102.575 30.5102 102.706 29.9239 102.922 29.3608C102.891 29.189 102.874 29.025 102.874 28.8687L102.872 28.3531C102.871 28.0562 102.831 27.8064 102.752 27.6035C102.877 27.4 102.938 27.1732 102.938 26.9232C102.937 26.642 102.819 26.4783 102.584 26.4321L102.584 26.3617C102.583 26.0336 102.473 25.7761 102.253 25.5892C102.251 25.0424 102.383 24.6357 102.648 24.3694C102.928 24.0873 103.294 23.8441 103.747 23.6397C103.809 23.5458 103.832 23.4676 103.816 23.4051C103.926 23.4361 104.027 23.467 104.121 23.498C104.215 23.529 104.309 23.5444 104.403 23.5441C104.559 23.5437 104.699 23.5198 104.824 23.4726C104.872 23.66 104.989 23.7768 105.177 23.8232C105.38 23.8538 105.545 23.9003 105.67 23.9624L105.671 24.2671C105.672 24.7515 105.791 25.2121 106.027 25.6489C105.965 25.7741 105.926 25.907 105.911 26.0477C105.896 26.1883 105.889 26.3212 105.889 26.4462C105.89 26.6337 105.898 26.8212 105.914 27.0086C105.931 27.1961 105.939 27.3757 105.94 27.5476C105.94 27.7351 105.918 27.9227 105.871 28.1103C105.841 28.2979 105.755 28.4622 105.615 28.6032C105.6 28.8064 105.585 29.0408 105.571 29.3065C105.572 29.5565 105.557 29.8143 105.526 30.08C105.512 30.3457 105.474 30.6036 105.412 30.8538C105.35 31.104 105.257 31.3073 105.133 31.464C105.118 31.6984 105.103 31.9406 105.088 32.1906C105.089 32.425 105.09 32.6516 105.091 32.8703C105.092 33.2141 105.109 33.6203 105.142 34.0889C105.19 34.5576 105.301 34.9479 105.474 35.2599C105.552 35.3847 105.701 35.478 105.92 35.5399C106.155 35.6017 106.342 35.6324 106.483 35.632C106.655 35.6316 106.827 35.6076 106.998 35.5603C107.186 35.4972 107.318 35.3953 107.396 35.2545C107.489 35.2698 107.552 35.3165 107.584 35.3946C107.615 35.4726 107.67 35.5349 107.748 35.5816C108.638 35.2041 109.527 34.8422 110.417 34.4959C111.306 34.1497 112.18 33.7488 113.037 33.2932C113.163 33.3554 113.296 33.3863 113.436 33.3859C113.592 33.3854 113.749 33.3694 113.905 33.3377C114.061 33.306 114.217 33.2899 114.373 33.2895L114.537 33.289C114.569 33.3827 114.585 33.4529 114.585 33.4998Z" fill="black"/>
<path d="M7.95656 42.2482C6.39607 42.1085 4.97885 41.7525 3.7049 41.1801C3.29625 40.9893 2.79135 40.7267 2.19021 40.3924L3.44285 38.2289L3.80285 38.2278C4.13967 38.4669 4.6326 38.7415 5.28166 39.0517C6.57946 39.576 7.88835 39.8363 9.20834 39.8326C10.8163 39.8281 12.051 39.4406 12.9124 38.6702C13.7977 37.8757 14.2381 36.8184 14.2336 35.4984C14.2308 34.6584 14.0004 33.9511 13.5424 33.3764C13.0844 32.7777 12.5187 32.2873 11.8454 31.9052C11.1721 31.523 10.2465 31.0577 9.06861 30.509C7.65049 29.889 6.50853 29.3162 5.64274 28.7906C4.77686 28.2411 4.03042 27.5232 3.4034 26.6369C2.80029 25.7266 2.4965 24.6115 2.492 23.2915C2.48637 21.6355 2.94959 20.2302 3.88166 19.0755C4.81366 17.8969 6.14295 17.1012 7.86956 16.6883L7.86135 14.2763L11.6413 14.2657L11.6489 16.4976C13.1374 16.6375 14.5306 16.9935 15.8286 17.5659C16.3334 17.8044 16.8023 18.0791 17.2354 18.3899L15.9828 20.5534L15.6228 20.5545C15.3099 20.2913 14.877 20.0286 14.3241 19.7661C13.1222 19.2175 11.8733 18.945 10.5773 18.9487C9.25727 18.9524 8.17858 19.3394 7.3412 20.1098C6.50382 20.8802 6.08701 21.8173 6.09076 22.9213C6.09362 23.7613 6.32407 24.4807 6.78211 25.0794C7.24007 25.6541 7.8057 26.1325 8.47901 26.5146C9.15231 26.8967 10.0779 27.3621 11.2558 27.9108C12.6739 28.5308 13.8159 29.1156 14.6818 29.6651C15.5476 30.1907 16.282 30.9086 16.8851 31.8189C17.5121 32.7052 17.8279 33.8083 17.8324 35.1283C17.8388 37.0243 17.3161 38.5858 16.2643 39.8127C15.2365 41.0396 13.7271 41.8239 11.7363 42.1655L11.7443 44.5055L7.96428 44.5161L7.95656 42.2482Z" fill="#00816E"/>
</svg>
