<svg width="107" height="94" viewBox="0 0 107 94" fill="none" xmlns="http://www.w3.org/2000/svg">
<path d="M87.4803 49.5712C86.6298 49.5739 85.9422 50.1864 85.9445 50.9393C85.9474 51.8939 85.0727 52.6731 83.9944 52.6765C82.9163 52.6798 82.0365 51.906 82.0335 50.9514C82.0312 50.1983 81.3398 49.5903 80.4893 49.5929C79.6387 49.5955 78.9511 50.208 78.9534 50.961C78.9611 53.419 81.2264 55.4117 84.0028 55.4031C86.7793 55.3945 89.0322 53.3876 89.0246 50.9298C89.0222 50.1765 88.3308 49.5686 87.4803 49.5712Z" fill="#00816E"/>
<path d="M101.938 49.7494L97.5993 48.5336C97.0437 48.3778 96.6049 47.9868 96.4258 47.4877C95.5043 44.9192 94.1182 42.5096 92.306 40.3254C91.48 39.3298 90.5621 38.3796 89.5597 37.4753C90.1915 34.9899 90.5305 32.1782 90.4779 29.7501C90.4027 26.2766 89.6122 24.2417 88.0614 23.5285C87.2262 23.1439 84.6845 21.9757 70.9637 27.5853C70.6388 27.718 70.3354 27.8813 70.0547 28.068C69.1279 27.8506 68.1806 27.6497 67.2276 27.4697C67.1128 27.4479 66.9945 27.4287 66.8789 27.4074C67.9855 25.2512 68.6283 22.911 68.743 20.4969C68.7787 19.7444 68.1188 19.1093 67.2688 19.0785C66.421 19.0438 65.7009 19.6319 65.6654 20.3843C65.477 24.3538 63.6288 28.0938 60.4615 30.9153C58.5691 32.6011 56.351 33.8282 53.9853 34.604C49.877 34.1066 45.6941 34.1195 41.5889 34.6424C39.2183 33.8812 36.9928 32.6679 35.09 30.9939C31.6923 28.0048 29.8137 24.0224 29.8006 19.7802C29.7874 15.5378 31.6413 11.544 35.0204 8.53393C38.3996 5.52364 42.8999 3.85764 47.6918 3.8428C52.4837 3.82796 56.9942 5.46605 60.3919 8.45535C61.7573 9.65654 62.8868 11.0286 63.749 12.5331C64.1337 13.2045 65.0607 13.4724 65.8192 13.1312C66.578 12.7904 66.8811 11.9695 66.4965 11.2983C65.4859 9.53411 64.1628 7.92677 62.5643 6.52028C58.5831 3.0179 53.2982 1.09861 47.6835 1.116C42.0688 1.13339 36.796 3.08538 32.8366 6.61235C28.8772 10.1395 26.7051 14.8192 26.7205 19.7896C26.7359 24.7599 28.9369 29.4262 32.9181 32.9286C34.0665 33.9389 35.3151 34.8069 36.6352 35.5332C36.6357 35.5332 36.6361 35.533 36.6365 35.533C35.6796 35.7563 34.73 36.0066 33.791 36.2877C32.9851 36.5289 32.5522 37.3026 32.8241 38.0161C33.0958 38.7294 33.9699 39.112 34.7756 38.8709C43.167 36.3592 52.4184 36.3306 60.8251 38.7902C60.9873 38.8377 61.1519 38.8598 61.3137 38.8593C61.9579 38.8573 62.5575 38.4947 62.7713 37.9233C63.0388 37.2083 62.6011 36.4372 61.7937 36.2009C60.853 35.9257 59.9019 35.6811 58.9436 35.464C58.944 35.4639 58.9444 35.4641 58.9448 35.4641C60.2606 34.7296 61.5036 33.8539 62.6458 32.8365C63.6562 31.9365 64.5475 30.9543 65.3208 29.9109C65.7456 29.9826 66.1672 30.0578 66.5827 30.1363C67.1361 30.2409 67.6871 30.3534 68.2332 30.4715C68.2162 30.5308 68.1988 30.59 68.1847 30.6502C67.4434 33.8079 67.5008 36.5984 68.3553 38.9438C69.1233 41.052 70.5028 42.7576 72.4552 44.0136C74.7563 45.4936 77.5309 46.1274 80.0423 46.1197C81.9325 46.1138 83.674 45.7443 84.9518 45.0987C86.3972 44.3683 87.6053 42.8351 88.5583 40.5359C89.0035 40.993 89.4255 41.4614 89.8235 41.941C91.4369 43.8854 92.6707 46.0301 93.4905 48.315C93.9719 49.6571 95.1599 50.7106 96.6682 51.1336L101.007 52.3493C102.145 52.6684 102.912 53.5928 102.915 54.65L102.935 61.0128C102.938 62.07 102.177 62.9991 101.041 63.3252L94.063 65.3271C92.9466 65.6477 92.0031 66.3303 91.4063 67.2496C88.6755 71.4558 84.3725 74.9428 78.6159 77.614C77.9509 77.9229 77.4913 78.473 77.3544 79.1237L75.1501 89.6154C75.0892 89.9045 74.804 90.1149 74.4719 90.1159L67.1991 90.1384C66.867 90.1395 66.5804 89.9307 66.5178 89.6421L65.2609 83.8515C65.0135 82.7122 63.8033 81.9586 62.5037 82.137C59.3722 82.566 56.1448 82.7885 52.9116 82.7985C50.5061 82.8059 48.1311 82.6945 45.8521 82.4672C44.5919 82.3429 43.4207 83.1067 43.1887 84.2086L42.0284 89.718C41.9675 90.0071 41.6823 90.2175 41.3502 90.2185L34.0774 90.241C33.7452 90.242 33.4587 90.0333 33.3952 89.7403L31.2108 79.8443C31.0702 79.2067 30.6158 78.6656 29.9636 78.3597C20.1224 73.7461 14.9043 66.0035 14.8732 55.9695C14.8575 50.8997 16.0966 46.4129 18.5559 42.6331C20.8508 39.1058 24.2095 36.1849 28.5388 33.9511C29.2739 33.5717 29.5228 32.7369 29.095 32.0863C28.6672 31.4359 27.7244 31.2165 26.9892 31.5954C18.5946 35.9271 13.5441 42.5853 12.174 51.0264L12.174 51.0262C12.0258 51.0148 11.8773 51.0039 11.7295 50.9908C11.7536 50.0805 11.5647 49.1625 11.1568 48.2724C10.2572 46.3089 8.41743 44.8955 6.4695 44.6715C4.93448 44.4944 3.47601 45.0756 2.46628 46.2641C1.00226 47.9874 1.24602 49.3469 1.70809 50.1838C2.48817 51.5964 4.4852 52.591 7.79604 53.21C7.70547 53.3309 7.6058 53.4523 7.49663 53.5743C5.54829 55.751 3.24643 56.238 1.75097 56.2878C0.875515 56.3167 0.176354 56.9412 0.178756 57.7168L0.178776 57.7234C0.181146 58.4884 0.864945 59.1102 1.72839 59.1425C1.83899 59.1467 1.95453 59.1487 2.07483 59.1483C3.96727 59.1425 7.00265 58.5152 9.91065 55.267C10.3698 54.7544 10.7435 54.2138 11.0303 53.6556C11.321 53.6838 11.6003 53.7078 11.8678 53.7289C11.8678 53.7284 11.8678 53.728 11.868 53.7275C11.8178 54.4665 11.791 55.2162 11.7933 55.979C11.8109 61.6562 13.3555 66.7133 16.3838 71.0106C19.1761 74.9724 23.1663 78.2111 28.2477 80.6402L30.3713 90.2609C30.7129 91.8349 32.275 92.9733 34.0858 92.9676L41.3586 92.9451C43.1694 92.9395 44.7245 91.7915 45.0563 90.2154L46.1054 85.2339C48.3167 85.4343 50.6059 85.5323 52.9198 85.5251C56.0946 85.5153 59.265 85.3097 62.3542 84.9137L63.4926 90.1587C63.8344 91.7327 65.3965 92.8708 67.2071 92.8652L74.4799 92.8427C76.2907 92.8371 77.8458 91.6891 78.1778 90.1125L80.3241 79.8976C86.4679 76.9984 91.0939 73.2006 94.0762 68.6068C94.2912 68.2757 94.623 68.0323 95.0104 67.9211L101.988 65.9192C104.403 65.2257 106.022 63.2503 106.015 61.0029L105.995 54.6401C105.988 52.3928 104.358 50.4275 101.938 49.7494ZM87.1784 33.5916C86.5995 38.081 85.0213 41.9246 83.4261 42.7306C81.613 43.6469 77.4208 43.8357 74.2666 41.807C71.1087 39.7759 70.0484 36.1091 71.2 31.203C71.2 31.2028 71.2 31.2028 71.2 31.2028C71.3157 30.7101 71.7095 30.2829 72.2535 30.0605C79.9541 26.9123 84.3962 25.8766 86.0477 25.8715C86.2969 25.8707 86.4826 25.8934 86.6063 25.9358C87.1038 26.4023 87.7627 29.0609 87.1784 33.5916ZM4.47589 48.9847C4.31563 48.6942 4.69022 48.1817 4.92788 47.9017C5.30454 47.4585 5.65253 47.367 5.91565 47.3662C5.97125 47.366 6.02314 47.3699 6.0707 47.3754C6.77907 47.4569 7.77332 48.1436 8.30251 49.2985C8.42716 49.5704 8.58936 50.0209 8.62872 50.5833C6.49551 50.1988 4.83736 49.6402 4.47589 48.9847Z" fill="#00816E"/>
<path d="M49.2319 18.1581L49.2168 13.2793C51.1177 13.3937 51.8261 14.1605 52.4776 14.1585C53.2922 14.156 53.6694 13.2416 53.668 12.7849C53.6644 11.6071 51.0563 11.1106 49.21 11.0682L49.2079 10.419C49.2071 10.1306 48.7989 9.86748 48.3917 9.86874C47.9299 9.87017 47.605 10.1356 47.6059 10.4239L47.6081 11.1209C45.0295 11.3693 42.454 12.579 42.4634 15.6074C42.4729 18.6838 45.1906 19.5407 47.6365 20.3021L47.654 25.9502C44.884 25.7665 44.1458 24.0864 43.2498 24.0892C42.5711 24.0913 42.0035 24.8862 42.0053 25.4631C42.0089 26.6407 44.2945 28.244 47.6612 28.2817L47.6635 29.0267C47.6644 29.3151 47.9912 29.5784 48.4527 29.577C48.8601 29.5758 49.2665 29.3101 49.2656 29.0217L49.263 28.2046C52.1942 27.8349 54.1982 26.1944 54.189 23.2381C54.1789 19.9695 51.5963 18.9198 49.2319 18.1581ZM47.7913 17.706C46.3509 17.2298 45.1819 16.7288 45.1777 15.3589C45.1738 14.109 46.2579 13.5048 47.7778 13.3319L47.7913 17.706ZM49.0928 25.8977L49.0771 20.8265C50.4089 21.327 51.4699 21.9967 51.4746 23.5107C51.4788 24.881 50.5581 25.6529 49.0928 25.8977Z" fill="#00816E"/>
</svg>
